<?xml version="1.0" encoding="UTF-8" standalone="no"?>
<!-- Generator: Adobe Illustrator 16.0.0, SVG Export Plug-In . SVG Version: 6.00 Build 0)  -->

<svg
   xmlns:pdf="http://ns.adobe.com/pdf/1.3/"
   xmlns:xmpG="http://ns.adobe.com/xap/1.0/g/"
   xmlns:stDim="http://ns.adobe.com/xap/1.0/sType/Dimensions#"
   xmlns:xmpTPg="http://ns.adobe.com/xap/1.0/t/pg/"
   xmlns:illustrator="http://ns.adobe.com/illustrator/1.0/"
   xmlns:stEvt="http://ns.adobe.com/xap/1.0/sType/ResourceEvent#"
   xmlns:stRef="http://ns.adobe.com/xap/1.0/sType/ResourceRef#"
   xmlns:xmpMM="http://ns.adobe.com/xap/1.0/mm/"
   xmlns:xmpGImg="http://ns.adobe.com/xap/1.0/g/img/"
   xmlns:xmp="http://ns.adobe.com/xap/1.0/"
   xmlns:x="adobe:ns:meta/"
   xmlns:dc="http://purl.org/dc/elements/1.1/"
   xmlns:cc="http://creativecommons.org/ns#"
   xmlns:rdf="http://www.w3.org/1999/02/22-rdf-syntax-ns#"
   xmlns:svg="http://www.w3.org/2000/svg"
   xmlns="http://www.w3.org/2000/svg"
   xmlns:sodipodi="http://sodipodi.sourceforge.net/DTD/sodipodi-0.dtd"
   xmlns:inkscape="http://www.inkscape.org/namespaces/inkscape"
   version="1.1"
   id="Layer_5"
   x="0px"
   y="0px"
   width="608.86548"
   height="439.89975"
   viewBox="0 0 608.86548 439.89975"
   xml:space="preserve"
   sodipodi:docname="exercizer.svg"
   inkscape:version="0.92.1 r15371"><defs
     id="defs358" /><sodipodi:namedview
     pagecolor="#ffffff"
     bordercolor="#666666"
     borderopacity="1"
     objecttolerance="10"
     gridtolerance="10"
     guidetolerance="10"
     inkscape:pageopacity="0"
     inkscape:pageshadow="2"
     inkscape:window-width="1920"
     inkscape:window-height="993"
     id="namedview356"
     showgrid="false"
     fit-margin-top="0"
     fit-margin-left="0"
     fit-margin-right="0"
     fit-margin-bottom="0"
     borderlayer="true"
     inkscape:showpageshadow="false"
     inkscape:document-units="pt"
     inkscape:zoom="0.59599"
     inkscape:cx="302.34009"
     inkscape:cy="151.952"
     inkscape:window-x="0"
     inkscape:window-y="0"
     inkscape:window-maximized="1"
     inkscape:current-layer="Layer_5" /><metadata
     id="metadata2"><?xpacket begin="" id="W5M0MpCehiHzreSzNTczkc9d"?><x:xmpmeta
       x:xmptk="Adobe XMP Core 5.3-c011 66.145661, 2012/02/06-14:56:27        "><metadata><rdf:RDF><rdf:Description
             rdf:about=""><dc:format>image/svg+xml</dc:format><dc:title><rdf:Alt><rdf:li
                   xml:lang="x-default">illus-blog</rdf:li></rdf:Alt></dc:title></rdf:Description><rdf:Description
             rdf:about=""><xmp:CreatorTool>Adobe Illustrator CS6 (Macintosh)</xmp:CreatorTool><xmp:CreateDate>2018-05-25T11:29:59+02:00</xmp:CreateDate><xmp:ModifyDate>2018-05-25T11:29:59+02:00</xmp:ModifyDate><xmp:MetadataDate>2018-05-25T11:29:59+02:00</xmp:MetadataDate><xmp:Thumbnails><rdf:Alt><rdf:li
                   rdf:parseType="Resource"><xmpGImg:width>256</xmpGImg:width><xmpGImg:height>188</xmpGImg:height><xmpGImg:format>JPEG</xmpGImg:format><xmpGImg:image>/9j/4AAQSkZJRgABAgEASABIAAD/7QAsUGhvdG9zaG9wIDMuMAA4QklNA+0AAAAAABAASAAAAAEA
AQBIAAAAAQAB/+4ADkFkb2JlAGTAAAAAAf/bAIQABgQEBAUEBgUFBgkGBQYJCwgGBggLDAoKCwoK
DBAMDAwMDAwQDA4PEA8ODBMTFBQTExwbGxscHx8fHx8fHx8fHwEHBwcNDA0YEBAYGhURFRofHx8f
Hx8fHx8fHx8fHx8fHx8fHx8fHx8fHx8fHx8fHx8fHx8fHx8fHx8fHx8fHx8f/8AAEQgAvAEAAwER
AAIRAQMRAf/EAaIAAAAHAQEBAQEAAAAAAAAAAAQFAwIGAQAHCAkKCwEAAgIDAQEBAQEAAAAAAAAA
AQACAwQFBgcICQoLEAACAQMDAgQCBgcDBAIGAnMBAgMRBAAFIRIxQVEGE2EicYEUMpGhBxWxQiPB
UtHhMxZi8CRygvElQzRTkqKyY3PCNUQnk6OzNhdUZHTD0uIIJoMJChgZhJRFRqS0VtNVKBry4/PE
1OT0ZXWFlaW1xdXl9WZ2hpamtsbW5vY3R1dnd4eXp7fH1+f3OEhYaHiImKi4yNjo+Ck5SVlpeYmZ
qbnJ2en5KjpKWmp6ipqqusra6voRAAICAQIDBQUEBQYECAMDbQEAAhEDBCESMUEFURNhIgZxgZEy
obHwFMHR4SNCFVJicvEzJDRDghaSUyWiY7LCB3PSNeJEgxdUkwgJChgZJjZFGidkdFU38qOzwygp
0+PzhJSktMTU5PRldYWVpbXF1eX1RlZmdoaWprbG1ub2R1dnd4eXp7fH1+f3OEhYaHiImKi4yNjo
+DlJWWl5iZmpucnZ6fkqOkpaanqKmqq6ytrq+v/aAAwDAQACEQMRAD8A9U4q7FXYq7FXYq7FXYq7
FXYq7FXYq7FXYq7FXYq7FXYq7FXYq7FUHq82pw6fLJplul1erT0oJH9NW3Ffi+WTxiJl6jQas0pi
JMBcnmHmn8wNAkA0T8wbGfR3LLLbSQFpNxVS/wAIb4RXrRh9OZvD4VTxyErdcL1N48sDGt7/AB+1
juk/mZf/AJfeapND1mc6n5Pu6T6PfxBWMdtKapJGVH7xOodfEEr4HHyyOQ8XVz8GEYoiI5B7rp2p
WGpWUN9YTpdWdwoeGeIhlYHwIzHb0RirsVdirsVdirsVdirsVdirsVdirsVdirsVdirsVdirsVdi
rsVdirsVdirsVdirsVdirsVdirF/Pv5eaB500z6rqKendxAmzv4wPVhY/wDEkP7SHY/PfJRlS0+U
fNPl7WfLOsSeXNbLiK2ZntmqTEVk2E8Q/lfiOVPCh3GZMCDzacnFXp5pl+X/AOZPmDyJqdIibnS5
GBu9OZv3bg/7sjO/F6dGHXvXIzx9CyhMSFh9G+WfzC0zz/5f1OPy5cSadq8cLxqs6r6kEkisIpdu
asvIdsoMa5s3m/lH82/N/lLzI/l38xjIbQkqL6ZCZIiPsurIP30TeO59+2TMQRYW3s3lnzl5Y80W
8s+hX6XqQMEmCh0dCa05JIEcA0NDSh7ZWQQlOcCuxV2KuxV2KuxV2KuxV2KuxV2KuxV2KuxV2Kux
V2KuxV2KuxV2KpNc+cPL1t5ntvLE916es3cP1i3gKtR0q3R6ceX7ttq9sNbWqc4FdirsVdirsVYx
56/L3y550sVtdUjK3MAJtbyIgTRcvAkEFTTdTt9OSjIhXhvmj/nH3zfpETPpZi8wWCVKxKDDdIOv
woSQfkrGv8uXxzjkWieHe4mj+Of4tAflXoXmnQ9fm1OWOXTUWJoeL/C7ksDxKHeg471GaDtbtGHC
I45eu+nR3/ZugkZXkHprr1ZZ+Zka+cU02HUdRFpLZuyIigcJDNQfEtfhclQA30UyvS9p5xHiljMo
d42/Yy1HZ2Hi4YzqXcU7/Kny5quna2v1JfQ023iMdwSCY5AxBABFKyV33zd4tXjz4+KP9jqM2mnh
nwyew4GDsVdirsVdirsVdirsVdirsVdirsVdirsVdirsVdirsVdirzr8y/zKvfI+v6LLcRR3OgX6
TR3cCUF0skZU+olSKgBxt09xtk4xtBKa6L+b35c6wUS11uCKZ9hFdcrZq/y/vQik/InAYFbYx+Zf
5SahqWp/4w8sajNH5htCk9vaSP6kTNEeQEJb+7JO/E1UnwqclGXQqQnX5T/mfH50sLiC8hFnrmn0
W9thUKwO3qIrfEByBDL+yfnglGlBZ7kEuxVZJKqFRQszEDiu5oTStPAd8VU0glfg9w55ji3poxCK
4UhqEBSymv7X3YVXw21vCAIolj4osa8QBRFrxX5CuC1XTOUidxuVUsB8hXFXm3kvQW8xaXdanfXk
rXclyy8iQ6gBVO4O/wC10r0zE7R7Nx5ZX9Mu8fpc3Rdo5MQr6opZ5W/L+w8w21+19cSRtBcmH91S
tUo3IE1HX2zMzQkAIxNR4aqnFx5I2ZEXK7u3qGkaNZ6VbtDbcjzPJ3c1JPTtQZi6XSQwxqLdqdVP
NK5I7MlxnYqhJ9X0m3/3ovYIf+MkqL+s4REotExyRyIHjYOh6MpBB+kZEEHkyII5rsKHYq7FXYq7
FXYq7FXYq7FXYq7FXYq7FXYq7FVK4tbW5jMdxCk0Z2KSKHG/sQcVeYeef+cffKuu+pd6LTRdSNTx
iWtq7f5UQ+x80p8jk45CEUx38ifNut6Vr97+X+vs3K0Liy5kt6UkTUeIMf2HHxJ28PtZKcb3CgpD
5tk0Py/+YetXttdvYXF9NIpjVyooxUy14fsvKhbf5dsugBQtrkS9o/LXzWPMfl712mSee1f0JZUb
lyooKs3ua75RkiAdmcTsyzK2Sjbo/EySgiVyTxJVuANPhBAG21cJVWwKxu4/MXyfDUG/EjDtHHI3
4heP45YMUmPEEsuvzZ8shWRIbqYMCDRFUUPuXB/DJDCUcYYT5V893fl2Ga1igW6tJXMoR/gcOQq1
5DltRelMunj4mEZU7SPN3mDT7u7m0q3/AHF7I0zWrI0qKz71UgK23zxlAHmoJTF/N35lXX91HJCD
/Lbqop85FbI8EAm5KD/8rLu/t3NygPWkyxfgjLjcAvqQ7+UPNV3vc3KtXr60zv8AwbD4sQvCWP6l
pl5p10ba6TjIByBBqGU9CDlkZA8mJFPTrS+ubciS3lZK77dD8wdjnGQySgdjT1M8cZjcWybQ9Zmv
neGZFDIvLmu1d6dM22k1RyGiHVarTDGLCb5nOE7FXYq7FXYq7FXYq7FXYq7FXYq7FXYq7FXYq7FW
LXPlzSIfOTaq9mnrazAlm10hIkE1uHmVmHY+nGOLruCvyyYOzE83gP5rfll52i866hewaddatZX0
pnhu7eJpdn3ZZBED6ZU1G4A7jLIyCkPYfyN8lan5X8r3K6rb/Vr+/uTOYfUWTjEEURiqFlr9rvle
SVnZYjZ6NkGTsVdirwXynosOqaiUuK/V4V5yKNuW4AWvbM3JKg0xFs+i0HRIqcLGDboSisfvIOY3
Ge9soIqO1tov7qFE/wBVQP1YLSq4FXCKQ9EJ+QOKrxbXJ6RP/wACcVWPHIho6lT4EUxVgf5ipS7s
38Y3H3Ef1zIw8mubIYGDQRsOhUEfdnITFSL1MDsE98q/8dCT/jCf+JLmZ2d9Z936nD7Q+ge/9bKc
3Lp3Yq7FXYq7FXYq7FXYq7FXYq7FXYq7FVOW4ijNGJLbfAoLNRmC14rU0qdzjSrD9bkG1IRv/lNU
Nt7UK4VXpBxcO0juw5heTUADsGpxXip40AUkVA77nG1Q93wkv7KOlZI2ef5KsbRV++UYjkhdqzsm
mXbK3EiJ6P8Ay/Cfi+jrjHmpREaqsaqu6gAKeuwG2BK7FXYq7FXi/wCXn+9l5/xiX/iWZOfk14+b
MLKa6lLNKKR0HpGlOQqfi6kj5Zq9JlyTJMvp6bc/P9jn6rHjgAI/V18vL9rJ7SG1EKmMK1QKt1Nc
zHEV/hXwAxVozRDq6j6Riqw3dsP92p94xVBajeQSRemh5tWvLsMKHm/5jKfUsG7ESj7iv9cvw9Wu
adWTcrOBvGND96jOSzCpn3l6fEbiPcn3lcn9JN7xtX7xmV2f/efBxtf/AHfxZXm6dM7FXYq7FXYq
7FXYq7FXYq7FXYq7FVCWVmcwQMPVpVm2b06/ZLJUH4qGmFV3G3twCzULuQGdix5SNXiCxJpU7DoO
2KrVe6l4sqiFDwb4/ifqeaFRQLtSh5H5bbqr4oOBDNI8j8eJLHYipNeKhVrv1pjapJ5h0+aAXmtQ
TyiSG25GJZJE2gDuOPE8DXkdnRvoyUT0YkdXn0H5v65aw8r2GC4hQVlk4Mr07n4SF2/1cvOEMBMs
n8gedItTu59NdRAoHqWENS1F3LxhidwvVRTp7DK8mOt2UZM5ylm7FXEgAkmgHU4q8X/Lv/ey8/4x
r/xLMrPyaoM3iuYJW4xuHIFTTeg6b5g488Jmom3JngnAXIUmMGmXDoHLBAdwO/4Zc1Kn6HbvKPfb
+3FVw0cd5f8Ahf7cVbGjx95G+4YEqF5p3oR+orclGxB674UPP/zGU8dPbsDKPv4f0y/D1YTTTTG5
abaN4wxn71GcpqRWSX9Y/e9LgN44+4J/5ZJGpgeKMD+By/Qf3nwaNd/d/Flubt0qnczNDbySrG0r
RqWESbsxA6D55DJLhiTV0zxx4pAXVsIv/NfmGSV/SjFjGooUYKWWnUszgfqznsnaGpnKojh8v7Xf
49Bp4xuR4vP+xH+XdR803V0iz8ZLRGpPIwQGlNgOND+GZGhz6qchxbx68nH1uHTQieHaXTmytmVV
LMQFG5J2AzeE06UC2P6lqjXt3DZ2LkpzHN12qa9j4DNXn1BySEIF2eDBwRM5shzaOsdirsVdirsV
diqnNIyUWNeUr/ZqG47deTKGC7dK4VdFAsbM5POVhxaVgoYqGZlU8Quy8zTBaqmKtO6Ipd2Cooqz
E0AA8ScBIAspAJNBKLvzR5WHK1udRtiJV4uhkBHFhQhiNh9OSx+ocUdwsxwmjsXifmPTbPT9XuLS
0uEu7RSDFKjK4KsK8SVqKitDmbE2HHISrRbu50+4QwOUnsXUwSDrxG6V+j4T40w1eyvony/rEWsa
Pa6jGOPrp8afyup4uv0MDmFKNGm4G0wyKVO6/wB5pv8AUb9WEK8b/Lv/AHsvP+MS/wDEsyc/Jqx8
2a21pHByKkl33kYn7R8adO+a/Bpo47rmeZ7/ADcvNqJZKvkOXkm0WrMqBXTkRtyBpmQ0LzrA7Rf8
N/Ziq06w/aIff/ZirX6XmPSNfxxVD3F7POOLkBf5RsMVYP8AmKp+rWTdg7j7wP6Zdh6sJo7R2J0q
zJ/3yg+5QM5fVj97L+sXo9Mf3cfcGQeWzTVUHirD8K5ZoT+8DXrR+7LL83jpHYqwrzHZqutPPWok
QAjYgjbY+4IzTa24yPcd3caMiUR3jZG6VffULGSiF5XJah2AAFBmVpYHHiMjz5uNqZjJlERy5Ky2
es6qwa7Y29tWoSlPuXr9LZUMWXN9Xpi2HJiw/TvJObLTrSzTjAlGP2nO7H5nM/FgjjGwcHLmlM7l
E5a1OxV2KuxV2KuxV2KrXlijKh3C824JU0qx3oPfbFVJJLmQxuqCOJuLNzrzoykleP7LBuPc98Kp
frmjXeqTW6C59GyQ8powASxBqNiCp/2X3Zg6rSyyyjv6BzHe5um1McUZbes8j3MU1T8pfrl9cXce
qcPXdnEZgG3I1pVXUfcubOGURAADr5RJNkvLL+K7tr6a2ijW4SNykUgYqXodiVK7V+Zy3DmGSAnH
kUZcRhIxPMJnofkTzbdkubCRZbhuTySAxxKKAABpApIAHhvkjkA6seEva/KuhfoPRINPZxLKvJ5n
FaF3NTSvYdMxJys22xFBN8ilTuv95pv9Rv1YQrxz8u1/0m9avSNB77k/0zIz8mvHzZfYtduzNPUR
0HpVABIqd2HZs1ekllkSZ/T0/b5ufqo4ogCHPr+zyZRb29qI1Maqwp9rYk/TmY4ir6cY/ZH3DFW+
K+AxV3JfEYqgNUktjFSoMtRSnUfPFXn/AOYin6haN2EpB+lf7Mvw82uavoRJ0e0J/wB9gfdtnM60
fvpe96LSf3UfcyHy6QNWhHiHH/Ck4dEf3oY63+7KaDUtbgaS3ktWnm5HhKAQvE/IdPpzMGfNG4mN
lwzgxSqQlQbMHmS4+KV1iTvEpAJ9tq/icsxxzGQMth3MMksIiRHc96XulHKtQlSQe+4zOIBcIEhM
9Eto3Z5XFWjI4eAO++JVOcCuxV2KuxV2KuxV2KuxVTnnWJR0MjkrFGWCl2ALcVrTfipPyGIV0UPB
mkY85WHFnpSqhmKinTbliqpirsVcwDKQehFDiQoLFvKflSOwlmu72zQX/OkU5Ic8AKVWhIX9eYHZ
uPLjxmE+QOzn9o5ceTIJQ7t2U5nuA7FXYqp3X+803+o36sIV49+XjBZL9j0CRk9+hbL9RIAWWvEL
NBmsU8UpIjYPxpUjcb79cxceaM74TdN88UofUKtMYtMuyvLkI69qmv4ZY1rxpVx3lH44q1+h5f8A
fg+44q4aPJ3kH3HFVO402aJC4IdRuabGmKsK/MJT+irduwnA+9G/pl2HmwnyXeXSTotrX+U/gxzm
9f8A30noNF/dRZFoBA1e3r/lfihyOj/vR+OidZ/dH8dWZZvnROxVhuuarpmm3kyXdykTciwQmrUb
cfCKt+GTjEnkxJpOfKl1HeacbyEN6EzH0mYceQXYsAe1dsEhRSCnORS7FUo1bUJ7K/tpKt9VccZR
QFevbvUZg6nNLHOJ/h6ubp8IyQI/iTWOWOVA8bB0PRlNRmbGQIsOHKJBorsKHYq7FXYqt4fvTJyb
dQvCvw7EmtPHfFV2KuxV2KqMt7aRfblUHwBqfuGKof8ATNl4t92GlXDV7A/7sI+at/TGlXDU7A/7
tH0gj+GClXi/sj/u5fvxVbcXVs1vKFmQko1AGBPTCFeTeQrW5ikv1lR4GZEALKVIPxdKjLtQOKNA
0wxGjZFsxtreO2XjFUb1JJJqfHfMTDgjiFRcjNnlkNyTaPWBxHqR1buQeuXNK79MRf77b7xgV36Y
T/fR+/8Aswq1+mF/30fv/sxVRuNUeVCipwDbE1qaYqwz8wFJ0WIj9m4Un/gHH8ctw82M+Sn5YJOh
21f8v/k42c92l/fy+H3B32h/uY/H72R6H/x1bf8A1j/xE5VpP70M9X/dlmmb90LsVeB+brttQ80a
lOlXHquq03+CEcK/LilczYCoholzZ7+VnmcXNodEuSBPbKWtT/PFWpX5qT93yynNDq2QPRn+UM3Y
qpz28NxEYpkDoeoORnASFHkyhMxNhJZdGv7FzNpkx49WhY/5g5r5aWeM3jPwc+OqhMVkHxVoNckG
1xGD7pt+BzZAGt3XE77PIPPH/OR8lpf32l+XrFWEBeFNTlf/AHau3JIuJHFWr1Pxe2WxxotMfy0/
Pq48wa3pfl/VbNEubqJkkv0biDcJyYfu6UAdFHQ/aPhglClBezZWl2KuxV2Kse1W7+tTcVYiFKhe
LEV8TtgMAeaRIhLFUNKVUtwTZjybdj2G/bvlAiDKhdDzPP5t5lUbNWfIcvk48/WEaO2wrIdjQduo
6nCQeLhBPn+KQK4eIgeTchdOIDszuaKp4/Sdh2w5LjVEkn3fqRCpXYAA9/61zmVFLM6hVFSSp6f8
FkpcURZIoeX7WMeEmgDfv/Y0huGQMeIJ34lSCPxOMDkIvb5ftTIQBrf5/sWy3LRbMoLHpQ/wplGf
VHFsQCW7Bphk3BICHa8mPQhfkM189fkPLZz4aHGOe6pZM8k9GY9Op6DcZdockpZDZJ2atbCMcYoV
uyaPTrRFAKcz4nNs6pf9StP99Lirvqdr/vpfuxVsWlqP91J9wxVTuLO0MbFkVKD7Q2pirAfPik6E
CP2ZkJ+4jLsPNhPkhfKh/wBwsP8ArP8A8SOaDtP++Pw+53nZ/wDdD4sk0b/jqW3+vmPpf7yLdqf7
ss2zoHQKV1OtvazXDfZhRpG+Sgn+GEBXmX5S6SLm9vtVnXmI19GMsKgvJu5/4Hb6cyM0tqa4BC+b
tEm8peYbbWdMXjZvJziUdEcfbiP+Sy1p7VHbDCXEKKJCi9U0++gv7GC9tzWG4RZE8aMK0PuMxiKL
aERgV2Koa+vo7WOp+KRvsp/E4qx6aVpZGkanJjU0FBkkMB1HyB5Ql1RrmXRo5JLuR2uZubKqsQd+
HID4j/KOu+aSery2RxVTuoabHQNc2O2XkXy/5e836N5j0+99DTLS9IvYpSZPT9MMCI6Kzt8S8SNz
36ZstDnyZjwEXKrdd2hDFgjxk1G6eq3P5veToq+m9xcU/wB9xEV/5GFM2sez8p7g6KXbGAcrPwSu
5/O3Slr9W02eXw9R0j/4j6mWx7Ml1IaJduQ6RP4+aWzfnXqkrcbTSolY9A7vKf8AhRHlo7MiOcnH
Pbkz9MR96aeXvNXnLWpJm1COOyslXiFSJkZ2bwMhc0GYuqw44Con1H7HP7P1GfLLimAIjy5pjL9Y
UqkctXfpyUGgHVjSnTNRk4xQjLc94+3pyd9j4DZMdh5/Y0RcQRKqujHoi8TVmPvyPzOAieOIAIPd
sdz/AKb4lIMMkiSCPiNh8vk2izwozMUPV5HNR/XDGM8YJPD3k7okYTIA4u4B0X1pm9Zo0qwooLkF
V8Ps9fHBj8QnjIG/nyH+l+acnhgcIJ28uZ+aCu9YgS4EUqErGauEIarDoN6dMwdR2nCOThkNo863
3+zl97m6fs6cocUTueV7bfbz+5Vi120lfgiScj0qBT8Ccsj2xikaAlf482uXZOWO5Mfx8FjszsWb
qeua7JkM5WXYY4CIoLcgzRVgKyN8v45suzR6j7nXdon0j3p5Db6mEAVyi9gx/wBvNw6lf9X1X/fo
+/8AsxV31TUzv64/4I/0xVxs9SP+7x/wTf0xVSnsL7jVn9UDtyJP44qxHzypOgSEfsyIT99MsxfU
xnyS/wAokfodfaR65o+1f774B3XZ3918WS6V/wAdK2/4yL+vMTT/AN5H3uTqP7uXuZvJJHGheRgi
KKszGgA9yc6EC3nia5sG/MT8x/Kek6LPZvfrPd6hFLBDFa0nZeS8S0nCvBfi77ntXLo4pAiwWrxo
EGpD5pV5E8++UdI8rQRXF0y3UjSSyQrDLy3Yha1UCpVR3zIlpMszYGziS7SwQ2Mt/JCefPzT0TUP
L11YabYT313LQQ+rwhjRgaiTkWZvh8Kb5OOgyDfZq/ljATW/ySvyn+al7onl+HTp7Bbm4Rnbn6xV
EDtyCKvBiaeNeuXfycZGyXFl22BtGN+8pl/ytXzrdzCCw0iMysvIRrFNNJxBA5AKw2rt0w/kMQFm
X3Nf8rZ5Gow+wlC33nD80FUtcMLBQKlJI4IWI9hN8f3YRh0w8/mnx9dLkK+AH3sr0vXLfVbFbz1P
iC/v1dqmMgVIYnt4HNXkjRp3+ORMRexeZax5w1jUrh76G9nsdPDAWFvbngxUmiPJtVmkqDxOw6Ur
Um6OMVugyei6CH1Py9Y3+oIsk78hzoByaFynqUGwrxrtmFm08DI25OPPMCgmEv5caFqzJe30ty7O
BxgEgESClPhHGor1O/XMjTZvBjw4wB97gavRjUT4shkfK9h7kp8x+RPK2mXegpa2dBdajHDcc5JH
5xkElSGYjt2GZuHVZJCVnlF12p0GHHKFDnMA82aW/lPyxbAejpVopHRvRQt/wRBOYR1GQ85H5u0j
pMUeUY/JGSG1sLZnSNY1H2UQBansNhlRJPNuEQOTGLqSVnknkmIJ+JqgEfR3/HKsgMQTxUPg3wok
DhsqEUd1vKzoHcCoZCeIHbZhlOOGT6iRZ8uXl9Tbknj+kA0PPn9jUQuZG9clCKUjFCNv5up+1+rB
jGSR4zXl+v4/cnIccRwC/P8AV8PvbJuJZAvFDHGav8RALdQPs9sSZzlVCo89+vy6IAhCN2bly26f
Pq65mvAnpxRr67g8KNUCnc1Axz5coHDEDjPLf7eQThx4ibkTwDnt+1IX0bUqlmjr3Lcl/ic5yfZe
oFkj7R+t6CHaWDYA/YUTZWvoJVv7xvte3tjhxcI805snEfJE5c0uxVG6Y5SUyAV4lTQ+xzadmD6v
g6ztE/T8WRJqlqRViVPgRX9WbV1jf6Ts/wCY/ccVa/Slp4n7sVd+lLTxb7sVU5NWiCn01JbtXYYq
w7zsC3l25Pg0ZP8AyMAy3F9TCXJKPJxB0lgO0zA/cpzS9rD97/m/rdz2b/d/Fk2mkjUbWn+/U/4k
MwMH95H3hy8/0S9xYh50utW80eejoNvKRBFL9XgiJIjUotZZGA6kUY/LO/00Y4sXGXzXWynn1Hhg
7XX6yyax/JbQo0H129uLiTv6fCJK/Ih2/wCGzFl2nM8gA5+PsTGPqJP2Jtb/AJWeSYacrJpiO8k0
v6lZRlJ1+U9XJj2Tpx/DfxKaW/kvynb09PSLUkdC8SyH73DZUdTkP8Rb46LCOUI/JvVdQ0Dy3Ym6
mjit1G0UUSKru38qAUyA4pnm3CEY8gA8g1rzFrPmLWTcQxukrR+hDb23It6XLlwPHd99zmVEcMa6
NRiDLireqQyeVfMztQaVd16/FBIv4kDHjj3suEoTXtI8xaPapFcQTWY1OttyrQMhBMoJU/77DUrg
4hJNEKWm6FqGu6vaaVp8fIg/WJz0RIo6AFj2+Nlp8sMpAc0AW9s1LTYdL8t2enwGscDInI9WPFiz
fS2+aTtKVwvzdp2ePX8E/tF42sK/yoo+4DMrGKiPc4uQ3I+9jXnf/e7y1/21Yv8AiLZnaXlP+q6z
XfVj/rhlWYjsGCebvO1nYay+nzxSsIFU1j4kVdQ1aErvQ5bDGSLYGVJT/jbQpPTaT1o1B5BWQbkd
CeJbplcsHFKv5v39G2OThj/W/BRDea/L08a1u+CEnkGSQcgOorT3GDJhM/T8/d+AuPJw+r5e9FDz
Bo0qERX8Ct2LOFA9/iphyQlVDYsYSje/JEW97pxRUhuYnA6cZFYmvyPfGGPhFBM58RsqsKHeRiGd
+43AA6AZXjgRZl9R/FM8kwaA+kfi1C7n5H016D7R981uu1N+gfF2Gi09es/BC5rHZOxV2Ko/S4ml
covViBXNv2aNpOq7RO4T5dJtwPiZmPjsM2Trm/0Va+Lff/Zirf6LtPBvvxV36LtPA/fiq19Jtyvw
Eq3Y9cVYh5zRv8O3q9SvCv0SrXLMf1MJcki8lkfoyYdxMT96Lmo7YH70f1f0l2/Zh/dn3/qZNYEi
+tyOolQ/8MM1uH6x7w52X6D7ixzSlVfzqcKKD6xcn6TbuTne5P8AFfgPvfOMQ/w/4n7i9fzTPSux
VJvNXma08v6d9amUyyyNwt4QaFmpXc9gO5ycIcRRI08ir5h8566AT6s7/MRQx1+nio+8+5zK2gGr
clnvl3y9Z6D51hsbYlydIkeaVuryG5QFqdumwyMpcWG/6X6HHG2pA/2s/wC6DN3kjQVdgo8WIH68
xHOeNfmpqdxqOul7ZoZtN0WAiX96BIryEPcSBQDVVRUG5G4IHXMvFjMRxEc3FlqIGXADuE//AC0s
v0NpMt9PAf0jqhWRw3wmOBAfRiI8QGLt/lMR2ynJKy5ERQTrWNWmu0WJlCojctgeoFOp+eaXX5b9
IHIu20OKvUeqvHqN4QGErjtQ+3t0zZ45CUbdbkiYmkLqcyXkllJdyFnsJ1uoAtBV0BADUHTfJHVx
xA2RuKYHRHMYmj6TbINH1ZtQMwMfARcaEHryr/zTlGDURyXXRyM2nOOr6vHPPc8U/m3UmatRIEqK
Efu0VOm38ubCImAKr8fjucU8PW0lkWL04hzI+EkVX/KPgTlWKU+KZoc+/wDojybcgjwx3PLu8z5q
8GnTXNsDCysEdq1JHUL4jMTUdpQwZTxiQuI7u+Xm5WDQTzY/QQakfuHk3JptxbQyNKVAcBRv7g/w
wYu08WfJEQB235eRH6Vydn5MMCZVvt9t/oQ9vC3roaqeJB+0p6b+OZmpzDw5DfcVyPX4OLgxHjB2
2PeP1ugiuPWjReSGRlQMKjcmnUZcc0aJB5BqGKVjbm9LAAAA6DYZxxNvUAOwJdirsVR2nsyqXU0Y
Nsflm57NHoPvdR2gfWPcmy6tcAUKqx8aEfqzYuvcdXuOyJ+P9cVd+l7n+VPuP9cVd+l7n+VPuP8A
XFVOTU7p1pULX+Ub4qx/zWCfL17Tc8AfuYHJ4/qCJcmO+Sm/0K4XuJK/eo/pmq7YHrj7na9ln0H3
sntDxuoT4Op/EZqsZ9Q97sMg9J9zH9N/8nW//Ge4/wCoZ876f+K/Afe+b4v8f+J/3JevZpnpXYq8
/vfL/nDzDqV1Dq8SWml+qfqp9VX4xgFVKRpyq9N6tTc77Djmdx4oRHDuXVxhqJzPF6Y3tv0936/2
IjVnsfJPlmG40JFl+tXCK07kOZFdHcHkKClF+Gm2Y4uZ3didhsxhfzI9S8F5c2R+t+n6HrxyAN6f
LlxpxG3LfrlnhGqvZr24uKt6pHRef9FlP71ZoyepZQw/4Uk5A4S2cYQixfl/dXzXpdBPIxeTm0sa
lm3aobiN+46Zd4+UR4ejh/kcJnx16ufMsoivrKZS0NxHKo6lHVv1E5hTkIC5bOwhEyNDdZLdx9FX
l1FT0zX5tdj6Dic/Fop9TwqD3Er7E0HgNswcmsyS60PJzcekxx6X71LMZyE+8pyET3Ee1GQN7/Ca
f8bZsuzT9Xwdd2iPp+LyHXnFxrmoz+ov7y5mYA8uhkJA3Gb8TIFcJ+z9bp+AHqPt/UhJompGAV2Q
ftL3JPj75ThzC5Hf6u49wHd5N2XEaiNuXeO8lOdFAjs6PRWLk799hnL9uHjz2NwIh6LsccOGjsbL
WuBntUCAt8Yrx37HwyXYJEcxMtvT194Y9tAyxDh39X6CksKssh5ClEfr/qkZ1WeQMRR/ij/ug85h
iRI3/Nl9xRnl6H1tZtV7K3P/AIAFv4ZDXz4cMvxzZaON5YvQc5J6V2KuxV2KpnpKRuyrIaIzGp+j
N32cP3fxdNrz+8+DI1trdRQRrT5DM5wm/Qg/32v3DFXehB/vtfuGKu9CD/fa/cMVU57a1MZ5oqgD
7QABGKsP8ygnQb4Df90T92+ThzDGXJi/klv9Hul8HU1+YP8ATNb2yPVH3Oz7LPpkymAgTxk9AwP4
5p4HcOzmNikGm/8Ak63/AOM9x/1DPnfz/wAV+A+982xf4/8AE/7kvXs0z0qnJOEkWNRzlbfgCAeF
QGbemy1w0qxLRTxe4ImlXi3Ij4Q6gjkiEtwO56Y2rCPzgkpo1jHv8VwW9vhQj/jbLsHNhN5Twbjy
oeNacqbVy/jF1e7DhNXWzQBJAAqT0GEkAWUAWiLuz+rLGHcGZhV4x+yO2+YWk1njmRiPQOR7+9y9
VpfBABPrPMdyeeSSfrN0OxRT9xzE7ZHpj73I7L+qXuZevHkOVePenXNHDhv1cnbzuvTzVhbEsCrB
oz1bw+eZI0hJBBuHe4x1YANipdyyRub0UfCNlA8Mqyy45ekbcg3Yo8EfUd+qY6JK1lcvPIhIMZRR
0NSyn+GbDQ4JxJMhVuv1uaEgADbBrj8vtQZ2eO7idmJJ5Bk3Py5ZuxmDquBB3PknXwQUjjkooFFk
HYU/a45HFIRHxJ+ZZZLkfgPuQdz5b16NIwbKQ8VPLgA+/I/yk9scZAlI95/QEz3jEdw/SUHLZXkE
BWa3kjPKpDoy7Ae4yXPJfTh/Si/RXW0RoRZrtgSSoQmh6dQM0/b4EcIIG/EP0u07FJOUgnbh/Uyj
TIYzd8woDKpNQN/D+OczppyJqzT0GohEC6FpxmY4jsVdirsVTCz/ALgfM5vtAP3QdJrj+8KKWedR
RZGA8AxGZjht/Wbn/fr/APBHFXfWbn/fr/8ABHFXfWbn/fr/APBHFVjyyP8Abdm+ZJxVLfMAJ0O/
p/vh/wDiJyUOYQeTEfI7fDeL2BjP38v6Zru2RvH4/odj2Ufq+H6WVIQHUnoCK5pRzdseTI4PJWiQ
+Ym8wKJTqLO78i/wAuhjNFA8DnXnUzMOD+F46OhxjL4u/EnksqRRNK9eCAs3EFjQeCqCT9GY7mLb
eN1QtIf3shDSAMzKGoBROXQbYSqpgV5x+cklIdKj3+Jp29vhCD/jbMjB1a8jzm1vZYGpXnCdniO6
kHrtlWr0MMwvlPpLqG/S6yWI1zh1j0R6WkNrI98KNbqoeAHuzdB9GaaeryaiMdOdshlU/cOvxdrD
SwwyOcb4wLj7z+pKpJHlkaRzVmNSc6PFijjiIxFAOiyZDORlLmWReSf96rn/AFB+vNV2x9Mfe7Hs
v6j7mXZz7ukQGMEYp9t9yD4ZniZwQFfVLf4OCYDNM39MfvYb5l1zULXWWWynaBAickXpU79Dtm60
EYSx8QFW6vWGQnRN0h4POfmBImdp1l4lQAyJTep34hfDL5RHGI94P2V+tpj9JPu/T+pG2fn7U3mj
ilt4W5sF5KGXqQK9TkNREQxykP4QT8gywDjnGJ6kBP18ytT47cE9yGp/A5zce3e+H2/sd9LsTul9
n7VsnnPSYZBFcLJG9AaheS0PuDX8M3WizfmIccRW9On1eA4J8JNq8Xm3y9L9m8Vf9dXX9YGZRxlx
+IIhLvQ7s/DLbTsewZGb+uU5sUZR9YsebZiySifQSD5KDRWySs0EYQHbbvnO5vD4vQOEPQYuPh9Z
suypsdirsVdiqT3nnf8AR11JZ/UvV9E09T1eNajl04Hx8c6bQYbwx3/FvPa2f70/jopr+Y0VPisG
B8BKD/xqMy/B83G42/8AlYsH/LC3/Iwf804+D5rxrl/MW0p8VnID7OD/AAGDwSvG3/ysSy/5ZJP+
CXHwSvGuX8w9Op8VrMD7FT/EY+CV40t1/wA7C+sntLSFoklFJZHI5ce6gCvX55KGKjZQZLPJBPO8
HYiM/dyzVdsjaPx/Q7Pss7y+DLACTQbnNE7h6FnUPMuxV2KuxVgP5n+X9b1aawbT7VriOBJPUKsu
xYr+ySD+z4ZfhkBzYTBLzufyv5jgr6umXQA6sInI+8AjLxMd7XRQUy3kSCGdXjRTVY3BXf5H55CO
GAmZgDiPVmcszEQJ9I6KOWtbJPJP+9Vz/qD9eaftj6Y+92nZf1H3MvRGdwiKWduiqKk/IDNDGBly
Fu4lIDmaR8GharPxPolFP7Uh40+YPxfhmVHRZZc9ve4stZjjy39zznzek1t5jvLdmBMZRTTda+mp
2qM3+l0wjjAPPv5Onz6gymSOSVCStu/JVPxrTanZv5aYZYv3ookemXW+se+1GT92bA5jy6S7qbtZ
IxcRv6e6HkKEgfDv3rkdXjkcUhxcxW479ulMtNkiMgPDy3592/W00TzBCR+8iZT/AJJB/XTNBk9n
Mg+mQPv2/W7qHbsP4oke7f8AUsvNOuL2QXMRURyKpVWJBAp7A5bou0sWlgcUweKMjdcufva9XoMm
pkMsCOGQFXzQc+n3FvAwk4jk68TyFDQNXrTxzZYO0cWbIDG9onoepj3e51+bQ5MUCJVuR1HmraBC
/wCmLXpQPWoII2BPbL9bmicMh5e5p0mIjLFn+cs9E7FXYq7FXYqyWw8seX7mzhnudPt5p5FDPI6K
WJPiTnR6WRGOPuef1IByS96v/hDyv/1arb/kWv8ATMjjl3tHCFL/AAR5T/6tkP3H+uPiS70cIcfI
/lIgj9GQ7+xH8cfEl3rwhT/5V/5P/wCran/Byf8ANWHxZd68IaP5feTiCDpqUPg8oP4Nj4su9eEK
f/Kt/Jf/AFbv+S0//VTHxZd68ARVh5L8s2DM1pZemXpy/eStWnT7TnKcsBkri3ptx5JQvh2tN4ba
3hFIokj/ANVQP1YI44x5CkSnKXM2qZNi7FXYq7FXYq7FXFQwIYVB6g9MVQU+iaLcV9ewtpSepeJG
/WMIkUUEPb+VfL1vN60FhFE568AVB+ag8T92RyAT+rdnCRj9OyZxQwwpwiRY0H7KAKPuGIAHJBJP
NdhQ8l8wQQTa1fNLGrn6xKKsATs5HfOR1WryxzS4ZSG/Ql6zS6bHLDHiiDt3Ma1mG2txEscQAkLF
hU9qe/vm67FzZcxkZSPpquXW/LydV2tix4hERiPVff0pAQGHkx4stEepqD1UjpQePjm4zjJQ3B9U
ennff+h1WEws7EbHr5e5T4xHo9P9Zafq5ZfxzHOPyP66auGJ5H5j9VsjgvbJI1i9ZQYwEIY8d127
0zhtRotRKRnwEiW+2/Pfo9fg1eGMRDiA4dt9uXvQWvEusBT4k+IlhuO3cZtvZ4CJnxbS2/S63tw8
Qhw7jf8AQpeWQDrlsD4ufuRjm77RP7iXw+8Oo0I/fR/HRn2co9G7FXYq2ASaDcntiqNt9F1KehSB
lX+Z/hH45kQ0uSXIOPPVY48yzCzhaG0hhanKNFVqdKgUOb3FHhiB3B0mSXFInvKrk2DsVdirsVdi
rsVdirsVdirsVdirsVdirsVdirsVdirsVdiqhcWFjckG4t4piOhkRW/WDkJ44y+oAs4ZJR5EhKL/
AMi+V77++sgG7MjyJSvgA1Pwxw444r4ABacuWWSuI3SR3P5SaI3I2l3cW5YUIbhIoHsKKfxy85Lq
+jUBV11SS7/J7VUqbS/gmp0EitET93qZaM4a+BJ9R/LzzdDLJILH1kLFuUTo/U1+zUN+GDBIRgI3
yADLLcpE95Sa90vVbKNBc2k9uV5El43Tv4kDwxiBKUr5bJlKoxrnui/KzyvrMXJiwCudzWnwkd8w
+0cUI4TQA5OVockpZRZtnkFtcTsVhjaQjrxBNK+NOmc/DFKXIW7qeWMeZTS38sahJvKVhWu9Tyb6
Au345lw7Pmeeziz18By3TO38r2MdDMzTN3FeK/cN/wAcy4dnwHPdxZ6+Z5bJlBZ2tuKQxLH7qBX6
T1zLhijHkKcSeSUuZtWybB2KuxV2KuxV2KuxV2KuxV2KuxV2KuxV2KuxV2KuxV2KuxV2KuxV2Kux
V2KuxV2KuxVKpf8ACv1oer9R+tUNOfo+pTv1+LBPl6uXmmF36eaaJw4LwpwoOPHpTtSmEILeKuxV
2KuxV2KuxV2KuxV2KuxV2KuxV2Kv/9k=</xmpGImg:image></rdf:li></rdf:Alt></xmp:Thumbnails></rdf:Description><rdf:Description
             rdf:about=""><xmpMM:RenditionClass>proof:pdf</xmpMM:RenditionClass><xmpMM:OriginalDocumentID>uuid:65E6390686CF11DBA6E2D887CEACB407</xmpMM:OriginalDocumentID><xmpMM:DocumentID>xmp.did:1AEB161009206811822AE71BFECAA82A</xmpMM:DocumentID><xmpMM:InstanceID>xmp.iid:1AEB161009206811822AE71BFECAA82A</xmpMM:InstanceID><xmpMM:DerivedFrom
               rdf:parseType="Resource"><stRef:instanceID>xmp.iid:19EB161009206811822AE71BFECAA82A</stRef:instanceID><stRef:documentID>xmp.did:19EB161009206811822AE71BFECAA82A</stRef:documentID><stRef:originalDocumentID>uuid:65E6390686CF11DBA6E2D887CEACB407</stRef:originalDocumentID><stRef:renditionClass>proof:pdf</stRef:renditionClass></xmpMM:DerivedFrom><xmpMM:History><rdf:Seq><rdf:li
                   rdf:parseType="Resource"><stEvt:action>saved</stEvt:action><stEvt:instanceID>xmp.iid:0280117407206811822AA1A1DC31C4F2</stEvt:instanceID><stEvt:when>2018-04-23T10:06:05+02:00</stEvt:when><stEvt:softwareAgent>Adobe Illustrator CS6 (Macintosh)</stEvt:softwareAgent><stEvt:changed>/</stEvt:changed></rdf:li><rdf:li
                   rdf:parseType="Resource"><stEvt:action>saved</stEvt:action><stEvt:instanceID>xmp.iid:1AEB161009206811822AE71BFECAA82A</stEvt:instanceID><stEvt:when>2018-05-25T11:29:59+02:00</stEvt:when><stEvt:softwareAgent>Adobe Illustrator CS6 (Macintosh)</stEvt:softwareAgent><stEvt:changed>/</stEvt:changed></rdf:li></rdf:Seq></xmpMM:History></rdf:Description><rdf:Description
             rdf:about=""><illustrator:StartupProfile>Web</illustrator:StartupProfile></rdf:Description><rdf:Description
             rdf:about=""><xmpTPg:NPages>1</xmpTPg:NPages><xmpTPg:HasVisibleTransparency>False</xmpTPg:HasVisibleTransparency><xmpTPg:HasVisibleOverprint>False</xmpTPg:HasVisibleOverprint><xmpTPg:MaxPageSize
               rdf:parseType="Resource"><stDim:w>960.000000</stDim:w><stDim:h>560.000000</stDim:h><stDim:unit>Pixels</stDim:unit></xmpTPg:MaxPageSize><xmpTPg:PlateNames><rdf:Seq><rdf:li>Cyan</rdf:li><rdf:li>Magenta</rdf:li><rdf:li>Yellow</rdf:li><rdf:li>Black</rdf:li></rdf:Seq></xmpTPg:PlateNames><xmpTPg:SwatchGroups><rdf:Seq><rdf:li
                   rdf:parseType="Resource"><xmpG:groupName>Default Swatch Group</xmpG:groupName><xmpG:groupType>0</xmpG:groupType><xmpG:Colorants><rdf:Seq><rdf:li
                         rdf:parseType="Resource"><xmpG:swatchName>White</xmpG:swatchName><xmpG:mode>RGB</xmpG:mode><xmpG:type>PROCESS</xmpG:type><xmpG:red>255</xmpG:red><xmpG:green>255</xmpG:green><xmpG:blue>255</xmpG:blue></rdf:li><rdf:li
                         rdf:parseType="Resource"><xmpG:swatchName>Black</xmpG:swatchName><xmpG:mode>RGB</xmpG:mode><xmpG:type>PROCESS</xmpG:type><xmpG:red>0</xmpG:red><xmpG:green>0</xmpG:green><xmpG:blue>0</xmpG:blue></rdf:li><rdf:li
                         rdf:parseType="Resource"><xmpG:swatchName>RGB Red</xmpG:swatchName><xmpG:mode>RGB</xmpG:mode><xmpG:type>PROCESS</xmpG:type><xmpG:red>255</xmpG:red><xmpG:green>0</xmpG:green><xmpG:blue>0</xmpG:blue></rdf:li><rdf:li
                         rdf:parseType="Resource"><xmpG:swatchName>RGB Yellow</xmpG:swatchName><xmpG:mode>RGB</xmpG:mode><xmpG:type>PROCESS</xmpG:type><xmpG:red>255</xmpG:red><xmpG:green>255</xmpG:green><xmpG:blue>0</xmpG:blue></rdf:li><rdf:li
                         rdf:parseType="Resource"><xmpG:swatchName>RGB Green</xmpG:swatchName><xmpG:mode>RGB</xmpG:mode><xmpG:type>PROCESS</xmpG:type><xmpG:red>0</xmpG:red><xmpG:green>255</xmpG:green><xmpG:blue>0</xmpG:blue></rdf:li><rdf:li
                         rdf:parseType="Resource"><xmpG:swatchName>RGB Cyan</xmpG:swatchName><xmpG:mode>RGB</xmpG:mode><xmpG:type>PROCESS</xmpG:type><xmpG:red>0</xmpG:red><xmpG:green>255</xmpG:green><xmpG:blue>255</xmpG:blue></rdf:li><rdf:li
                         rdf:parseType="Resource"><xmpG:swatchName>RGB Blue</xmpG:swatchName><xmpG:mode>RGB</xmpG:mode><xmpG:type>PROCESS</xmpG:type><xmpG:red>0</xmpG:red><xmpG:green>0</xmpG:green><xmpG:blue>255</xmpG:blue></rdf:li><rdf:li
                         rdf:parseType="Resource"><xmpG:swatchName>RGB Magenta</xmpG:swatchName><xmpG:mode>RGB</xmpG:mode><xmpG:type>PROCESS</xmpG:type><xmpG:red>255</xmpG:red><xmpG:green>0</xmpG:green><xmpG:blue>255</xmpG:blue></rdf:li><rdf:li
                         rdf:parseType="Resource"><xmpG:swatchName>R=193 G=39 B=45</xmpG:swatchName><xmpG:mode>RGB</xmpG:mode><xmpG:type>PROCESS</xmpG:type><xmpG:red>193</xmpG:red><xmpG:green>39</xmpG:green><xmpG:blue>45</xmpG:blue></rdf:li><rdf:li
                         rdf:parseType="Resource"><xmpG:swatchName>R=237 G=28 B=36</xmpG:swatchName><xmpG:mode>RGB</xmpG:mode><xmpG:type>PROCESS</xmpG:type><xmpG:red>237</xmpG:red><xmpG:green>28</xmpG:green><xmpG:blue>36</xmpG:blue></rdf:li><rdf:li
                         rdf:parseType="Resource"><xmpG:swatchName>R=241 G=90 B=36</xmpG:swatchName><xmpG:mode>RGB</xmpG:mode><xmpG:type>PROCESS</xmpG:type><xmpG:red>241</xmpG:red><xmpG:green>90</xmpG:green><xmpG:blue>36</xmpG:blue></rdf:li><rdf:li
                         rdf:parseType="Resource"><xmpG:swatchName>R=247 G=147 B=30</xmpG:swatchName><xmpG:mode>RGB</xmpG:mode><xmpG:type>PROCESS</xmpG:type><xmpG:red>247</xmpG:red><xmpG:green>147</xmpG:green><xmpG:blue>30</xmpG:blue></rdf:li><rdf:li
                         rdf:parseType="Resource"><xmpG:swatchName>R=251 G=176 B=59</xmpG:swatchName><xmpG:mode>RGB</xmpG:mode><xmpG:type>PROCESS</xmpG:type><xmpG:red>251</xmpG:red><xmpG:green>176</xmpG:green><xmpG:blue>59</xmpG:blue></rdf:li><rdf:li
                         rdf:parseType="Resource"><xmpG:swatchName>R=252 G=238 B=33</xmpG:swatchName><xmpG:mode>RGB</xmpG:mode><xmpG:type>PROCESS</xmpG:type><xmpG:red>252</xmpG:red><xmpG:green>238</xmpG:green><xmpG:blue>33</xmpG:blue></rdf:li><rdf:li
                         rdf:parseType="Resource"><xmpG:swatchName>R=217 G=224 B=33</xmpG:swatchName><xmpG:mode>RGB</xmpG:mode><xmpG:type>PROCESS</xmpG:type><xmpG:red>217</xmpG:red><xmpG:green>224</xmpG:green><xmpG:blue>33</xmpG:blue></rdf:li><rdf:li
                         rdf:parseType="Resource"><xmpG:swatchName>R=140 G=198 B=63</xmpG:swatchName><xmpG:mode>RGB</xmpG:mode><xmpG:type>PROCESS</xmpG:type><xmpG:red>140</xmpG:red><xmpG:green>198</xmpG:green><xmpG:blue>63</xmpG:blue></rdf:li><rdf:li
                         rdf:parseType="Resource"><xmpG:swatchName>R=57 G=181 B=74</xmpG:swatchName><xmpG:mode>RGB</xmpG:mode><xmpG:type>PROCESS</xmpG:type><xmpG:red>57</xmpG:red><xmpG:green>181</xmpG:green><xmpG:blue>74</xmpG:blue></rdf:li><rdf:li
                         rdf:parseType="Resource"><xmpG:swatchName>R=0 G=146 B=69</xmpG:swatchName><xmpG:mode>RGB</xmpG:mode><xmpG:type>PROCESS</xmpG:type><xmpG:red>0</xmpG:red><xmpG:green>146</xmpG:green><xmpG:blue>69</xmpG:blue></rdf:li><rdf:li
                         rdf:parseType="Resource"><xmpG:swatchName>R=0 G=104 B=55</xmpG:swatchName><xmpG:mode>RGB</xmpG:mode><xmpG:type>PROCESS</xmpG:type><xmpG:red>0</xmpG:red><xmpG:green>104</xmpG:green><xmpG:blue>55</xmpG:blue></rdf:li><rdf:li
                         rdf:parseType="Resource"><xmpG:swatchName>R=34 G=181 B=115</xmpG:swatchName><xmpG:mode>RGB</xmpG:mode><xmpG:type>PROCESS</xmpG:type><xmpG:red>34</xmpG:red><xmpG:green>181</xmpG:green><xmpG:blue>115</xmpG:blue></rdf:li><rdf:li
                         rdf:parseType="Resource"><xmpG:swatchName>R=0 G=169 B=157</xmpG:swatchName><xmpG:mode>RGB</xmpG:mode><xmpG:type>PROCESS</xmpG:type><xmpG:red>0</xmpG:red><xmpG:green>169</xmpG:green><xmpG:blue>157</xmpG:blue></rdf:li><rdf:li
                         rdf:parseType="Resource"><xmpG:swatchName>R=41 G=171 B=226</xmpG:swatchName><xmpG:mode>RGB</xmpG:mode><xmpG:type>PROCESS</xmpG:type><xmpG:red>41</xmpG:red><xmpG:green>171</xmpG:green><xmpG:blue>226</xmpG:blue></rdf:li><rdf:li
                         rdf:parseType="Resource"><xmpG:swatchName>R=0 G=113 B=188</xmpG:swatchName><xmpG:mode>RGB</xmpG:mode><xmpG:type>PROCESS</xmpG:type><xmpG:red>0</xmpG:red><xmpG:green>113</xmpG:green><xmpG:blue>188</xmpG:blue></rdf:li><rdf:li
                         rdf:parseType="Resource"><xmpG:swatchName>R=46 G=49 B=146</xmpG:swatchName><xmpG:mode>RGB</xmpG:mode><xmpG:type>PROCESS</xmpG:type><xmpG:red>46</xmpG:red><xmpG:green>49</xmpG:green><xmpG:blue>146</xmpG:blue></rdf:li><rdf:li
                         rdf:parseType="Resource"><xmpG:swatchName>R=27 G=20 B=100</xmpG:swatchName><xmpG:mode>RGB</xmpG:mode><xmpG:type>PROCESS</xmpG:type><xmpG:red>27</xmpG:red><xmpG:green>20</xmpG:green><xmpG:blue>100</xmpG:blue></rdf:li><rdf:li
                         rdf:parseType="Resource"><xmpG:swatchName>R=102 G=45 B=145</xmpG:swatchName><xmpG:mode>RGB</xmpG:mode><xmpG:type>PROCESS</xmpG:type><xmpG:red>102</xmpG:red><xmpG:green>45</xmpG:green><xmpG:blue>145</xmpG:blue></rdf:li><rdf:li
                         rdf:parseType="Resource"><xmpG:swatchName>R=147 G=39 B=143</xmpG:swatchName><xmpG:mode>RGB</xmpG:mode><xmpG:type>PROCESS</xmpG:type><xmpG:red>147</xmpG:red><xmpG:green>39</xmpG:green><xmpG:blue>143</xmpG:blue></rdf:li><rdf:li
                         rdf:parseType="Resource"><xmpG:swatchName>R=158 G=0 B=93</xmpG:swatchName><xmpG:mode>RGB</xmpG:mode><xmpG:type>PROCESS</xmpG:type><xmpG:red>158</xmpG:red><xmpG:green>0</xmpG:green><xmpG:blue>93</xmpG:blue></rdf:li><rdf:li
                         rdf:parseType="Resource"><xmpG:swatchName>R=212 G=20 B=90</xmpG:swatchName><xmpG:mode>RGB</xmpG:mode><xmpG:type>PROCESS</xmpG:type><xmpG:red>212</xmpG:red><xmpG:green>20</xmpG:green><xmpG:blue>90</xmpG:blue></rdf:li><rdf:li
                         rdf:parseType="Resource"><xmpG:swatchName>R=237 G=30 B=121</xmpG:swatchName><xmpG:mode>RGB</xmpG:mode><xmpG:type>PROCESS</xmpG:type><xmpG:red>237</xmpG:red><xmpG:green>30</xmpG:green><xmpG:blue>121</xmpG:blue></rdf:li><rdf:li
                         rdf:parseType="Resource"><xmpG:swatchName>R=199 G=178 B=153</xmpG:swatchName><xmpG:mode>RGB</xmpG:mode><xmpG:type>PROCESS</xmpG:type><xmpG:red>199</xmpG:red><xmpG:green>178</xmpG:green><xmpG:blue>153</xmpG:blue></rdf:li><rdf:li
                         rdf:parseType="Resource"><xmpG:swatchName>R=153 G=134 B=117</xmpG:swatchName><xmpG:mode>RGB</xmpG:mode><xmpG:type>PROCESS</xmpG:type><xmpG:red>153</xmpG:red><xmpG:green>134</xmpG:green><xmpG:blue>117</xmpG:blue></rdf:li><rdf:li
                         rdf:parseType="Resource"><xmpG:swatchName>R=115 G=99 B=87</xmpG:swatchName><xmpG:mode>RGB</xmpG:mode><xmpG:type>PROCESS</xmpG:type><xmpG:red>115</xmpG:red><xmpG:green>99</xmpG:green><xmpG:blue>87</xmpG:blue></rdf:li><rdf:li
                         rdf:parseType="Resource"><xmpG:swatchName>R=83 G=71 B=65</xmpG:swatchName><xmpG:mode>RGB</xmpG:mode><xmpG:type>PROCESS</xmpG:type><xmpG:red>83</xmpG:red><xmpG:green>71</xmpG:green><xmpG:blue>65</xmpG:blue></rdf:li><rdf:li
                         rdf:parseType="Resource"><xmpG:swatchName>R=198 G=156 B=109</xmpG:swatchName><xmpG:mode>RGB</xmpG:mode><xmpG:type>PROCESS</xmpG:type><xmpG:red>198</xmpG:red><xmpG:green>156</xmpG:green><xmpG:blue>109</xmpG:blue></rdf:li><rdf:li
                         rdf:parseType="Resource"><xmpG:swatchName>R=166 G=124 B=82</xmpG:swatchName><xmpG:mode>RGB</xmpG:mode><xmpG:type>PROCESS</xmpG:type><xmpG:red>166</xmpG:red><xmpG:green>124</xmpG:green><xmpG:blue>82</xmpG:blue></rdf:li><rdf:li
                         rdf:parseType="Resource"><xmpG:swatchName>R=140 G=98 B=57</xmpG:swatchName><xmpG:mode>RGB</xmpG:mode><xmpG:type>PROCESS</xmpG:type><xmpG:red>140</xmpG:red><xmpG:green>98</xmpG:green><xmpG:blue>57</xmpG:blue></rdf:li><rdf:li
                         rdf:parseType="Resource"><xmpG:swatchName>R=117 G=76 B=36</xmpG:swatchName><xmpG:mode>RGB</xmpG:mode><xmpG:type>PROCESS</xmpG:type><xmpG:red>117</xmpG:red><xmpG:green>76</xmpG:green><xmpG:blue>36</xmpG:blue></rdf:li><rdf:li
                         rdf:parseType="Resource"><xmpG:swatchName>R=96 G=56 B=19</xmpG:swatchName><xmpG:mode>RGB</xmpG:mode><xmpG:type>PROCESS</xmpG:type><xmpG:red>96</xmpG:red><xmpG:green>56</xmpG:green><xmpG:blue>19</xmpG:blue></rdf:li><rdf:li
                         rdf:parseType="Resource"><xmpG:swatchName>R=66 G=33 B=11</xmpG:swatchName><xmpG:mode>RGB</xmpG:mode><xmpG:type>PROCESS</xmpG:type><xmpG:red>66</xmpG:red><xmpG:green>33</xmpG:green><xmpG:blue>11</xmpG:blue></rdf:li></rdf:Seq></xmpG:Colorants></rdf:li><rdf:li
                   rdf:parseType="Resource"><xmpG:groupName>one-neo-01</xmpG:groupName><xmpG:groupType>1</xmpG:groupType><xmpG:Colorants><rdf:Seq><rdf:li
                         rdf:parseType="Resource"><xmpG:swatchName>texte 1</xmpG:swatchName><xmpG:mode>RGB</xmpG:mode><xmpG:type>PROCESS</xmpG:type><xmpG:red>65</xmpG:red><xmpG:green>67</xmpG:green><xmpG:blue>85</xmpG:blue></rdf:li><rdf:li
                         rdf:parseType="Resource"><xmpG:swatchName>texte 2</xmpG:swatchName><xmpG:mode>RGB</xmpG:mode><xmpG:type>PROCESS</xmpG:type><xmpG:red>133</xmpG:red><xmpG:green>143</xmpG:green><xmpG:blue>169</xmpG:blue></rdf:li><rdf:li
                         rdf:parseType="Resource"><xmpG:swatchName>texte 3</xmpG:swatchName><xmpG:mode>RGB</xmpG:mode><xmpG:type>PROCESS</xmpG:type><xmpG:red>220</xmpG:red><xmpG:green>221</xmpG:green><xmpG:blue>224</xmpG:blue></rdf:li><rdf:li
                         rdf:parseType="Resource"><xmpG:swatchName>fond</xmpG:swatchName><xmpG:mode>RGB</xmpG:mode><xmpG:type>PROCESS</xmpG:type><xmpG:red>248</xmpG:red><xmpG:green>248</xmpG:green><xmpG:blue>250</xmpG:blue></rdf:li><rdf:li
                         rdf:parseType="Resource"><xmpG:swatchName>R=255 G=163 B=72</xmpG:swatchName><xmpG:mode>RGB</xmpG:mode><xmpG:type>PROCESS</xmpG:type><xmpG:red>255</xmpG:red><xmpG:green>163</xmpG:green><xmpG:blue>72</xmpG:blue></rdf:li><rdf:li
                         rdf:parseType="Resource"><xmpG:swatchName>R=42 G=156 B=200</xmpG:swatchName><xmpG:mode>RGB</xmpG:mode><xmpG:type>PROCESS</xmpG:type><xmpG:red>42</xmpG:red><xmpG:green>156</xmpG:green><xmpG:blue>200</xmpG:blue></rdf:li><rdf:li
                         rdf:parseType="Resource"><xmpG:swatchName>R=252 G=193 B=139</xmpG:swatchName><xmpG:mode>RGB</xmpG:mode><xmpG:type>PROCESS</xmpG:type><xmpG:red>252</xmpG:red><xmpG:green>193</xmpG:green><xmpG:blue>139</xmpG:blue></rdf:li></rdf:Seq></xmpG:Colorants></rdf:li></rdf:Seq></xmpTPg:SwatchGroups></rdf:Description><rdf:Description
             rdf:about=""><pdf:Producer>Adobe PDF library 10.01</pdf:Producer></rdf:Description><cc:Work
             rdf:about=""><dc:format>image/svg+xml</dc:format><dc:type
               rdf:resource="http://purl.org/dc/dcmitype/StillImage" /><dc:title></dc:title></cc:Work></rdf:RDF></metadata></x:xmpmeta><?xpacket end="w"?></metadata><g
     id="g353"
     transform="translate(-172.13453,-58.433235)"><g
       id="g192"><g
         id="g10"><rect
           x="275"
           y="340"
           style="fill:#2a9cc8"
           width="4"
           height="72"
           id="rect4" /><rect
           x="393"
           y="322"
           style="fill:#2a9cc8"
           width="4"
           height="72"
           id="rect6" /><path
           style="fill:#2a9cc8"
           d="m 473.333,309.334 -281.666,33.333 c 0,0 -8.667,1.333 -12,5.667 -4.169,5.422 -4,11.666 -4,11.666 L 176,426 186,425.665 186.333,362 c 0,0 -0.272,-3.998 3.667,-7.5 3,-2.667 13.25,-4 13.25,-4 L 470.5,320 Z"
           id="path8"
           inkscape:connector-curvature="0" /></g><g
         id="g54"><polygon
           style="fill:#858fa9"
           points="753.667,443.666 777.5,435 769.5,147.5 743,132.333 591,150.333 589.667,441 "
           id="polygon12" /><polygon
           style="fill:#fcc18b"
           points="773,145 743,132.333 753.667,443.666 781,437.666 "
           id="polygon14" /><path
           style="fill:#dcdde0"
           d="m 600,418.168 c 0,6.627 5.373,11.53 12,10.95 l 116,1.764 c 6.627,-0.579 12,-6.423 12,-13.05 l -8,-260 c 0,-6.627 -5.373,-11.529 -12,-10.95 l -106,10.236 c -6.627,0.58 -12,6.423 -12,13.05 z"
           id="path16"
           inkscape:connector-curvature="0" /><g
           id="g34"><path
             style="fill:#f8f8fa"
             d="m 717.982,178.31 c 0.394,4.819 -5.926,9.167 -14.107,9.71 l -58.421,3.877 c -8.18,0.542 -15.132,-2.924 -15.523,-7.744 l -0.04,-0.499 c -0.393,-4.819 5.926,-9.167 14.104,-9.709 l 58.421,-3.877 c 8.182,-0.543 15.134,2.923 15.526,7.743 z"
             id="path18"
             inkscape:connector-curvature="0" /><path
             style="fill:#f8f8fa"
             d="m 718.375,208.466 c 0.275,4.826 -6.17,9.049 -14.392,9.432 l -58.71,2.735 c -8.222,0.383 -15.11,-3.218 -15.389,-8.045 l -0.027,-0.499 c -0.276,-4.826 6.169,-9.049 14.39,-9.432 l 58.713,-2.735 c 8.22,-0.382 15.11,3.219 15.387,8.045 z"
             id="path20"
             inkscape:connector-curvature="0" /><path
             style="fill:#f8f8fa"
             d="m 718.491,238.43 c 0.183,4.83 -6.431,8.95 -14.772,9.204 l -59.543,1.81 c -8.336,0.253 -15.246,-3.456 -15.427,-8.286 l -0.016,-0.5 c -0.182,-4.83 6.437,-8.951 14.773,-9.204 l 59.544,-1.81 c 8.338,-0.253 15.245,3.457 15.426,8.287 z"
             id="path22"
             inkscape:connector-curvature="0" /><path
             style="fill:#f8f8fa"
             d="m 721.171,268.356 c 0.087,4.832 -6.854,8.849 -15.493,8.972 l -61.707,0.882 c -8.64,0.123 -15.716,-3.693 -15.803,-8.525 l -0.006,-0.5 c -0.087,-4.832 6.854,-8.849 15.493,-8.972 l 61.707,-0.882 c 8.64,-0.123 15.716,3.693 15.802,8.525 z"
             id="path24"
             inkscape:connector-curvature="0" /><path
             style="fill:#f8f8fa"
             d="m 723.396,298.704 c 0.127,4.945 -6.989,9.105 -15.888,9.29 l -63.543,1.311 c -8.898,0.184 -16.216,-3.679 -16.34,-8.626 l -0.014,-0.512 c -0.127,-4.946 6.991,-9.106 15.888,-9.289 l 63.542,-1.312 c 8.899,-0.184 16.217,3.679 16.342,8.626 z"
             id="path26"
             inkscape:connector-curvature="0" /><path
             style="fill:#f8f8fa"
             d="m 724.462,327.441 c 0.106,5.248 -7.2,9.627 -16.313,9.774 l -65.076,1.058 c -9.111,0.147 -16.587,-3.988 -16.69,-9.238 l -0.011,-0.543 c -0.104,-5.249 7.199,-9.628 16.312,-9.775 l 65.076,-1.057 c 9.111,-0.147 16.588,3.988 16.693,9.238 z"
             id="path28"
             inkscape:connector-curvature="0" /><path
             style="fill:#f8f8fa"
             d="m 725.119,359.693 c 0.079,5.229 -7.401,9.565 -16.703,9.682 l -66.431,0.834 c -9.304,0.118 -16.908,-4.025 -16.993,-9.254 l -0.008,-0.543 c -0.083,-5.228 7.397,-9.563 16.698,-9.68 l 66.431,-0.835 c 9.305,-0.118 16.914,4.026 16.995,9.255 z"
             id="path30"
             inkscape:connector-curvature="0" /><path
             style="fill:#f8f8fa"
             d="m 723.894,393.464 c 0.022,5.135 -7.446,9.325 -16.679,9.361 l -65.945,0.249 c -9.235,0.035 -16.745,-4.101 -16.769,-9.235 l -0.002,-0.533 c -0.024,-5.135 7.447,-9.327 16.681,-9.362 l 65.945,-0.248 c 9.235,-0.035 16.742,4.102 16.766,9.236 z"
             id="path32"
             inkscape:connector-curvature="0" /></g><g
           id="g52"><path
             style="fill:#ffa348"
             d="m 621.033,178.527 c 0.267,-0.815 -0.894,-1.226 -1.327,-0.56 -1.081,1.655 -2.654,2.944 -4.188,4.231 -1.664,-1.542 -3.506,-2.849 -5.676,-3.497 -0.707,-0.211 -1.176,0.86 -0.506,1.2 1.802,0.914 3.268,2.22 4.646,3.631 -0.057,0.052 -0.115,0.102 -0.171,0.154 -1.833,1.717 -3.474,3.601 -4.77,5.754 -0.636,1.057 0.957,2.354 1.742,1.345 1.516,-1.948 3.083,-3.804 4.805,-5.552 0.885,0.955 1.771,1.909 2.731,2.78 0.922,0.837 2.177,-0.431 1.359,-1.359 -0.834,-0.948 -1.693,-1.935 -2.594,-2.89 1.623,-1.529 3.241,-3.073 3.949,-5.237 z"
             id="path36"
             inkscape:connector-curvature="0" /><path
             style="fill:#ffa348"
             d="m 621.033,206.527 c 0.267,-0.815 -0.894,-1.226 -1.327,-0.56 -1.081,1.655 -2.654,2.944 -4.188,4.231 -1.664,-1.542 -3.506,-2.849 -5.676,-3.497 -0.707,-0.211 -1.176,0.86 -0.506,1.2 1.802,0.914 3.268,2.22 4.646,3.631 -0.057,0.052 -0.115,0.102 -0.171,0.154 -1.833,1.717 -3.474,3.601 -4.77,5.754 -0.636,1.057 0.957,2.354 1.742,1.345 1.516,-1.948 3.083,-3.804 4.805,-5.552 0.885,0.955 1.771,1.909 2.731,2.78 0.922,0.837 2.177,-0.431 1.359,-1.359 -0.834,-0.948 -1.693,-1.935 -2.594,-2.89 1.623,-1.529 3.241,-3.073 3.949,-5.237 z"
             id="path38"
             inkscape:connector-curvature="0" /><path
             style="fill:#ffa348"
             d="m 621.033,234.527 c 0.267,-0.815 -0.894,-1.226 -1.327,-0.56 -1.081,1.655 -2.654,2.944 -4.188,4.231 -1.664,-1.542 -3.506,-2.849 -5.676,-3.497 -0.707,-0.211 -1.176,0.86 -0.506,1.2 1.802,0.914 3.268,2.22 4.646,3.631 -0.057,0.052 -0.115,0.102 -0.171,0.154 -1.833,1.717 -3.474,3.601 -4.77,5.754 -0.636,1.057 0.957,2.354 1.742,1.345 1.516,-1.948 3.083,-3.804 4.805,-5.552 0.885,0.955 1.771,1.909 2.731,2.78 0.922,0.837 2.177,-0.431 1.359,-1.359 -0.834,-0.948 -1.693,-1.935 -2.594,-2.89 1.623,-1.529 3.241,-3.073 3.949,-5.237 z"
             id="path40"
             inkscape:connector-curvature="0" /><path
             style="fill:#ffa348"
             d="m 619.033,263.527 c 0.267,-0.815 -0.894,-1.226 -1.327,-0.56 -1.081,1.655 -2.654,2.944 -4.188,4.231 -1.664,-1.542 -3.506,-2.849 -5.676,-3.497 -0.707,-0.211 -1.176,0.86 -0.506,1.2 1.802,0.914 3.268,2.22 4.646,3.631 -0.057,0.052 -0.115,0.102 -0.171,0.154 -1.833,1.717 -3.474,3.601 -4.77,5.754 -0.636,1.057 0.957,2.354 1.742,1.345 1.516,-1.948 3.083,-3.804 4.805,-5.552 0.885,0.955 1.771,1.909 2.731,2.78 0.922,0.837 2.177,-0.431 1.359,-1.359 -0.834,-0.948 -1.693,-1.935 -2.594,-2.89 1.623,-1.529 3.241,-3.073 3.949,-5.237 z"
             id="path42"
             inkscape:connector-curvature="0" /><path
             style="fill:#ffa348"
             d="m 619.033,294.527 c 0.267,-0.815 -0.894,-1.227 -1.327,-0.561 -1.081,1.654 -2.654,2.944 -4.188,4.23 -1.664,-1.541 -3.506,-2.849 -5.676,-3.496 -0.707,-0.211 -1.176,0.859 -0.506,1.199 1.802,0.914 3.268,2.22 4.646,3.631 -0.057,0.053 -0.115,0.103 -0.171,0.154 -1.833,1.717 -3.474,3.602 -4.77,5.754 -0.636,1.057 0.957,2.355 1.742,1.346 1.516,-1.948 3.083,-3.805 4.805,-5.553 0.885,0.955 1.771,1.909 2.731,2.781 0.922,0.836 2.177,-0.432 1.359,-1.359 -0.834,-0.948 -1.693,-1.936 -2.594,-2.891 1.623,-1.527 3.241,-3.071 3.949,-5.235 z"
             id="path44"
             inkscape:connector-curvature="0" /><path
             style="fill:#ffa348"
             d="m 618.033,323.527 c 0.267,-0.815 -0.894,-1.227 -1.327,-0.561 -1.081,1.654 -2.654,2.944 -4.188,4.23 -1.664,-1.541 -3.506,-2.849 -5.676,-3.496 -0.707,-0.211 -1.176,0.859 -0.506,1.199 1.802,0.914 3.268,2.22 4.646,3.631 -0.057,0.053 -0.115,0.103 -0.171,0.154 -1.833,1.717 -3.474,3.602 -4.77,5.754 -0.636,1.057 0.957,2.355 1.742,1.346 1.516,-1.948 3.083,-3.805 4.805,-5.553 0.885,0.955 1.771,1.909 2.731,2.781 0.922,0.836 2.177,-0.432 1.359,-1.359 -0.834,-0.948 -1.693,-1.936 -2.594,-2.891 1.623,-1.527 3.241,-3.071 3.949,-5.235 z"
             id="path46"
             inkscape:connector-curvature="0" /><path
             style="fill:#ffa348"
             d="m 617.033,355.527 c 0.267,-0.815 -0.894,-1.227 -1.327,-0.561 -1.081,1.654 -2.654,2.944 -4.188,4.23 -1.664,-1.541 -3.506,-2.849 -5.676,-3.496 -0.707,-0.211 -1.176,0.859 -0.506,1.199 1.802,0.914 3.268,2.22 4.646,3.631 -0.057,0.053 -0.115,0.103 -0.171,0.154 -1.833,1.717 -3.474,3.602 -4.77,5.754 -0.636,1.057 0.957,2.355 1.742,1.346 1.516,-1.948 3.083,-3.805 4.805,-5.553 0.885,0.955 1.771,1.909 2.731,2.781 0.922,0.836 2.177,-0.432 1.359,-1.359 -0.834,-0.948 -1.693,-1.936 -2.594,-2.891 1.623,-1.527 3.241,-3.071 3.949,-5.235 z"
             id="path48"
             inkscape:connector-curvature="0" /><path
             style="fill:#ffa348"
             d="m 616.033,391.527 c 0.267,-0.815 -0.894,-1.227 -1.327,-0.561 -1.081,1.654 -2.654,2.944 -4.188,4.23 -1.664,-1.541 -3.506,-2.849 -5.676,-3.496 -0.707,-0.211 -1.176,0.859 -0.506,1.199 1.802,0.914 3.268,2.22 4.646,3.631 -0.057,0.053 -0.115,0.103 -0.171,0.154 -1.833,1.717 -3.474,3.602 -4.77,5.754 -0.636,1.057 0.957,2.355 1.742,1.346 1.516,-1.948 3.083,-3.805 4.805,-5.553 0.885,0.955 1.771,1.909 2.731,2.781 0.922,0.836 2.177,-0.432 1.359,-1.359 -0.834,-0.948 -1.693,-1.936 -2.594,-2.891 1.623,-1.527 3.241,-3.071 3.949,-5.235 z"
             id="path50"
             inkscape:connector-curvature="0" /></g></g><g
         id="g66"><polygon
           style="fill:#858fa9"
           points="335.667,461.666 257,453 261,389 366,382 409,372.333 413,441.666 "
           id="polygon56" /><polygon
           style="fill:#fcc18b"
           points="335.667,461.666 335,399.5 409,372.333 413,441.666 "
           id="polygon58" /><polygon
           style="fill:#dcdde0"
           points="261,389 371,365.666 409,372.333 335,399.5 "
           id="polygon60" /><path
           style="fill:#ffa348"
           d="m 313.78,409.816 c -5.136,3.182 -8.927,8.14 -12.196,13.136 -1.831,2.798 -3.397,5.9 -4.863,8.901 -0.677,1.385 -1.303,3.07 -2.093,4.629 -1.915,-3.104 -3.294,-6.102 -5.423,-8.896 -1.746,-2.291 -3.908,-4.593 -6.238,-6.315 -2.529,-1.869 -8.046,-4.623 -9.47,-0.13 -0.247,0.78 0.632,1.251 1.274,0.941 3.303,-1.594 8.105,4.687 9.859,6.682 3.522,4.005 4.97,9.171 8.4,13.206 0.806,0.948 2.451,0.855 3.272,0 3.113,-3.241 4.668,-8.428 6.845,-12.322 3.559,-6.368 7.912,-11.666 12.762,-17.071 1.296,-1.443 -0.367,-3.852 -2.129,-2.761 z"
           id="path62"
           inkscape:connector-curvature="0" /><path
           style="fill:#dcdde0"
           d="m 396.76,435.24 c -4.887,-5.782 -11.813,-10.564 -18.061,-15.027 0.614,-1.112 1.22,-2.229 1.812,-3.356 1.937,-3.693 4.061,-7.329 6.185,-10.918 0.912,-1.542 2.573,-3.522 2.43,-5.416 -0.021,-0.271 -0.136,-0.577 -0.403,-0.702 -0.191,-0.089 -0.344,-0.143 -0.558,-0.097 -1.52,0.33 -2.763,2.805 -3.618,3.927 -2.716,3.566 -4.995,7.461 -7.188,11.363 -0.569,1.013 -1.153,2.015 -1.729,3.022 -5.563,-3.878 -11.209,-7.224 -17.044,-10.704 -0.993,-0.592 -2.194,0.59 -1.587,1.588 1.385,2.276 3.384,3.502 5.621,4.897 3.338,2.081 6.418,4.588 9.616,6.877 0.444,0.317 0.889,0.63 1.333,0.944 -1.357,2.337 -2.728,4.666 -4.112,6.992 -1.992,3.348 -4.124,6.202 -6.044,10.507 -1.057,2.369 2.519,3.235 3.842,1.059 2.246,-3.696 4.297,-7.543 6.392,-11.147 1.012,-1.741 2.021,-3.479 3.019,-5.223 2.477,1.743 4.942,3.496 7.342,5.373 3.595,2.812 6.937,6.161 10.879,8.471 1.589,0.932 2.97,-1.133 1.873,-2.43 z"
           id="path64"
           inkscape:connector-curvature="0" /></g><g
         id="g78"><polygon
           style="fill:#858fa9"
           points="608.75,468.25 509,498.333 384.333,476.333 388.333,422.333 414.75,419.75 419.667,411 425.667,354.333 469.333,289.5 499,295.333 603,297.5 608.515,384 "
           id="polygon68" /><polygon
           style="fill:#dcdde0"
           points="586.167,295.666 468.333,289 425.667,354.333 535,363.667 "
           id="polygon70" /><polygon
           style="fill:#fcc18b"
           points="509,498.333 511.667,435.666 524.334,423.666 535,363.667 586.5,295.166 622,287 611.667,469.666 "
           id="polygon72" /><polygon
           style="fill:#dcdde0"
           points="388.333,422.333 419.667,411 524.334,423.666 511.5,437.5 "
           id="polygon74" /><polygon
           style="fill:#dcdde0"
           points="468.333,289 500.5,280.666 622,287 586.167,295.666 "
           id="polygon76" /></g><g
         id="g152"><g
           id="g84"><g
             id="g82"><path
               style="fill:#ffa348"
               d="m 488.235,293.748 c -6.212,8.978 -12.251,18.085 -18.599,26.967 -7.214,10.095 -13.611,20.871 -21.323,30.599 -0.396,0.5 0.307,1.212 0.707,0.707 7.686,-9.694 14.045,-20.429 21.247,-30.479 6.436,-8.981 12.544,-18.203 18.832,-27.29 0.368,-0.531 -0.499,-1.03 -0.864,-0.504 z"
               id="path80"
               inkscape:connector-curvature="0" /></g></g><g
           id="g90"><g
             id="g88"><path
               style="fill:#ffa348"
               d="m 509.235,294.748 c -6.212,8.978 -12.252,18.085 -18.6,26.967 -7.215,10.094 -13.611,20.871 -21.322,30.599 -0.396,0.5 0.307,1.212 0.707,0.707 7.685,-9.694 14.045,-20.429 21.246,-30.479 6.436,-8.982 12.545,-18.203 18.832,-27.29 0.369,-0.531 -0.498,-1.03 -0.863,-0.504 z"
               id="path86"
               inkscape:connector-curvature="0" /></g></g><g
           id="g96"><g
             id="g94"><path
               style="fill:#ffa348"
               d="m 531.235,296.748 c -6.212,8.978 -12.252,18.085 -18.6,26.967 -7.215,10.094 -13.611,20.871 -21.322,30.599 -0.396,0.5 0.307,1.212 0.707,0.707 7.685,-9.694 14.045,-20.429 21.246,-30.479 6.436,-8.982 12.545,-18.203 18.832,-27.29 0.369,-0.531 -0.498,-1.03 -0.863,-0.504 z"
               id="path92"
               inkscape:connector-curvature="0" /></g></g><g
           id="g102"><g
             id="g100"><path
               style="fill:#ffa348"
               d="m 555.235,297.748 c -6.212,8.978 -12.252,18.085 -18.6,26.967 -7.215,10.094 -13.611,20.871 -21.322,30.599 -0.396,0.5 0.307,1.212 0.707,0.707 7.685,-9.694 14.045,-20.429 21.246,-30.479 6.436,-8.982 12.545,-18.203 18.832,-27.29 0.369,-0.531 -0.498,-1.03 -0.863,-0.504 z"
               id="path98"
               inkscape:connector-curvature="0" /></g></g><g
           id="g108"><g
             id="g106"><path
               style="fill:#ffa348"
               d="m 445.333,357.333 c -1.271,17.881 -2.364,35.776 -3.5,53.667 -0.041,0.645 0.959,0.641 1,0 1.136,-17.891 2.229,-35.786 3.5,-53.667 0.046,-0.644 -0.954,-0.64 -1,0 z"
               id="path104"
               inkscape:connector-curvature="0" /></g></g><g
           id="g114"><g
             id="g112"><path
               style="fill:#ffa348"
               d="m 466,358.666 c -1.379,18.525 -1.481,37.138 -2.833,55.667 -0.047,0.644 0.953,0.64 1,0 1.352,-18.529 1.454,-37.142 2.833,-55.667 0.048,-0.644 -0.953,-0.639 -1,0 z"
               id="path110"
               inkscape:connector-curvature="0" /></g></g><g
           id="g120"><g
             id="g118"><path
               style="fill:#ffa348"
               d="m 489.167,361.5 c -1.371,17.941 -2.67,35.889 -4,53.833 -0.048,0.644 0.952,0.639 1,0 1.33,-17.944 2.629,-35.892 4,-53.833 0.049,-0.644 -0.951,-0.639 -1,0 z"
               id="path116"
               inkscape:connector-curvature="0" /></g></g><g
           id="g126"><g
             id="g124"><path
               style="fill:#ffa348"
               d="m 513,363.001 c -1.49,19.129 -3.735,38.197 -5.167,57.332 -0.048,0.644 0.952,0.639 1,0 1.432,-19.135 3.677,-38.203 5.167,-57.332 0.05,-0.644 -0.95,-0.639 -1,0 z"
               id="path122"
               inkscape:connector-curvature="0" /></g></g><g
           id="g132"><g
             id="g130"><path
               style="fill:#ffa348"
               d="m 487.235,438.413 c -0.961,17.881 -3.479,35.642 -4.47,53.507 -0.036,0.645 0.965,0.642 1,0 0.991,-17.865 3.509,-35.626 4.47,-53.507 0.035,-0.644 -0.965,-0.642 -1,0 z"
               id="path128"
               inkscape:connector-curvature="0" /></g></g><g
           id="g138"><g
             id="g136"><path
               style="fill:#ffa348"
               d="m 462.403,434.428 c -1.073,17.874 -3.701,35.619 -4.806,53.478 -0.04,0.645 0.96,0.641 1,0 1.104,-17.858 3.732,-35.604 4.806,-53.478 0.039,-0.645 -0.961,-0.641 -1,0 z"
               id="path134"
               inkscape:connector-curvature="0" /></g></g><g
           id="g144"><g
             id="g142"><path
               style="fill:#ffa348"
               d="m 436.833,430.667 c -0.476,8.362 -0.913,16.728 -1.604,25.076 -0.751,9.066 -2.045,18.081 -2.594,27.165 -0.039,0.645 0.961,0.641 1,0 0.529,-8.764 1.748,-17.463 2.512,-26.205 0.758,-8.665 1.191,-17.354 1.686,-26.036 0.037,-0.645 -0.963,-0.641 -1,0 z"
               id="path140"
               inkscape:connector-curvature="0" /></g></g><g
           id="g150"><g
             id="g148"><path
               style="fill:#ffa348"
               d="m 411.5,427.667 c -0.304,8.363 -0.734,16.72 -1.276,25.071 -0.548,8.433 -1.723,16.814 -2.057,25.262 -0.025,0.646 0.975,0.643 1,0 0.321,-8.127 1.453,-16.188 1.994,-24.3 0.578,-8.671 1.024,-17.349 1.339,-26.033 0.023,-0.646 -0.977,-0.643 -1,0 z"
               id="path146"
               inkscape:connector-curvature="0" /></g></g></g><g
         id="g176"><g
           id="g158"><g
             id="g156"><path
               style="fill:#ffa348"
               d="m 455.414,312.099 c 1.151,0.798 3.658,0.645 4.969,0.785 3.942,0.422 7.896,0.74 11.849,1.053 9.071,0.718 18.155,1.353 27.246,1.753 16.629,0.731 33.223,1.854 49.827,3.037 5.341,0.381 10.682,0.818 16.028,1.106 0.645,0.034 0.642,-0.966 0,-1 -16.103,-0.866 -32.177,-2.311 -48.272,-3.31 -16.032,-0.996 -32.066,-1.526 -48.083,-2.85 -2.986,-0.247 -5.971,-0.51 -8.95,-0.828 -1.059,-0.113 -3.198,0.021 -4.109,-0.61 -0.532,-0.368 -1.031,0.499 -0.505,0.864 z"
               id="path154"
               inkscape:connector-curvature="0" /></g></g><g
           id="g164"><g
             id="g162"><path
               style="fill:#ffa348"
               d="m 442.534,331.149 c 2.295,0.588 4.773,0.695 7.121,0.931 4.473,0.448 8.956,0.807 13.438,1.148 8.866,0.676 17.757,1.338 26.647,1.578 17.052,0.46 34.102,2.033 51.112,3.244 3.825,0.272 7.65,0.576 11.48,0.782 0.645,0.034 0.642,-0.966 0,-1 -16.103,-0.866 -32.177,-2.311 -48.272,-3.31 -16.515,-1.026 -33.029,-1.555 -49.523,-2.99 -3.841,-0.334 -7.985,-0.387 -11.738,-1.349 -0.625,-0.159 -0.89,0.806 -0.265,0.966 z"
               id="path160"
               inkscape:connector-curvature="0" /></g></g><path
           style="fill:none;stroke:#ffa348;stroke-miterlimit:10"
           d="m 425.333,371.667 c 1.894,0.021 32.779,3.775 41.667,4.333 12.463,0.782 24.285,0.648 36.686,2.093 5.873,0.684 20.846,2.253 22.647,2.24"
           id="path166"
           inkscape:connector-curvature="0" /><path
           style="fill:none;stroke:#ffa348;stroke-miterlimit:10"
           d="m 423.333,394.667 c 1.894,0.021 32.779,3.775 41.667,4.333 12.463,0.782 24.285,0.648 36.686,2.093 5.873,0.684 20.846,2.253 22.647,2.24"
           id="path168"
           inkscape:connector-curvature="0" /><path
           style="fill:none;stroke:#ffa348;stroke-miterlimit:10"
           d="m 468.5,289.375 c 7.375,0.625 45.439,2.974 57.751,4.041 12.499,1.084 44.499,2.834 56.499,3.334"
           id="path170"
           inkscape:connector-curvature="0" /><path
           style="fill:none;stroke:#ffa348;stroke-miterlimit:10"
           d="m 389.5,440.75 c 1.621,0.621 12.787,2.135 14.556,2.306 5.184,0.5 23.863,3.039 28.049,3.513 3.243,0.367 27.177,3.835 31.358,4.424 6.412,0.902 12.872,1.344 19.288,2.188 C 487.935,453.863 506,456 509.25,456"
           id="path172"
           inkscape:connector-curvature="0" /><path
           style="fill:none;stroke:#ffa348;stroke-miterlimit:10"
           d="m 386.75,460.125 c 0.92,0.229 65.538,10.078 71.732,11.06 0.117,0.019 0.233,0.037 0.35,0.056 7.995,1.272 15.954,2.779 23.936,4.188 5.257,0.929 22.375,4.071 25.768,4.071"
           id="path174"
           inkscape:connector-curvature="0" /></g><g
         id="g190"><polygon
           style="fill:#ffa348"
           points="554,338.875 568.5,319.125 542,317.667 529,336.667 "
           id="polygon178" /><polygon
           style="fill:#ffa348"
           points="486.5,400 488.25,377.125 465.667,376.167 464.667,398.667 "
           id="polygon180" /><polygon
           style="fill:#ffa348"
           points="524.5,423.75 528,403.25 510,402 507.167,421.667 "
           id="polygon182" /><polygon
           style="fill:#ffa348"
           points="484.333,475.833 486.5,453.667 461.5,450.833 459.333,471.333 "
           id="polygon184" /><polygon
           style="fill:#ffa348"
           points="409,480.667 384.167,476.334 385.583,459.417 409.833,463.501 "
           id="polygon186" /><polygon
           style="fill:#ffa348"
           points="461.5,450.833 463.667,431.501 436.75,428.251 436.25,447.168 "
           id="polygon188" /></g></g><g
       id="g226"><path
         style="fill:#ffa348"
         d="m 478,226.906 c -1.962,0.051 -3.975,2.044 -5.435,3.158 -1.415,1.078 -4.341,3.162 -5.398,4.603 -1.48,2.018 -1.95,6.663 1.833,6.167 4.31,-0.564 7.258,-7.551 11.027,-9.065 0.107,0.046 0.234,0.044 0.364,-0.051 0.058,-0.042 0.115,-0.083 0.172,-0.125 0.055,-0.015 0.104,-0.039 0.16,-0.052 0.094,-0.022 0.13,-0.093 0.14,-0.169 0.789,-0.586 1.435,-1.212 0.93,-2.399 -0.684,-1.612 -2.134,-2.11 -3.793,-2.067 z"
         id="path194"
         inkscape:connector-curvature="0" /><path
         style="fill:#ffa348"
         d="m 503.617,245.979 c -0.443,-0.95 -1.435,-2.735 -2.726,-2.672 -0.016,-0.106 5.942,3.219 -0.225,-0.211 -6.167,-3.43 -5.065,9.76 -5,12.57 0.058,2.458 0.64,5.527 2.761,7.175 0.923,0.717 3.047,0.789 3.906,-0.008 2.231,-2.07 -0.035,-5.63 0.666,-8.333 1.168,-4.5 1.793,-5.998 0.618,-8.521 z"
         id="path196"
         inkscape:connector-curvature="0" /><path
         style="fill:#ffffff"
         d="m 473.833,235.5 6.667,-1 0.125,-4 c 0,0 -1.75,0.125 -3.75,1.5 -2,1.375 -3.042,3.5 -3.042,3.5 z"
         id="path198"
         inkscape:connector-curvature="0" /><path
         style="fill:#858fa9"
         d="m 537.867,226.046 c -2.688,-6.337 -6.845,-11.62 -10.417,-17.431 -1.341,-2.182 -2.632,-4.372 -4.247,-6.367 -0.877,-1.083 -2.408,-2.797 -3.874,-3.038 -6.597,-1.082 -13.257,-1.871 -19.881,-2.767 -1.957,-0.265 -4.009,-1.228 -4.646,1.196 -1.543,5.859 -2.048,12.286 1.009,17.792 1.352,2.435 3.489,4.361 5.006,6.688 0.897,1.375 1.908,3.34 1.18,4.991 -0.615,1.394 -2.71,1.425 -3.965,1.372 -2.847,-0.122 -3.697,-1.982 -8.281,-2.148 -4.331,-0.157 -6.511,0.875 -9.022,2.167 -0.811,0.417 -1.174,2.209 -1.167,3.405 0.01,1.817 -0.83,5.239 0.653,6.722 1.271,1.271 4.681,0.531 6.2,0.502 4.143,-0.078 8.244,-0.05 12.283,0.97 0.01,2.792 0.335,5.454 1.306,8.111 0.516,1.411 0.921,4.167 2.438,4.946 1.501,0.771 2.789,-0.252 3.97,-1.176 3.121,-2.441 6.507,-4.661 10.435,-5.454 6.361,-1.286 12.905,-1.783 18.108,-6.111 4.638,-3.859 5.224,-8.92 2.912,-14.37 z"
         id="path200"
         inkscape:connector-curvature="0" /><g
         id="g204"><path
           style="fill:#414355"
           d="m 499.5,239.938 c 2.735,0.356 5.179,1.638 7.852,2.211 1.944,0.417 3.954,0.345 5.887,-0.074 4.45,-0.964 7.139,-5.002 8.554,-9.026 1.688,-4.8 0.221,-9.417 -2.519,-13.433 -2.967,-4.349 -3.852,-10.716 -7.813,-14.326 -0.237,-0.216 -0.678,0.078 -0.466,0.36 2.68,3.573 3.953,7.66 5.872,11.633 0.934,1.932 2.382,3.563 3.368,5.475 1.356,2.632 1.46,5.549 0.878,8.396 -0.94,4.601 -4.293,8.645 -8.882,9.765 -4.508,1.101 -8.359,-1.539 -12.73,-1.356 -0.249,0.01 -0.234,0.344 -10e-4,0.375 z"
           id="path202"
           inkscape:connector-curvature="0" /></g><path
         style="fill:#414355"
         d="m 490.667,152.261 c -2.301,-5.423 -4.81,-11.072 -9.267,-15.083 -4.804,-4.323 -11.917,-5.455 -17.975,-6.839 -3.21,-0.733 -6.852,-1.408 -9.232,-3.866 -1.387,-1.432 -2.688,-2.916 -4.296,-4.111 -3.292,-2.447 -3.541,2.098 -2.588,4.26 0.36,0.816 0.795,1.465 1.399,2.119 0.704,0.761 2.973,2.026 1.2,2.583 -1.28,0.402 -2.528,0.846 -2.243,2.375 0.216,1.161 1.925,1.291 2.809,1.35 1.078,0.073 2.181,-0.066 3.254,-0.15 1.815,-0.141 3.069,0.301 4.704,1.154 3.259,1.701 6.625,3.291 9.785,5.169 3.273,1.946 7.25,2.991 9.587,6.149 1.994,2.694 3.184,6.065 4.878,8.959 0.716,1.223 2.41,5.042 4.319,5.042 1.192,0 1.585,-1.278 1.962,-2.2 0.862,-2.107 1.335,-4.227 2.043,-6.362 0.099,-0.298 -0.101,-0.501 -0.339,-0.549 z"
         id="path206"
         inkscape:connector-curvature="0" /><path
         style="fill:#414355"
         d="m 511.49,145.358 c -0.405,-1.245 -0.94,-2.45 -1.461,-3.651 -1.472,-3.395 -3.051,-6.689 -4.843,-9.925 -1.371,-2.477 -2.43,-4.401 -4.723,-6.172 -2.814,-2.172 -5.985,-3.958 -7.685,-7.213 -1.135,-2.172 -1.265,-4.496 -2.825,-6.517 -0.97,-1.256 -2.743,-2.655 -4.464,-2.048 -1.512,0.533 -2.271,1.726 -1.999,3.353 0.182,1.084 0.451,2.088 0.943,3.07 0.265,0.53 0.6,1.034 0.901,1.544 0.671,1.131 -0.442,0.239 -1.061,0.008 -0.616,-0.23 -3.9,-1.418 -4.207,0.034 -0.325,1.54 1.375,2.835 2.585,3.442 2.583,1.297 5.082,2.338 7.444,4.055 2.727,1.982 4.888,4.658 6.61,7.528 1.846,3.076 2.913,6.622 4.071,9.991 0.345,1.004 1.87,7.166 3.462,8.262 -0.015,0.281 0.151,0.548 0.508,0.503 1.301,-0.164 2.653,-0.313 3.856,-0.862 0.886,-0.404 3.346,-1.327 3.634,-2.375 0.226,-0.802 -0.498,-2.265 -0.746,-3.027 z"
         id="path208"
         inkscape:connector-curvature="0" /><path
         style="fill:#ffffff"
         d="m 490.125,152.005 -5.75,10.745 c 0,0 5.25,3.5 5.75,5.875 0.5,2.375 -0.75,7 -0.75,7 0,0 0.25,5.125 -0.25,8 -0.5,2.875 -5.625,12.25 -5.625,12.25 0,0 -0.123,2.093 0.75,3.125 0.828,0.979 5.824,2.002 9.669,2.661 0.183,0.031 0.729,-4.027 0.883,-4.021 0.698,0.027 1.365,0.276 1.365,0.277 0,0 10.712,2.264 15,3.083 5.666,1.083 12,-0.25 12,-0.25 0,0 -7.667,-6.875 -9.917,-11.125 -1.807,-3.412 -0.5,-7.25 -0.5,-7.25 0,0 1.875,-5.375 1.75,-9.875 -0.086,-3.083 -2.25,-8 -2.25,-8 0,0 -11.018,-2.294 -15.625,-4.125 -2.61,-1.038 -6.5,-8.37 -6.5,-8.37 z"
         id="path210"
         inkscape:connector-curvature="0" /><path
         style="fill:#858fa9"
         d="m 524.394,200.478 c -2.745,-1.063 -4.452,-3.53 -6.369,-5.627 -2.031,-2.22 -4.211,-4.531 -5.088,-7.471 -0.961,-3.219 1.237,-6.893 1.788,-10.046 0.452,-2.591 0.452,-5.322 0,-7.911 -0.861,-4.935 -4.84,-7.354 -9.506,-7.708 -3.438,-0.261 -6.746,-0.578 -9.41,-3.023 -2.271,-2.084 -3.697,-4.76 -5.125,-7.445 -0.083,-0.157 -0.261,-0.245 -0.434,-0.249 -0.083,-0.002 -0.167,-0.004 -0.25,-0.006 -0.177,-0.004 -0.351,0.1 -0.438,0.252 -1.195,2.068 -2.251,4.2 -3.207,6.388 -0.793,1.814 -2.029,3.241 -2.54,5.179 -0.06,0.223 -0.012,0.539 0.183,0.692 1.813,1.428 3.782,2.674 5.024,4.679 1.237,1.998 -0.38,6.049 -0.33,8.368 0.069,3.186 0.344,6.417 -0.708,9.473 -1.063,3.087 -3.039,5.785 -4.357,8.758 -0.07,0.157 -0.04,0.305 0.033,0.423 -0.918,0.591 -1.433,1.465 -0.838,2.676 0.816,1.661 2.316,2.428 4.044,2.862 2.376,0.597 5.103,1.125 7.592,1.242 0.017,0.004 0.023,0.019 0.043,0.02 0.167,0.005 0.333,0.011 0.5,0.017 0.354,0.012 0.342,-0.511 0,-0.541 -2.247,-0.2 -4.412,-0.933 -6.644,-1.264 -1.044,-0.155 -2.019,-0.417 -2.976,-0.875 -1.542,-0.739 -1.94,-2.571 -0.273,-3.237 3.658,-1.461 8.261,1.491 11.61,2.635 4.229,1.444 9.104,2.119 13.528,2.678 2.165,0.274 4.321,0.427 6.504,0.43 2.512,0.004 4.984,-0.478 7.5,-0.306 0.654,0.045 0.674,-0.858 0.144,-1.063 z m -9.27,0.133 c -3.419,-0.122 -6.694,-0.891 -10.042,-1.497 -3.307,-0.598 -6.51,-1.228 -9.664,-2.418 -2.49,-0.94 -5.024,-2.328 -7.724,-2.485 -0.771,-0.045 -2.021,0.116 -3.097,0.529 1.969,-4.177 4.654,-8.05 4.848,-12.79 0.127,-3.104 0.049,-6.127 0.83,-9.162 0.465,-1.804 1.052,-3.704 0.239,-5.479 -0.788,-1.721 -2.61,-3.005 -4.104,-4.064 -0.336,-0.242 -0.688,-0.457 -1.056,-0.645 -0.568,-0.316 0.997,-2.556 1.23,-2.917 0.792,-1.226 1.237,-2.644 1.851,-3.966 0.151,-0.325 1.657,-3.712 1.688,-3.712 -0.057,0.001 1.415,2.786 1.569,3.041 1.059,1.752 2.439,3.559 4.095,4.785 1.642,1.215 3.462,1.92 5.443,2.375 2.877,0.661 5.775,0.161 8.535,1.461 6.057,2.852 4.733,12.479 3.058,17.465 -1.566,4.659 -0.827,7.948 2.252,11.736 2.043,2.513 4.184,5.619 6.956,7.527 -2.299,0.029 -4.601,0.297 -6.907,0.216 z"
         id="path212"
         inkscape:connector-curvature="0" /><path
         style="fill:#414355"
         d="m 521.308,149.935 c -0.491,-2.629 -3.772,-5.243 -6.016,-6.081 -3.321,-1.241 -6.772,-0.829 -9.708,1.139 -5.302,3.551 -7.942,11.946 -6.029,17.942 1.144,3.583 4.418,5.869 7.881,6.819 1.599,0.439 3.78,0.666 5.312,-0.139 0.895,-0.47 1.592,-1.028 2.329,-1.715 1.067,-0.993 1.834,-1.29 3.285,-0.971 0.619,0.136 1.622,0.386 2.041,-0.328 0.153,-0.264 0.144,-0.647 0.163,-0.935 0.104,-1.575 -0.519,-2.834 0.443,-4.413 2.071,-3.398 1.994,-7.757 0.299,-11.318 z"
         id="path214"
         inkscape:connector-curvature="0" /><ellipse
         style="fill:#2a9cc8"
         cx="515.06201"
         cy="160.75"
         rx="1.188"
         ry="1.25"
         id="ellipse216" /><path
         style="fill:#858fa9"
         d="m 520.553,143.571 c -0.561,-0.311 -1.005,-0.431 -1.645,-0.544 -1.124,-0.2 -1.528,-2.116 -1.924,-3.026 -0.556,-1.279 -1.652,-3.419 -3.123,-3.903 -1.109,-0.365 -2.411,-0.392 -3.349,0.448 -1.325,1.188 -1.191,2.627 -1.886,4.152 -0.309,0.676 -3.255,-0.773 -4.122,-0.118 -0.867,0.655 -0.838,3.254 -2.286,3.306 -1.255,0.045 -2.642,0.513 -3.052,1.448 -0.584,1.333 -0.53,2.725 0.083,5.667 0.625,3 -0.75,5.583 -0.333,5.667 0.481,0.096 2.208,-3.25 3.166,-4.167 2.303,-2.204 5.556,-5.766 8.857,-3.091 1.006,0.815 1.93,1.261 3.224,0.988 1.611,-0.34 2.963,-0.957 4.657,0.057 0.838,0.501 1.663,1.013 2.477,1.552 0.01,0.007 0.021,0.003 0.03,0.007 0.004,0.002 0.003,0.007 0.007,0.009 0.15,0.056 0.302,0.111 0.453,0.167 0.177,0.065 0.344,-0.072 0.401,-0.228 0.765,-2.072 0.725,-7.086 -1.635,-8.391 z"
         id="path218"
         inkscape:connector-curvature="0" /><g
         id="g224"><g
           id="g222"><path
             style="fill:#858fa9"
             d="m 481.921,235.352 c -2.22,-1.393 -5.763,-0.736 -8.172,-0.161 -0.365,0.087 -0.265,0.612 0.085,0.629 2.655,0.134 5.326,-1.186 7.955,-0.155 0.188,0.074 0.29,-0.214 0.132,-0.313 z"
             id="path220"
             inkscape:connector-curvature="0" /></g></g></g><g
       id="g276"><path
         style="fill:#2a9cc8"
         d="m 245.5,382.316 c -0.272,-0.016 -0.41,0.198 -0.417,0.417 -3.03,1.616 -6.588,2.148 -9.642,3.827 -1.9,1.045 -3.83,3.587 -4.461,5.643 -1.895,6.173 6.764,3.269 9.516,1.98 3.571,-1.671 7.212,-4.534 9.242,-7.949 0.635,-1.067 0.844,-2.336 -0.068,-3.286 -1.204,-1.254 -2.862,-0.558 -4.17,-0.632 z"
         id="path228"
         inkscape:connector-curvature="0" /><path
         style="fill:#2a9cc8"
         d="m 322.257,373.598 c -0.904,-1.43 -2.972,-2.453 -4.66,-2.209 -2.753,0.399 -3.549,2.379 -5.142,4.354 -0.069,0.011 -0.137,0.046 -0.191,0.12 -1.83,2.508 -6.592,7.345 -2.583,10.354 1.683,1.264 3.771,1.104 5.762,0.953 2.293,-0.173 4.744,0.507 6.636,-1.09 1.395,-1.177 1.161,-3.924 1.295,-5.526 0.204,-2.42 0.217,-4.846 -1.117,-6.956 z"
         id="path230"
         inkscape:connector-curvature="0" /><path
         style="fill:#858fa9"
         d="m 346.923,337.058 c -1.991,-3.968 -7.592,-4.648 -11.453,-4.11 -5.999,0.836 -12.195,3.625 -17.952,0.594 -0.4,-0.211 -0.763,0.124 -0.797,0.462 -6.341,3.212 -12.28,6.605 -19.228,8.44 -5.788,1.528 -11.8,1.812 -17.486,3.823 -4.97,1.759 -9.282,5.731 -13.261,9.085 -5.657,4.767 -11.077,9.814 -16.69,14.635 -2.867,2.462 -5.77,4.878 -8.706,7.256 -1.517,1.229 -2.739,2.566 -1.544,4.455 1.062,1.678 3.652,2.885 5.314,3.835 1.154,0.659 4.262,4.227 5.912,3.129 2.423,-1.612 4.479,-4.088 6.548,-6.119 2.96,-2.904 5.868,-5.865 8.796,-8.803 4.764,-4.78 9.486,-10.389 16.014,-12.732 3.185,-1.144 6.977,-0.865 10.309,-0.891 2.692,-0.021 5.386,-0.228 8.068,-0.452 2.598,-0.218 5.188,-0.519 7.769,-0.889 1.39,-0.199 2.772,-0.448 4.147,-0.734 1.095,-0.228 1.226,0.517 1.95,1.243 2.515,2.522 6.893,2.685 10.205,2.567 4.264,-0.15 8.627,-1.012 12.459,-2.91 4.216,-2.089 6.811,-5.845 8.681,-10.03 1.616,-3.622 2.821,-8.114 0.945,-11.854 z"
         id="path232"
         inkscape:connector-curvature="0" /><g
         id="g238"><path
           style="fill:#fcc18b"
           d="m 364.523,376.02 c -1.25,-0.287 -2.463,-0.604 -2.495,-2.081 -0.033,-1.559 0.367,-3.224 0.417,-4.795 0.22,-6.922 1.091,-13.812 1.455,-20.728 0.125,-2.378 0.311,-4.75 0.461,-7.125 0.074,-1.181 0.395,-3.282 -0.764,-4.074 -0.159,-0.108 -7.479,2.988 -7.097,4.721 -0.031,0.04 -0.367,4.877 -0.375,4.938 -0.578,4.485 -0.762,8.086 -0.776,12.61 -0.015,4.491 0.593,11.577 -2.908,15.014 -0.84,0.824 -8.76,3.779 -5.45,5.753 1.883,1.123 4.587,-0.771 7.008,-1.752 -1.114,1.926 -2.5,6.5 -0.621,6.825 1.816,0.314 3.552,-3.404 4.632,-5.583 0.438,2.295 2.159,5.02 4.597,4.313 1.978,-0.573 0.632,-3.502 -0.327,-5.219 2.26,0.791 6.689,1.687 5.964,-0.95 -0.359,-1.31 -2.682,-1.628 -3.721,-1.867 z"
           id="path234"
           inkscape:connector-curvature="0" /><path
           style="fill:#fcc18b"
           d="m 328.3,295.424 c -3.006,-1.819 -6.346,-3.06 -9.458,-4.69 -3.328,-1.745 -6.631,-3.519 -9.896,-5.377 -1.062,-0.604 -2.166,-1.085 -3.281,-1.578 -1.974,-0.873 -2.604,-2.436 -3.166,-4.413 -1.167,-4.115 -3.024,-8.459 -8.045,-7.538 -1.137,0.209 -1.573,1.059 -1.019,2.025 0.546,0.951 1.735,1.798 2.397,2.675 0.855,1.132 1.565,2.498 1.757,3.922 -0.435,-0.624 -0.775,-1.291 -1.328,-1.844 -0.382,-0.382 -1.379,-0.798 -1.862,-0.306 -0.783,0.798 -0.224,2.104 0.048,3.042 0.569,1.96 2.181,3.523 3.585,4.902 3.705,3.638 8.889,6.169 13.331,8.773 4.693,2.751 9.618,4.991 14.348,7.65 -0.013,0.147 0.045,0.298 0.224,0.393 3.196,1.698 5.801,-1.773 7.858,-3.767 0.17,-0.164 0.15,-0.423 0,-0.59 -1.315,-1.465 -3.814,-2.264 -5.493,-3.279 z"
           id="path236"
           inkscape:connector-curvature="0" /></g><path
         style="fill:#dcdde0"
         d="m 365.552,317.521 c -1.363,-4.778 -4.469,-13.437 -10.802,-13.019 -0.208,0.014 -0.387,0.134 -0.458,0.334 -0.55,-0.533 -1.051,-1.048 -1.054,-1.837 -0.002,-0.507 -0.625,-0.599 -0.872,-0.289 -1.521,0.162 -3.487,-0.915 -4.756,-1.478 -1.444,-0.64 -2.853,-1.271 -4.336,-1.828 -4.714,-1.771 -9.237,-3.084 -13.5,-5.872 -0.165,-0.107 -0.38,-0.088 -0.546,0 -2.885,1.535 -5.056,5.746 -5.805,8.808 -0.062,0.255 0.035,0.547 0.275,0.677 1.293,0.697 2.365,2.139 3.359,3.21 1.174,1.266 2.607,2.126 3.599,3.582 0.642,0.943 -2.587,1.432 -3.367,1.829 -1.666,0.848 -3.201,2.114 -4.664,3.26 -3.083,2.415 -5.797,5.315 -8.277,8.336 -1.262,1.539 -2.602,2.979 -3.918,4.467 -1.262,1.427 -3.539,1.8 -5.228,2.539 -0.225,0.099 -0.354,0.441 -0.271,0.667 1.132,3.079 3.62,5.586 5.68,8.078 2.319,2.805 5.539,5.209 8.691,6.979 1.337,0.751 4.792,3.544 6.468,2.499 0.75,-0.468 1.152,-1.261 1.588,-2.007 0.95,-1.626 2.125,-3.127 3.243,-4.642 1.48,-2.005 2.935,-3.74 5.363,-4.571 2.297,-0.786 5.358,-0.235 7.175,1.367 1.653,1.458 1.12,4.638 3.866,3.077 2.732,-1.552 4.488,-4.832 6.733,-6.984 1.593,-1.526 1.722,0.837 1.158,1.897 -0.31,0.584 -0.756,1.144 -0.963,1.778 -0.514,1.574 -1.291,2.948 -1.45,4.621 -0.02,0.205 0.17,0.468 0.379,0.498 1.519,0.219 3.096,-0.219 4.637,-0.212 2.405,0.011 4.86,-0.177 7.25,-0.478 0.229,-0.029 0.495,-0.147 0.539,-0.41 1.373,-8.345 2.633,-16.575 0.264,-24.876 z"
         id="path240"
         inkscape:connector-curvature="0" /><path
         style="fill:#fcc18b"
         d="m 375.012,308.634 c -3.883,-6.11 -14.2,-9.788 -20.636,-5.594 -0.166,-0.024 -0.341,0.024 -0.482,0.187 -0.104,0.118 -0.208,0.236 -0.312,0.355 -0.134,0.107 -0.186,0.235 -0.191,0.363 -6.68,1.812 -10.388,11.862 -7.658,17.89 3.471,7.664 13.92,9.559 21.07,6.49 7.775,-3.336 13.265,-11.737 8.209,-19.691 z"
         id="path242"
         inkscape:connector-curvature="0" /><ellipse
         style="fill:#414355"
         cx="355.58301"
         cy="318"
         rx="1.75"
         ry="1.5"
         id="ellipse244" /><ellipse
         style="fill:#414355"
         cx="366.41699"
         cy="322.75"
         rx="1.5829999"
         ry="1.25"
         id="ellipse246" /><path
         style="fill:#414355"
         d="m 376.75,318.208 c 1.625,-3.625 1.037,-7.896 0.877,-11.229 -0.175,-3.648 -1.439,-7.768 -3.66,-10.698 -0.917,-1.211 -5.05,-2.948 -4.717,-0.864 0.156,0.974 0.824,2.879 0.25,6.083 -0.458,-1.417 -0.452,-1.396 -1.75,-3.667 -2.333,-4.083 -3.917,-5.083 -5.2,-5.548 -1.097,-0.397 -3.169,-0.835 -3.418,0.773 -0.19,1.234 0.046,2.636 0.46,4.008 -1.552,-1.293 -3.437,-2.251 -4.556,-1.938 -1.233,0.345 -2.12,1.958 -3.54,1.75 -0.803,-0.118 -1.587,-0.189 -2.318,0.239 -0.474,0.277 -0.822,0.769 -0.884,1.315 -0.03,0.261 0.105,1.488 -0.461,1.438 -0.311,-0.028 -0.859,-0.109 -1.147,0.093 -1.529,1.068 -2.389,3.03 -2.072,4.915 0.443,2.637 2.427,4.144 4.646,5.355 2.03,1.108 3.766,0.46 5.605,-0.665 1.954,-1.196 3.757,-1.949 5.92,-0.536 0.698,0.456 1.721,1.648 2.657,1.703 1.618,0.095 3.341,-0.935 4.23,1.18 0.339,0.806 0.674,1.093 1.393,1.517 1.121,0.661 2.035,-1.241 3.194,0.543 0.449,0.691 0.485,1.405 1.004,2.062 0.504,0.638 1.819,3.596 2.799,3.494 0.036,-0.004 0.645,-1.116 0.688,-1.323 z"
         id="path248"
         inkscape:connector-curvature="0" /><path
         style="fill:#858fa9"
         d="m 342.113,329.664 c -6.434,-2.785 -12.106,2.812 -15.31,7.808 -3.263,5.088 -4.635,11.402 -6.693,17.04 -2.478,6.789 -5.242,13.484 -7.581,20.321 -0.088,0.26 0.237,0.505 0.463,0.356 2.24,-1.467 5.24,-2.973 7.418,-0.625 0.887,0.957 1.284,2.361 1.521,3.615 0.13,0.686 -0.125,3.684 0.897,3.965 1.178,0.324 2.642,-4.29 3.078,-5.04 1.439,-2.475 3.036,-4.832 4.418,-7.345 1.903,-3.458 3.44,-7.162 4.937,-10.812 1.556,-3.794 2.575,-7.899 3.728,-11.833 0.19,-0.649 0.307,-1.326 0.476,-1.982 0.563,-2.2 2.728,-2.024 4.312,-1.713 0.96,0.189 1.925,0.555 2.894,0.276 0.142,-0.041 0.411,-0.694 0.411,-0.694 1.085,-5.042 -0.713,-11.494 -4.969,-13.337 z"
         id="path250"
         inkscape:connector-curvature="0" /><g
         id="g256"><g
           id="g254"><path
             style="fill:#414355"
             d="m 347.601,341.604 c 0.557,-2.354 -0.189,-4.899 -0.858,-7.171 -0.726,-2.463 -2.057,-4.002 -4.351,-5.068 -2.596,-1.206 -4.729,-1.512 -7.432,-0.404 -2.567,1.053 -4.766,3.145 -6.411,5.332 -4.257,5.66 -5.681,12.786 -8.3,19.246 -1.533,3.78 -2.958,7.574 -4.348,11.408 -1.417,3.912 -3.264,7.654 -4.441,11.654 -0.179,0.608 0.716,0.988 1.023,0.431 1.715,-3.107 6.089,-5.31 8.278,-1.516 1.168,2.024 1.315,4.705 1.336,6.983 0.002,0.284 0.349,0.53 0.606,0.348 0.82,-0.581 1.268,-1.386 1.728,-2.271 0.911,-1.751 1.727,-3.438 2.844,-5.088 2.448,-3.616 4.64,-7.372 6.466,-11.34 3.791,-8.234 5.645,-17.368 8.195,-26.029 0.166,-0.562 -0.703,-0.798 -0.874,-0.24 -2.463,8.038 -4.422,16.22 -7.777,23.956 -1.622,3.739 -3.462,7.363 -5.5,10.893 -1.029,1.782 -2.104,3.536 -3.142,5.313 -0.788,1.348 -0.971,3.131 -2.347,4.11 0.202,0.116 0.404,0.231 0.606,0.348 -0.034,-3.053 -0.368,-6.759 -2.695,-8.993 -2.741,-2.631 -7.182,0.489 -8.691,2.961 0.341,0.144 0.682,0.287 1.023,0.431 1.824,-5.714 4.199,-11.316 6.321,-16.928 1.114,-2.944 2.356,-5.838 3.511,-8.766 1.257,-3.188 2.225,-6.485 3.562,-9.641 2.065,-4.875 6.403,-11.095 12.116,-11.762 2.645,-0.309 6.135,1.588 7.454,3.742 1.305,2.131 1.936,5.567 1.637,7.997 -0.032,0.267 0.401,0.317 0.461,0.064 z"
             id="path252"
             inkscape:connector-curvature="0" /></g></g><g
         id="g268"><path
           style="fill:#dcdde0"
           d="m 320.335,383.208 c -0.493,-0.436 -0.866,-0.967 -1.227,-1.479 -0.308,-0.438 -0.599,-0.851 -0.952,-1.197 -0.49,-0.48 -1.792,-1.759 -2.877,-1.87 -0.776,-0.074 -1.525,0.17 -2.314,0.435 -0.441,0.147 -0.897,0.3 -1.367,0.395 l -0.197,-0.98 c 0.409,-0.082 0.815,-0.219 1.246,-0.362 0.855,-0.287 1.737,-0.588 2.734,-0.48 1.271,0.129 2.525,1.218 3.476,2.151 0.417,0.41 0.749,0.88 1.069,1.335 0.343,0.487 0.667,0.947 1.072,1.307 z"
           id="path258"
           inkscape:connector-curvature="0" /><path
           style="fill:#dcdde0"
           d="m 321.22,381.059 -0.184,-0.368 c -0.405,-0.812 -0.824,-1.653 -1.328,-2.408 -0.463,-0.692 -1.092,-0.995 -1.889,-1.378 -1.042,-0.5 -2.729,-0.685 -3.748,-0.131 l -0.478,-0.879 c 1.365,-0.741 3.376,-0.506 4.659,0.108 0.86,0.414 1.672,0.804 2.287,1.725 0.54,0.807 0.973,1.677 1.392,2.518 l 0.182,0.364 z"
           id="path260"
           inkscape:connector-curvature="0" /><path
           style="fill:#dcdde0"
           d="m 239.488,391.862 c -0.979,-0.934 -1.73,-2.411 -2.334,-3.599 l -0.255,-0.492 c -0.215,-0.404 -0.458,-0.862 -0.556,-1.337 l 0.979,-0.201 c 0.069,0.334 0.267,0.708 0.459,1.069 l 0.263,0.508 c 0.569,1.119 1.278,2.512 2.133,3.327 z"
           id="path262"
           inkscape:connector-curvature="0" /><path
           style="fill:#dcdde0"
           d="m 242.22,391.058 c -0.924,-1.85 -1.927,-3.59 -3.149,-5.634 l 0.858,-0.514 c 1.233,2.064 2.248,3.823 3.185,5.7 z"
           id="path264"
           inkscape:connector-curvature="0" /><path
           style="fill:#dcdde0"
           d="m 244.678,389.272 c -0.078,-0.359 -0.369,-0.813 -0.65,-1.252 -0.178,-0.278 -0.351,-0.549 -0.475,-0.796 -0.139,-0.277 -0.269,-0.553 -0.398,-0.825 -0.243,-0.515 -0.472,-1.001 -0.753,-1.479 l 0.862,-0.506 c 0.304,0.517 0.554,1.047 0.795,1.559 0.125,0.266 0.251,0.533 0.387,0.803 0.11,0.22 0.265,0.459 0.423,0.705 0.329,0.514 0.67,1.044 0.786,1.581 z"
           id="path266"
           inkscape:connector-curvature="0" /></g><g
         id="g274"><g
           id="g272"><path
             style="fill:#858fa9"
             d="m 359.535,323.44 c -0.094,0.548 -0.3,1.044 -0.347,1.605 -0.053,0.627 0.153,1.644 -0.769,1.672 -1.052,0.031 -1.85,-1.358 -2.573,-1.938 -0.252,-0.203 -0.725,0.075 -0.491,0.379 0.663,0.857 2.056,2.388 3.291,2.132 0.575,-0.12 0.981,-0.523 1.054,-1.114 0.055,-0.448 -0.011,-0.908 0.064,-1.354 0.074,-0.439 0.201,-0.874 0.208,-1.322 0.005,-0.246 -0.393,-0.311 -0.437,-0.06 z"
             id="path270"
             inkscape:connector-curvature="0" /></g></g></g><g
       id="g306"><path
         style="fill:#414355"
         d="m 212.687,336.235 c -0.833,-0.189 -1.812,0.156 -2.579,0.434 -0.396,0.144 -1.041,0.742 -1.504,1.021 -3.653,-0.183 -7.79,0.983 -8.044,5.06 -0.015,0.245 0.212,0.434 0.44,0.439 3.545,0.105 6.931,-0.755 10.368,-1.512 1.653,-0.363 3.086,-0.291 3.166,-2.312 0.058,-1.483 -0.344,-2.788 -1.847,-3.13 z"
         id="path278"
         inkscape:connector-curvature="0" /><path
         style="fill:#414355"
         d="m 253.469,330.5 c -0.023,-0.271 -0.197,-0.448 -0.469,-0.469 -1.254,-0.096 -2.461,0.285 -3.613,0.746 -0.735,0.295 -1.273,0.786 -1.864,1.206 -0.052,-0.008 -0.105,0.006 -0.157,0.037 0,-10e-4 -0.001,-0.003 -0.001,-0.004 -1.888,1.185 -4.788,2.932 -5.655,5.096 -0.543,1.356 1.712,1.539 2.448,1.546 2.735,0.022 5.038,-1.425 7.288,-2.825 0.755,-0.47 1.861,-1.099 2.152,-2.022 0.337,-1.076 -0.036,-2.22 -0.129,-3.311 z m -6.194,2.325 c 0.009,0.005 0.018,0.009 0.026,0.014 0.092,0.049 0.216,0.059 0.321,0.021 -0.044,0.048 -0.089,0.095 -0.123,0.141 h -0.414 c 0.065,-0.059 0.128,-0.117 0.19,-0.176 z"
         id="path280"
         inkscape:connector-curvature="0" /><path
         style="fill:#858fa9"
         d="m 253.071,327.805 c -0.931,-2.113 -1.588,-4.334 -2.533,-6.448 -1.216,-2.722 -2.773,-5.296 -4.032,-8.005 -1.292,-2.78 -2.566,-5.517 -4.144,-8.15 -1.619,-2.703 -3.263,-5.392 -4.967,-8.042 -1.474,-2.292 -3.438,-4.319 -4.476,-6.867 -2.155,-5.285 3.644,-7.694 3.344,-12.542 -0.018,-0.284 -0.22,-0.506 -0.513,-0.513 -2.07,-0.048 -3.645,1.544 -5.693,1.883 -2.462,0.407 -4.914,0.79 -7.369,1.236 -1.573,0.286 -3.117,0.699 -4.576,1.357 -0.934,0.421 -1.275,1.517 -1.884,1.821 -0.435,0.218 -0.294,0.729 0.039,0.917 -1.272,1.178 -4.92,21.546 -5.178,23.484 -0.698,5.247 -1.378,10.48 -2.317,15.691 -0.853,4.725 -1.612,9.558 -1.447,14.373 0.011,0.339 0.299,0.714 0.675,0.676 1.882,-0.192 3.758,-0.713 5.641,-0.28 0.176,0.04 0.372,-0.023 0.463,-0.188 1.184,-2.164 1.04,-5.336 1.409,-7.744 0.556,-3.627 2.046,-7.113 3.149,-10.6 1.092,-3.45 2.308,-6.837 3.556,-10.234 0.927,-2.524 2.263,-4.836 2.965,-7.405 1.142,2.605 3.926,4.869 5.681,6.783 4.211,4.595 7.472,10.04 10.776,15.303 1.521,2.424 2.872,4.897 4.116,7.472 0.431,0.893 1.478,1.283 2.401,1.354 1.149,0.089 6.051,-0.138 6.018,-1.873 -0.025,-1.22 -0.621,-2.364 -1.104,-3.459 z"
         id="path282"
         inkscape:connector-curvature="0" /><g
         id="g288"><path
           style="fill:#fcc18b"
           d="m 212.5,250.816 c -0.032,-0.003 -0.064,-0.003 -0.096,-0.006 -0.097,-0.038 -0.203,-0.047 -0.321,-0.02 -0.147,-0.225 -0.492,-0.231 -0.651,-0.019 -1.836,0.018 -3.571,0.562 -5.341,1.147 -2.871,0.948 -5.802,1.672 -8.704,2.517 -5.408,1.574 -10.731,3.479 -16.083,5.238 -1.525,-2.531 -3.208,-5.701 -6.242,-6.457 -1.946,-0.485 -3.273,1.722 -2.848,3.432 0.695,2.793 2.543,5.315 4.602,7.273 2.233,2.124 5.454,1.853 8.271,1.313 4.021,-0.77 7.782,-2.573 11.782,-3.473 4.529,-1.019 9.079,-1.763 13.372,-3.599 2.317,-0.991 3.003,-2.455 2.991,-4.904 -0.002,-0.622 -0.144,-1.753 -0.56,-2.247 -0.003,-0.089 -0.059,-0.182 -0.172,-0.195 z"
           id="path284"
           inkscape:connector-curvature="0" /><path
           style="fill:#fcc18b"
           d="m 284.974,211.847 c -0.835,-1.529 -2.724,-0.212 -3.565,0.544 -1.014,0.914 -1.639,2.295 -2.016,3.747 -0.042,-0.053 -0.07,-0.105 -0.118,-0.158 -0.569,-0.618 -1.337,0.07 -1.699,0.475 -1.366,1.532 -1.411,4.024 -2.194,5.83 -1.011,2.33 -4.792,3.672 -6.862,4.862 -4.728,2.721 -9.37,5.652 -14.267,8.068 -2.389,1.179 -4.846,2.229 -7.293,3.28 -0.788,0.339 -1.832,0.678 -2.508,1.208 -1.143,0.895 -2.311,1.975 -3.764,2.324 -0.084,0.02 -0.123,0.082 -0.143,0.151 -0.271,0.268 -0.542,0.536 -0.813,0.805 -0.091,0.09 -0.141,0.244 -0.098,0.368 0.8,2.289 -1.077,4.621 -0.312,7.018 0.084,0.264 0.4,0.423 0.651,0.265 0.454,-0.287 1.522,-0.271 2.085,-0.411 0.689,-0.171 1.352,-0.513 1.991,-0.816 1.641,-0.778 3.179,-1.77 4.812,-2.567 2.088,-1.02 4.262,-1.851 6.349,-2.874 2.188,-1.072 4.233,-2.479 6.338,-3.704 4.124,-2.4 8.187,-4.885 12.279,-7.333 2.716,-1.625 6.205,-2.806 8.149,-5.456 2.094,-2.854 2.969,-6.509 3.429,-9.972 0.241,-1.813 0.48,-3.986 -0.431,-5.654 z"
           id="path286"
           inkscape:connector-curvature="0" /></g><path
         style="fill:#dcdde0"
         d="m 243.299,238.958 c -1.655,0.775 -3.259,1.7 -4.907,2.505 -2.479,1.21 -4.855,1.808 -7.558,2.302 -3.915,0.715 -7.878,1.122 -11.708,2.234 h -0.376 c 0.017,0 0.029,0.014 0.043,0.021 -0.175,-0.045 -0.303,0.139 -0.271,0.293 -1.393,1.132 -3.275,1.697 -4.9,2.36 -0.756,0.309 -1.482,0.69 -2.255,0.958 -1.037,0.36 -2.445,0.349 -3.389,0.901 -0.978,0.573 -1.023,2.752 -1.102,3.725 -0.206,2.539 -0.727,5.191 -0.484,7.741 0.04,0.417 0.356,0.661 0.77,0.586 1.092,-0.195 1.944,-0.665 2.987,-1.047 0.893,-0.326 1.843,-0.496 2.77,-0.748 -1.169,3.332 -1.073,6.835 -0.741,10.355 0.192,2.039 0.407,4.056 0.94,6.036 0.682,2.531 1.708,4.894 1.627,7.568 -0.01,0.325 0.33,0.578 0.639,0.487 4.767,-1.402 9.467,-2.999 14.331,-4.047 2.033,-0.438 6.787,-0.444 7.292,-3.05 0.377,-1.944 0.012,-4.144 0.047,-6.125 0.048,-2.708 0.269,-5.405 0.567,-8.096 0.211,-1.904 0.172,-3.806 0.285,-5.716 0.101,-1.704 0.465,-3.214 1.973,-4.254 0.931,-0.643 2.228,-0.839 3.248,-1.358 0.75,-0.381 1.104,-1.184 1.205,-1.971 0.322,-2.505 0.582,-5.003 1.021,-7.49 0.226,-1.283 0.494,-5.362 -2.054,-4.17 z"
         id="path290"
         inkscape:connector-curvature="0" /><path
         style="fill:#fcc18b"
         d="m 233.662,221.74 c -2.683,-2.504 -6.638,-3.306 -10.191,-3.066 -2.279,0.154 -5.852,0.908 -5.693,3.826 0.009,0.161 0.083,0.276 0.185,0.352 -5.545,6.422 -3.54,17.042 0.908,23.643 4.744,7.04 12.673,0.751 15.537,-4.486 3.417,-6.251 4.989,-14.915 -0.746,-20.269 z"
         id="path292"
         inkscape:connector-curvature="0" /><path
         style="fill:#ffa348"
         d="m 244.378,219.396 c -0.56,-3.611 -4.941,-2.749 -7.422,-2.557 -2.226,0.173 -3.806,-1.739 -5.986,-1.741 -0.958,-0.001 -1.895,0.072 -2.836,0.231 -1.684,0.286 -2.287,1.778 -4.293,1.189 -1.542,-0.453 -3.256,-0.964 -4.803,-0.177 -2.617,1.331 -3.873,3.893 -7.047,4.117 -3.044,0.215 -5.884,2.872 -4.137,6.081 1.158,2.125 5.111,1.632 7.243,1.511 0.018,0.017 0.035,0.034 0.052,0.051 0.457,0.45 1.152,-0.246 0.702,-0.702 -0.011,-0.015 -0.017,-0.019 -0.026,-0.031 0.11,-0.312 0.22,-0.624 0.329,-0.936 0.84,-2.402 3.029,-1.137 4.71,-0.689 2.303,0.614 4.057,-1.694 6.186,-1.973 2.637,-0.346 5.496,1 8.077,1.428 1.547,0.256 3.178,0.037 4.693,-0.306 2.772,-0.627 5.025,-2.483 4.558,-5.496 z"
         id="path294"
         inkscape:connector-curvature="0" /><ellipse
         style="fill:#858fa9"
         cx="219.25"
         cy="230.812"
         rx="1"
         ry="1.312"
         id="ellipse296" /><ellipse
         style="fill:#858fa9"
         cx="227.5"
         cy="229.312"
         rx="1.125"
         ry="1.438"
         id="ellipse298" /><g
         id="g304"><g
           id="g302"><path
             style="fill:#858fa9"
             d="m 222.429,233.479 c 0.329,-0.739 -0.881,-0.647 -1.27,-0.575 -1.152,0.213 -1.979,0.969 -2.152,2.141 -0.268,1.811 2.378,2.618 3.744,2.732 0.277,0.023 0.376,-0.392 0.14,-0.517 -0.874,-0.465 -2.399,-0.49 -2.942,-1.429 -0.354,-0.612 0.409,-1.367 0.861,-1.655 0.294,-0.187 0.636,-0.222 0.944,-0.369 0.111,-0.053 0.603,-0.294 0.511,-0.295 -0.078,-0.078 -0.155,-0.155 -0.233,-0.233 0.004,0.032 0.008,0.064 0.012,0.096 0.022,0.176 0.29,0.317 0.385,0.104 z"
             id="path300"
             inkscape:connector-curvature="0" /></g></g></g><g
       id="g340"><g
         id="g314"><path
           style="fill:#858fa9"
           d="m 682.656,105.311 c -0.558,-0.928 -1.395,-1.249 -2.366,-1.678 -1.418,-0.626 -1.142,-3.709 -1.772,-4.957 -0.935,-1.85 -2.388,-4.208 -4.685,-4.309 -0.044,-0.002 -0.073,0.015 -0.095,0.039 -0.074,0.06 -0.444,-0.547 -0.913,-0.939 -0.569,-0.477 -1.288,-0.536 -1.992,-0.591 -2.133,-0.168 -4.572,0.603 -6.41,1.62 -3.659,2.023 -5.458,7.415 -3.737,11.214 1.131,2.497 3.048,4.237 5.116,5.972 1.618,1.357 3.723,2.952 5.933,3.048 2.121,0.092 4.148,-0.835 5.313,-2.679 0.771,-1.219 1.235,-2.524 1.804,-3.845 0.616,-1.431 2.539,-1.565 3.671,-2.382 0.163,-0.119 0.247,-0.325 0.133,-0.513 z"
           id="path308"
           inkscape:connector-curvature="0" /><ellipse
           style="fill:#414355"
           cx="676.625"
           cy="101.708"
           rx="0.792"
           ry="1.375"
           id="ellipse310" /><path
           style="fill:#414355"
           d="m 676.541,95.417 c -0.979,-2.056 -3.505,-2.817 -5.614,-3.305 -1.22,-0.282 -2.386,0.016 -3.562,0.316 -0.479,0.123 -1.071,0.332 -1.52,0.55 -1.862,0.905 -2.175,-0.417 -2.707,-1.425 -2.551,-4.83 -8.246,-9.641 -13.682,-10.652 -1.769,-0.329 -3.513,-0.085 -4.331,1.63 -0.814,1.704 0.717,4.249 1.533,5.67 1.329,2.317 3.681,3.977 5.806,5.502 1.242,0.893 2.585,1.574 4.005,2.128 1.149,0.449 2.392,0.455 3.573,0.779 -0.686,0.601 -1.614,0.981 -2.193,1.739 -0.88,1.151 -1.215,2.178 -1.234,3.62 -0.029,2.105 1.814,3.973 3.775,4.494 1.05,0.279 2.869,-1.055 3.705,-1.396 1.227,-0.5 2.237,-1.543 3.135,-2.478 2.349,-2.446 3.722,-6.529 7.704,-6.347 1.566,-0.034 1.884,-0.242 1.607,-0.825 z"
           id="path312"
           inkscape:connector-curvature="0" /></g><path
         style="fill:#858fa9"
         d="m 640.845,116.451 c -0.843,-1.332 -2.923,-0.744 -4.104,-0.411 -2.004,0.565 -4.573,1.316 -6.15,2.751 -1.593,1.451 -1.958,3.159 -2.101,5.241 -0.401,5.875 -0.206,11.629 0.654,17.458 0.155,1.05 0.221,3.246 1.037,4.041 0.43,0.418 1.198,0.205 1.739,0.172 2.945,-0.181 6.051,-0.281 8.913,-1.056 2.729,-0.739 -1.072,-2.925 -2.217,-3.152 -3.372,-0.668 -3.009,-2.618 -3.15,-5.227 -0.108,-1.986 -0.18,-3.975 -0.256,-5.963 -0.075,-1.97 0.053,-3.854 0.362,-5.812 0.524,-3.319 3.276,-2.753 5.928,-2.864 0.047,-0.002 0.07,-0.031 0.105,-0.046 0.239,0.097 0.535,0.03 0.597,-0.293 0.319,-1.681 -0.472,-3.44 -1.357,-4.839 z"
         id="path316"
         inkscape:connector-curvature="0" /><path
         style="fill:#ffa348"
         d="m 674.926,116.514 c -0.714,-4.417 -5.99,-8.129 -10.377,-8.847 -0.006,-0.004 -0.007,-0.01 -0.013,-0.014 -1.377,-1.047 -3.128,-1.255 -4.755,-1.733 -2.283,-0.67 -4.58,-1.259 -6.839,-2.012 -2.392,-0.798 -4.662,-1.891 -6.905,-3.028 -1.747,-0.886 -3.541,-1.993 -5.357,-2.697 -0.348,-0.134 -0.735,0.146 -0.83,0.472 -0.79,2.701 -1.308,5.23 -3.188,7.453 -2.082,2.461 -4.972,4.153 -7.582,5.958 -0.267,0.185 -0.341,0.545 -0.102,0.79 2.11,2.162 4.917,3.42 7.068,5.529 2.214,2.17 4.026,3.92 7.01,4.994 2.933,1.055 6.278,0.989 9.344,0.913 3.753,-0.093 7.562,-0.453 11.283,-0.938 3.423,-0.448 12.093,-1.581 11.243,-6.84 z"
         id="path318"
         inkscape:connector-curvature="0" /><g
         id="g324"><path
           style="fill:#2a9cc8"
           d="m 585,73 c -0.333,-1.307 -3.976,-4.389 -5.26,-5.045 -0.653,-0.334 -1.646,-0.292 -2.349,-0.431 -1.14,-0.224 -6.865,-1.097 -8.452,-0.596 -1.814,0.572 -3.314,3.072 -0.689,4.447 1.527,0.8 4.993,1.558 6.083,1.582 2.355,0.052 5.937,3.483 7.042,3.918 1.446,0.569 4.271,0.246 3.5,-1.25 10e-4,-0.024 0.132,-2.599 0.125,-2.625 z"
           id="path320"
           inkscape:connector-curvature="0" /><path
           style="fill:#2a9cc8"
           d="m 583.5,61.5 c 0.562,2.596 6.712,3.466 8.642,4.013 1.962,0.556 5.227,2.138 5.542,-1.18 0.178,-1.449 -1.056,-4.054 -3.059,-4.708 -6.5,-2.125 -11.822,-1.353 -11.125,1.875 z"
           id="path322"
           inkscape:connector-curvature="0" /></g><path
         style="fill:#414355"
         d="m 639.695,97.026 c -1.493,-3.516 -4.363,-6.757 -8.125,-7.767 -1.229,-0.33 -2.384,-0.229 -3.6,-0.791 -1.423,-0.658 -2.504,-2.174 -3.556,-3.283 -1.929,-2.035 -4.349,-3.54 -6.518,-5.297 -4.441,-3.601 -9.08,-6.872 -13.393,-10.646 -2.055,-1.799 -3.944,-3.778 -5.875,-5.708 -0.844,-0.844 -1.494,-1.136 -2.677,-0.566 -1.074,0.518 -2.752,1.49 -3.162,2.705 -0.531,1.575 1.603,3.514 2.351,4.806 1.425,2.462 3.039,4.782 4.563,7.181 0.652,1.028 1.371,1.958 2.144,2.9 0.699,0.853 1.753,1.803 2.358,2.857 -3.541,-2.032 -6.973,-4.306 -10.359,-6.574 -2.219,-1.485 -5.909,-5.935 -8.894,-5.189 -1.479,0.369 -2.938,2.848 -3.913,3.886 -0.469,0.499 -1.395,1.037 -1.168,1.861 0.341,1.239 2.609,2.551 3.517,3.378 1.766,1.608 3.727,3.011 5.558,4.545 3.718,3.115 6.694,6.962 9.739,10.711 2.72,3.35 5.977,5.952 9.78,7.982 1.834,0.979 3.854,1.514 5.8,2.218 2.554,0.925 5.065,1.977 7.556,3.06 2.226,0.968 5.546,3.037 8.178,2.824 0,0.007 0,0.011 0,0.019 4,-0.066 7.361,-0.838 9.594,-3.824 2.821,-3.772 1.814,-7.26 0.102,-11.288 z"
         id="path326"
         inkscape:connector-curvature="0" /><g
         id="g332"><g
           id="g330"><path
             style="fill:#2a9cc8"
             d="m 603.954,82.958 c 2.483,5.503 6.293,9.91 10.747,13.903 3.999,3.585 9.275,7.875 14.966,7.693 0.418,-0.013 0.55,-0.692 0.103,-0.76 -6.02,-0.908 -10.533,-4.116 -14.998,-8.1 -4.301,-3.837 -7.183,-8.266 -10.392,-12.984 -0.182,-0.267 -0.555,-0.04 -0.426,0.248 z"
             id="path328"
             inkscape:connector-curvature="0" /></g></g><path
         style="fill:#858fa9"
         d="m 655.838,113.167 c -2.072,0.199 -4.472,0.812 -5.799,2.528 -1.146,1.482 -1.091,3.821 -1.215,5.58 -0.236,3.346 0.194,6.679 0.424,10.011 0.185,2.673 0.215,5.244 0.581,7.908 0.217,1.575 0.444,3.347 2.156,3.792 1.479,0.384 3.3,-0.108 4.828,-0.114 0.667,-0.002 6.071,-0.508 3.247,-2.187 -1.563,-0.93 -4.338,-0.541 -4.587,-2.685 -0.352,-3.03 -0.063,-6.155 0.023,-9.197 0.047,-1.652 -1.018,-8.265 1.777,-8.198 2.552,0.061 4.776,1.395 7.388,0.395 0.001,0 0.002,0 0.004,0 0.004,0 0.008,0.169 0.013,0.168 0.012,-0.001 0.022,0.084 0.034,0.083 0.004,-0.001 0.006,0.038 0.01,0.036 0.09,-0.013 0.169,-0.04 0.251,-0.062 -0.115,-3.248 -0.985,-5.849 -3.193,-8.374 -2.18,-0.16 -4.598,0.187 -5.942,0.316 z"
         id="path334"
         inkscape:connector-curvature="0" /><g
         id="g338"><path
           style="fill:#414355"
           d="m 660.425,112.771 c 3.791,0.916 3.371,6.638 4.082,9.532 0.118,0.482 0.878,0.497 0.986,0 0.631,-2.879 -0.985,-10.5 -4.993,-10.084 -0.298,0.031 -0.404,0.472 -0.075,0.552 z"
           id="path336"
           inkscape:connector-curvature="0" /></g></g><g
       id="pointilles"><path
         style="fill:none;stroke:#858fa9;stroke-width:3;stroke-linecap:round;stroke-miterlimit:10;stroke-dasharray:0.05, 7"
         d="m 599.25,116 c -1.117,-0.08 -2.148,0.294 -3.232,0.501 -2.071,0.394 -4.148,0.731 -6.212,1.187 -4.647,1.028 -8.993,3.155 -13.111,5.487 -4.668,2.643 -9.03,6.123 -12.694,10.021 -1.925,2.047 -4.095,3.938 -5.763,6.231 -1.993,2.738 -3.416,6.054 -4.237,9.323"
         id="path342"
         inkscape:connector-curvature="0" /><path
         style="fill:none;stroke:#858fa9;stroke-width:3;stroke-linecap:round;stroke-miterlimit:10;stroke-dasharray:0.05, 7"
         d="m 468.333,176 c -0.622,1.002 -4.098,1.453 -5.243,1.758 -2.548,0.68 -5.186,1.227 -7.757,1.826 -2.555,0.595 -4.868,1.662 -7.333,2.499 -2.932,0.995 -5.941,2.11 -8.642,3.578 -5.461,2.969 -11.259,5.934 -16.276,9.666 -6.111,4.546 -12.279,9.195 -16.083,16.008"
         id="path344"
         inkscape:connector-curvature="0" /><path
         style="fill:none;stroke:#858fa9;stroke-width:3;stroke-linecap:round;stroke-miterlimit:10;stroke-dasharray:0.05, 7"
         d="m 466.667,195.667 c -1.72,-0.159 -3.961,0.808 -5.576,1.315 -2.474,0.778 -4.97,1.513 -7.426,2.335 -6.023,2.016 -11.718,5.352 -17.329,8.275 -4.855,2.529 -10.351,5.256 -14.329,9.066 -2.063,1.976 -4.376,3.538 -6.341,5.66 -2.1,2.269 -3.795,4.833 -6,7.016"
         id="path346"
         inkscape:connector-curvature="0" /><path
         style="fill:none;stroke:#858fa9;stroke-width:3;stroke-linecap:round;stroke-miterlimit:10;stroke-dasharray:0.05, 7"
         d="m 451.667,239 c 0.188,-0.001 0.377,0 0.565,0.001 -2.425,-0.038 -5.596,1.717 -7.8,2.658 -4.199,1.792 -8.194,3.897 -12.099,6.25 -3.238,1.952 -6.25,4.46 -9.102,6.937 -3.49,3.029 -6.37,6.623 -8.926,10.45 -2.112,3.162 -4.518,5.98 -6.306,9.372"
         id="path348"
         inkscape:connector-curvature="0" /><path
         style="fill:none;stroke:#858fa9;stroke-width:3;stroke-linecap:round;stroke-miterlimit:10;stroke-dasharray:0.05, 7"
         d="m 249.667,399.667 c -19.513,5.225 -34.97,21.427 -42.667,39.667"
         id="path350"
         inkscape:connector-curvature="0" /></g></g></svg>
