<?xml version="1.0" encoding="UTF-8" standalone="no"?>
<!-- Created with Inkscape (http://www.inkscape.org/) -->

<svg
   xmlns:dc="http://purl.org/dc/elements/1.1/"
   xmlns:cc="http://creativecommons.org/ns#"
   xmlns:rdf="http://www.w3.org/1999/02/22-rdf-syntax-ns#"
   xmlns:svg="http://www.w3.org/2000/svg"
   xmlns="http://www.w3.org/2000/svg"
   xmlns:sodipodi="http://sodipodi.sourceforge.net/DTD/sodipodi-0.dtd"
   xmlns:inkscape="http://www.inkscape.org/namespaces/inkscape"
   version="1.1"
   id="svg2"
   xml:space="preserve"
   width="666.66669"
   height="666.66669"
   viewBox="0 0 666.66669 666.66669"
   sodipodi:docname="emptyscreen_default2D.svg"
   inkscape:version="0.92.1 r15371"><metadata
     id="metadata8"><rdf:RDF><cc:Work
         rdf:about=""><dc:format>image/svg+xml</dc:format><dc:type
           rdf:resource="http://purl.org/dc/dcmitype/StillImage" /><dc:title></dc:title></cc:Work></rdf:RDF></metadata><defs
     id="defs6"><clipPath
       clipPathUnits="userSpaceOnUse"
       id="clipPath18"><path
         d="M 0,500 H 500 V 0 H 0 Z"
         id="path16"
         inkscape:connector-curvature="0" /></clipPath><clipPath
       clipPathUnits="userSpaceOnUse"
       id="clipPath26"><path
         d="M 53.6345,417.707 H 433 V 38.3418 H 53.6345 Z"
         id="path24"
         inkscape:connector-curvature="0" /></clipPath><clipPath
       clipPathUnits="userSpaceOnUse"
       id="clipPath46"><path
         d="M 129.633,349.639 H 359.088 V 100.243 H 129.633 Z"
         id="path44"
         inkscape:connector-curvature="0" /></clipPath><clipPath
       clipPathUnits="userSpaceOnUse"
       id="clipPath82"><path
         d="m 376.492,464.552 h 29.056 V 424.87 h -29.056 z"
         id="path80"
         inkscape:connector-curvature="0" /></clipPath><clipPath
       clipPathUnits="userSpaceOnUse"
       id="clipPath102"><path
         d="m 307.504,428.688 h 26.851 v -33.18 h -26.851 z"
         id="path100"
         inkscape:connector-curvature="0" /></clipPath><clipPath
       clipPathUnits="userSpaceOnUse"
       id="clipPath122"><path
         d="m 352.944,373.974 h 47.522 V 315.25 h -47.522 z"
         id="path120"
         inkscape:connector-curvature="0" /></clipPath></defs><sodipodi:namedview
     pagecolor="#ffffff"
     bordercolor="#666666"
     borderopacity="1"
     objecttolerance="10"
     gridtolerance="10"
     guidetolerance="10"
     inkscape:pageopacity="0"
     inkscape:pageshadow="2"
     inkscape:window-width="1920"
     inkscape:window-height="993"
     id="namedview4"
     showgrid="false"
     inkscape:zoom="0.70799998"
     inkscape:cx="185.38695"
     inkscape:cy="425.74632"
     inkscape:window-x="0"
     inkscape:window-y="0"
     inkscape:window-maximized="1"
     inkscape:current-layer="g60" /><g
     id="g10"
     inkscape:groupmode="layer"
     inkscape:label="empty_screen_par_defaut"
     transform="matrix(1.3333333,0,0,-1.3333333,0,666.66667)"><g
       id="g12"><g
         id="g14"
         clip-path="url(#clipPath18)"><g
           id="g20"><g
             id="g22" /><g
             id="g34"><g
               clip-path="url(#clipPath26)"
               id="g32"
               style="opacity:0.14999402"><g
                 transform="translate(433,228.0244)"
                 id="g30"><path
                   d="m 0,0 c 0,-104.759 -84.924,-189.683 -189.683,-189.683 -104.758,0 -189.682,84.924 -189.682,189.683 0,104.759 84.924,189.683 189.682,189.683 C -84.924,189.683 0,104.759 0,0"
                   style="fill:#192d38;fill-opacity:1;fill-rule:nonzero;stroke:none"
                   id="path28"
                   inkscape:connector-curvature="0" /></g></g></g></g><g
           id="g36"
           transform="translate(429.7578,237.752)"><path
             d="m 0,0 c 0,-104.759 -84.924,-189.683 -189.683,-189.683 -104.758,0 -189.683,84.924 -189.683,189.683 0,104.759 84.925,189.683 189.683,189.683 C -84.924,189.683 0,104.759 0,0"
             style="fill:#dcebfb;fill-opacity:1;fill-rule:nonzero;stroke:none"
             id="path38"
             inkscape:connector-curvature="0" /></g><g
           id="g40"><g
             id="g42" /><g
             id="g54"><g
               clip-path="url(#clipPath46)"
               id="g52"
               style="opacity:0.14999402"><g
                 transform="translate(259.6006,100.2432)"
                 id="g50"><path
                   d="m 0,0 -129.967,74.718 c 0,0 33.866,18.742 60.407,68.407 26.541,49.665 31.613,106.271 31.613,106.271 l 137.434,-66.34 c 0,0 -11.455,-57.419 -28.693,-93.131 C 53.557,54.214 0,0 0,0"
                   style="fill:#192d38;fill-opacity:1;fill-rule:nonzero;stroke:none"
                   id="path48"
                   inkscape:connector-curvature="0" /></g></g></g></g><g
           id="g56"
           transform="translate(256.3584,109.9707)"><path
             d="m 0,0 -129.968,74.718 c 0,0 33.866,18.742 60.407,68.407 26.541,49.665 31.614,106.27 31.614,106.27 l 137.434,-66.34 c 0,0 -11.455,-57.418 -28.693,-93.13 C 53.556,54.214 0,0 0,0"
             style="fill:#f1f1f1;fill-opacity:1;fill-rule:nonzero;stroke:none"
             id="path58"
             inkscape:connector-curvature="0" /></g><g
           id="g60"
           transform="translate(330.6621,266.1479)"><path
             d="m 0,0 c -7.659,-0.16 -11.463,12.35 -16.403,19.656 -7.237,10.701 -11.081,-0.005 -18.736,-1.186 -8.829,-1.364 -17.195,7.841 -23.933,15.898 -7.796,9.323 -10.952,10.713 -19.915,6.267 -8.949,-4.438 -15.581,0.718 -23.568,7.033"
             style="fill:none;stroke:#4bafd5;stroke-width:6.48500013;stroke-linecap:round;stroke-linejoin:round;stroke-miterlimit:10;stroke-dasharray:none;stroke-opacity:1"
             id="path62"
             inkscape:connector-curvature="0" /></g><g
           id="g64"
           transform="translate(315.5303,233.7461)"
           style="stroke:#4bafd5;stroke-opacity:1"><path
             d="m 0,0 c -7.625,9.1 -17.09,9.79 -26.556,10.479 -13.448,-1.727 -24.021,9.875 -34.398,24.169 -10.573,11.601 -21.413,-6.562 -32.575,-3.041 -3.786,0.276 -5.286,5.801 -7.843,7.423"
             style="fill:none;stroke:#4bafd5;stroke-width:6.48500013;stroke-linecap:round;stroke-linejoin:round;stroke-miterlimit:10;stroke-dasharray:none;stroke-opacity:1"
             id="path66"
             inkscape:connector-curvature="0" /></g><g
           id="g68"
           transform="translate(290.6582,194.2656)"
           style="stroke:#4bafd5;stroke-opacity:1"><path
             d="m 0,0 c 4.82,2.362 6.335,20.055 -16.336,21.335 -22.671,1.281 -37.102,18.877 -43.797,21.875 -6.694,2.998 -8.482,-0.372 -14.951,-1.162 -4.453,-1.208 -10.073,2.09 -14.258,4.227"
             style="fill:none;stroke:#4bafd5;stroke-width:6.48500013;stroke-linecap:round;stroke-linejoin:round;stroke-miterlimit:10;stroke-dasharray:none;stroke-opacity:1"
             id="path70"
             inkscape:connector-curvature="0" /></g><g
           id="g72"
           transform="translate(281.2217,171.8018)"
           style="stroke:#4bafd5;stroke-opacity:1"><path
             d="m 0,0 c -5.48,5.353 -16.81,-1.176 -25.41,-3.13 -12.596,-2.862 -8.083,7.579 -12.861,13.675 -5.511,7.031 -17.91,6.034 -28.335,4.76 -12.064,-1.474 -15.318,-0.329 -18.819,9.042 -3.496,9.356 -11.861,10.129 -22.009,10.98"
             style="fill:none;stroke:#4bafd5;stroke-width:6.48500013;stroke-linecap:round;stroke-linejoin:round;stroke-miterlimit:10;stroke-dasharray:none;stroke-opacity:1"
             id="path74"
             inkscape:connector-curvature="0" /></g><g
           id="g76"><g
             id="g78" /><g
             id="g90"><g
               clip-path="url(#clipPath82)"
               id="g88"
               style="opacity:0.14999402"><g
                 transform="translate(377.5957,460.4868)"
                 id="g86"><path
                   d="m 0,0 c -0.398,0.406 -0.582,0.947 -0.551,1.626 -0.031,0.711 0.176,1.296 0.62,1.753 0.444,0.457 1.019,0.686 1.725,0.686 h 23.722 c 0.735,0 1.324,-0.264 1.77,-0.788 0.443,-0.525 0.666,-1.144 0.666,-1.854 0,-0.542 -0.169,-1.051 -0.506,-1.525 L 4.873,-30.942 h 20.643 c 0.673,0 1.233,-0.229 1.676,-0.686 0.444,-0.458 0.667,-0.991 0.667,-1.601 0,-0.746 -0.214,-1.33 -0.642,-1.752 -0.43,-0.425 -0.996,-0.636 -1.701,-0.636 H 1.241 c -0.704,0 -1.272,0.271 -1.7,0.813 -0.431,0.541 -0.645,1.169 -0.645,1.88 0,0.609 0.155,1.134 0.461,1.575 L 21.838,-0.61 H 1.701 C 0.965,-0.61 0.398,-0.407 0,0"
                   style="fill:#192d38;fill-opacity:1;fill-rule:nonzero;stroke:none"
                   id="path84"
                   inkscape:connector-curvature="0" /></g></g></g></g><g
           id="g92"
           transform="translate(376.2129,461.5674)"
           style="fill:#4bafd5;fill-opacity:1"><path
             d="m 0,0 c -0.399,0.407 -0.582,0.948 -0.551,1.626 -0.031,0.711 0.176,1.296 0.62,1.753 0.444,0.457 1.019,0.686 1.725,0.686 h 23.722 c 0.735,0 1.324,-0.263 1.769,-0.788 0.444,-0.525 0.667,-1.143 0.667,-1.854 0,-0.542 -0.169,-1.05 -0.506,-1.525 L 4.873,-30.942 h 20.643 c 0.673,0 1.233,-0.229 1.676,-0.686 0.444,-0.457 0.666,-0.991 0.666,-1.601 0,-0.746 -0.213,-1.33 -0.641,-1.752 -0.431,-0.425 -0.997,-0.636 -1.701,-0.636 H 1.241 c -0.704,0 -1.272,0.271 -1.7,0.813 -0.431,0.541 -0.645,1.169 -0.645,1.88 0,0.61 0.154,1.134 0.461,1.575 l 22.481,30.74 H 1.701 C 0.965,-0.609 0.398,-0.406 0,0"
             style="fill:#4bafd5;fill-opacity:1;fill-rule:nonzero;stroke:none"
             id="path94"
             inkscape:connector-curvature="0" /></g><g
           id="g96"><g
             id="g98" /><g
             id="g110"><g
               clip-path="url(#clipPath102)"
               id="g108"
               style="opacity:0.14999402"><g
                 transform="translate(308.5234,425.2891)"
                 id="g106"><path
                   d="m 0,0 c -0.368,0.34 -0.538,0.792 -0.509,1.36 -0.029,0.594 0.162,1.083 0.572,1.465 0.411,0.383 0.942,0.574 1.595,0.574 H 23.58 c 0.68,0 1.224,-0.22 1.636,-0.659 0.41,-0.439 0.615,-0.956 0.615,-1.55 0,-0.453 -0.156,-0.878 -0.467,-1.275 L 4.503,-25.873 H 23.58 c 0.622,0 1.139,-0.191 1.549,-0.573 0.41,-0.383 0.616,-0.828 0.616,-1.338 0,-0.624 -0.198,-1.112 -0.594,-1.466 -0.397,-0.355 -0.921,-0.531 -1.571,-0.531 H 1.147 c -0.651,0 -1.175,0.226 -1.572,0.679 -0.397,0.453 -0.595,0.978 -0.595,1.572 0,0.51 0.142,0.949 0.426,1.318 L 20.181,-0.51 H 1.571 C 0.892,-0.51 0.368,-0.34 0,0"
                   style="fill:#192d38;fill-opacity:1;fill-rule:nonzero;stroke:none"
                   id="path104"
                   inkscape:connector-curvature="0" /></g></g></g></g><g
           id="g112"
           transform="translate(307.2451,426.1929)"
           style="fill:#4bafd5;fill-opacity:1"><path
             d="m 0,0 c -0.368,0.34 -0.537,0.792 -0.509,1.36 -0.028,0.594 0.163,1.083 0.573,1.465 0.411,0.383 0.942,0.574 1.594,0.574 H 23.58 c 0.68,0 1.224,-0.22 1.636,-0.659 0.41,-0.439 0.616,-0.956 0.616,-1.55 0,-0.454 -0.156,-0.879 -0.468,-1.275 L 4.503,-25.873 H 23.58 c 0.622,0 1.14,-0.191 1.55,-0.573 0.41,-0.383 0.615,-0.828 0.615,-1.338 0,-0.624 -0.197,-1.112 -0.593,-1.466 -0.397,-0.355 -0.921,-0.531 -1.572,-0.531 H 1.147 c -0.65,0 -1.175,0.226 -1.571,0.679 -0.397,0.453 -0.596,0.977 -0.596,1.572 0,0.51 0.143,0.949 0.426,1.318 L 20.182,-0.51 H 1.572 C 0.893,-0.51 0.369,-0.34 0,0"
             style="fill:#4bafd5;fill-opacity:1;fill-rule:nonzero;stroke:none"
             id="path114"
             inkscape:connector-curvature="0" /></g><g
           id="g116"><g
             id="g118" /><g
             id="g130"><g
               clip-path="url(#clipPath122)"
               id="g128"
               style="opacity:0.14999402"><g
                 transform="translate(354.748,367.9585)"
                 id="g126"><path
                   d="M 0,0 C -0.652,0.602 -0.951,1.402 -0.9,2.406 -0.951,3.458 -0.612,4.324 0.113,5 0.839,5.676 1.779,6.015 2.935,6.015 h 38.798 c 1.204,0 2.166,-0.39 2.895,-1.166 0.726,-0.777 1.09,-1.692 1.09,-2.744 0,-0.802 -0.277,-1.554 -0.827,-2.256 L 7.97,-45.791 h 33.763 c 1.101,0 2.016,-0.339 2.743,-1.016 0.725,-0.676 1.089,-1.465 1.089,-2.367 0,-1.105 -0.35,-1.969 -1.05,-2.595 -0.703,-0.628 -1.629,-0.94 -2.782,-0.94 H 2.031 c -1.152,0 -2.082,0.401 -2.782,1.203 -0.703,0.801 -1.054,1.73 -1.054,2.782 0,0.902 0.252,1.679 0.755,2.331 L 35.718,-0.902 H 2.782 C 1.579,-0.902 0.652,-0.602 0,0"
                   style="fill:#192d38;fill-opacity:1;fill-rule:nonzero;stroke:none"
                   id="path124"
                   inkscape:connector-curvature="0" /></g></g></g></g><g
           id="g132"
           transform="translate(352.4863,369.5576)"><path
             d="M 0,0 C -0.652,0.602 -0.951,1.402 -0.9,2.406 -0.951,3.458 -0.612,4.324 0.113,5 0.839,5.677 1.779,6.016 2.935,6.016 h 38.797 c 1.204,0 2.167,-0.39 2.896,-1.167 0.726,-0.776 1.09,-1.691 1.09,-2.744 0,-0.801 -0.277,-1.554 -0.827,-2.256 L 7.97,-45.791 h 33.762 c 1.102,0 2.017,-0.339 2.744,-1.015 0.725,-0.676 1.089,-1.466 1.089,-2.368 0,-1.104 -0.35,-1.969 -1.05,-2.594 -0.703,-0.628 -1.63,-0.94 -2.783,-0.94 H 2.031 c -1.152,0 -2.082,0.4 -2.782,1.203 -0.703,0.8 -1.054,1.729 -1.054,2.781 0,0.903 0.252,1.679 0.754,2.331 L 35.718,-0.902 H 2.782 C 1.579,-0.902 0.652,-0.602 0,0"
             style="fill:#4bafd5;fill-opacity:1;fill-rule:nonzero;stroke:none"
             id="path134"
             inkscape:connector-curvature="0" /></g></g></g></g></svg>