<svg width="48" height="48" viewBox="0 0 48 48" fill="none" xmlns="http://www.w3.org/2000/svg">
<path fill-rule="evenodd" clip-rule="evenodd" d="M13 10C12.4477 10 12 10.4477 12 11V41C12 41.5523 12.4477 42 13 42H37C37.5523 42 38 41.5523 38 41V25C38 23.8954 38.8954 23 40 23C41.1046 23 42 23.8954 42 25V41C42 43.7614 39.7614 46 37 46H13C10.2386 46 8 43.7614 8 41V11C8 8.23857 10.2386 6 13 6H23C24.1046 6 25 6.89543 25 8C25 9.10457 24.1046 10 23 10H13Z" fill="#2A9CC8"/>
<path fill-rule="evenodd" clip-rule="evenodd" d="M16 18C16 16.8954 16.8954 16 18 16L24 16C25.1046 16 26 16.8954 26 18C26 19.1046 25.1046 20 24 20H18C16.8954 20 16 19.1046 16 18Z" fill="#2A9CC8"/>
<path fill-rule="evenodd" clip-rule="evenodd" d="M16 26C16 24.8954 16.8954 24 18 24H32C33.1046 24 34 24.8954 34 26C34 27.1046 33.1046 28 32 28H18C16.8954 28 16 27.1046 16 26Z" fill="#2A9CC8"/>
<path fill-rule="evenodd" clip-rule="evenodd" d="M16 34C16 32.8954 16.8954 32 18 32H32C33.1046 32 34 32.8954 34 34C34 35.1046 33.1046 36 32 36H18C16.8954 36 16 35.1046 16 34Z" fill="#2A9CC8"/>
<path d="M37.1689 21.2226L37.7839 19.8087C38.8641 17.307 40.8434 15.3007 43.3314 14.1856L45.2314 13.3413C45.4609 13.2352 45.6553 13.0657 45.7914 12.8527C45.9276 12.6398 46 12.3924 46 12.1397C46 11.8871 45.9276 11.6396 45.7914 11.4267C45.6553 11.2138 45.4609 11.0443 45.2314 10.9382L43.4364 10.1388C40.8859 8.99204 38.8726 6.91154 37.8114 4.32588L37.1789 2.80207C37.086 2.56564 36.9239 2.36266 36.7139 2.21959C36.5039 2.07652 36.2556 2 36.0014 2C35.7472 2 35.4988 2.07652 35.2888 2.21959C35.0788 2.36266 34.9167 2.56564 34.8238 2.80207L34.1913 4.32837C33.129 6.91355 31.1148 8.99316 28.5638 10.1388L26.7713 10.9357C26.5411 11.0415 26.3461 11.211 26.2094 11.4242C26.0727 11.6374 26 11.8853 26 12.1385C26 12.3917 26.0727 12.6396 26.2094 12.8528C26.3461 13.0659 26.5411 13.2355 26.7713 13.3413L28.6688 14.1881C31.1573 15.3021 33.1375 17.3075 34.2188 19.8087L34.8338 21.2226C34.93 21.4528 35.0921 21.6495 35.2999 21.7878C35.5076 21.9262 35.7517 22 36.0014 22C36.251 22 36.4951 21.9262 36.7028 21.7878C36.9106 21.6495 37.0727 21.4528 37.1689 21.2226Z" fill="#ECBE30"/>
</svg>
