<svg xmlns="http://www.w3.org/2000/svg" xmlns:xlink="http://www.w3.org/1999/xlink">
    <symbol id="send" viewBox="0 0 20 20">
        <title>Send</title>
        <path fill-rule="evenodd" clip-rule="evenodd" d="M17.457 3.508a.758.758 0 0 0-.985-.959L1.34 7.846a.758.758 0 0 0-.057 1.407l6.552 2.912 2.912 6.552a.757.757 0 0 0 1.407-.058l5.303-15.151Zm-9.216 7.18L3.644 8.643 13.86 5.07 8.24 10.687Zm1.071 1.07 2.043 4.597L14.93 6.14 9.313 11.76Z" fill="#fff"/>
    </symbol>
    <symbol id="eye" viewBox="0 0 20 20">
        <title>Eye</title>
        <path fill-rule="evenodd" clip-rule="evenodd" d="M1.784 10a15.568 15.568 0 0 0 2.053 2.763c1.493 1.592 3.58 3.07 6.163 3.07 2.584 0 4.67-1.478 6.163-3.07A15.573 15.573 0 0 0 18.216 10a15.568 15.568 0 0 0-2.053-2.763c-1.493-1.592-3.58-3.07-6.163-3.07-2.584 0-4.67 1.478-6.163 3.07A15.562 15.562 0 0 0 1.784 10Zm17.383 0 .745-.373-.002-.003-.003-.006-.009-.018a7.37 7.37 0 0 0-.16-.295 17.232 17.232 0 0 0-2.36-3.208C15.747 4.355 13.25 2.5 10 2.5S4.254 4.355 2.621 6.097a17.229 17.229 0 0 0-2.36 3.208 10.279 10.279 0 0 0-.16.295l-.009.018-.002.006-.001.002s-.001.001.744.374l-.745-.373a.833.833 0 0 0 0 .746L.833 10l-.745.373.002.003.002.006.01.018.034.065c.029.054.07.132.126.23a17.232 17.232 0 0 0 2.36 3.208C4.253 15.645 6.75 17.5 10 17.5s5.746-1.855 7.379-3.597a17.235 17.235 0 0 0 2.36-3.208 10.522 10.522 0 0 0 .16-.295l.008-.018.003-.006.001-.002s.001-.001-.744-.374Zm0 0 .745.373a.835.835 0 0 0 0-.746l-.745.373Z" fill="#FF8D2E"/><path fill-rule="evenodd" clip-rule="evenodd" d="M10 8.334a1.667 1.667 0 1 0 0 3.333 1.667 1.667 0 0 0 0-3.333ZM6.667 10a3.333 3.333 0 1 1 6.667 0 3.333 3.333 0 0 1-6.667 0Z" fill="#FF8D2E"/>
    </symbol>
    <symbol id="text" viewBox="0 0 20 20">
        <title>Text</title>
        <path fill-rule="evenodd" clip-rule="evenodd" d="M5.238 2.5a1.1 1.1 0 0 0-.766.306.993.993 0 0 0-.305.712v12.963c0 .263.107.52.305.712.2.194.474.307.766.307h9.524a1.1 1.1 0 0 0 .766-.307.993.993 0 0 0 .305-.712V6.666h-2.5A1.667 1.667 0 0 1 11.667 5V2.5H5.238ZM13.333 5h1.655l-1.655-1.6V5ZM17.5 16.48V5.463a.833.833 0 0 0-.254-.6l-3.929-3.796a.833.833 0 0 0-.579-.234h-7.5c-.719 0-1.412.277-1.928.778a2.66 2.66 0 0 0-.81 1.907v12.963c0 .72.294 1.405.81 1.907.516.501 1.21.778 1.928.778h9.524c.719 0 1.412-.277 1.928-.778a2.66 2.66 0 0 0 .81-1.907ZM6.667 5a.833.833 0 0 0 0 1.666h2.5a.833.833 0 0 0 0-1.666h-2.5Zm-.834 5c0-.46.373-.834.834-.834h6.666a.833.833 0 1 1 0 1.667H6.667A.833.833 0 0 1 5.833 10ZM10 13.333A.833.833 0 1 0 10 15h3.333a.833.833 0 1 0 0-1.667H10Z" fill="#fff"/>
    </symbol>
    <symbol id="plus" viewBox="0 0 20 20">
        <title>Plus</title>
        <path fill-rule="evenodd" clip-rule="evenodd" d="M10.833 3.333a.833.833 0 0 0-1.666 0v5.834H3.333a.833.833 0 0 0 0 1.666h5.834v5.834a.833.833 0 0 0 1.666 0v-5.834h5.834a.833.833 0 0 0 0-1.666h-5.834V3.333Z"/>
    </symbol>
    <symbol id="close" viewBox="0 0 24 24">
        <title>Close</title>
        <path fill-rule="evenodd" clip-rule="evenodd" d="M4.222 4.222a1.1 1.1 0 0 1 1.556 0l14 14a1.1 1.1 0 1 1-1.556 1.556l-14-14a1.1 1.1 0 0 1 0-1.556Z"/><path fill-rule="evenodd" clip-rule="evenodd" d="M19.778 4.222a1.1 1.1 0 0 1 0 1.556l-14 14a1.1 1.1 0 1 1-1.556-1.556l14-14a1.1 1.1 0 0 1 1.556 0Z"/>
    </symbol>
    <symbol id="info" viewBox="0 0 24 24">
        <title>Info</title>
        <path fill-rule="evenodd" clip-rule="evenodd" d="M12 3a9 9 0 1 0 0 18 9 9 0 0 0 0-18ZM1 12C1 5.925 5.925 1 12 1s11 4.925 11 11-4.925 11-11 11S1 18.075 1 12Z" /><path fill-rule="evenodd" clip-rule="evenodd" d="M12.01 17a1 1 0 0 1-1-1v-5a1 1 0 1 1 2 0v5a1 1 0 0 1-1 1ZM13.01 7.5a1 1 0 0 1-1 1H12a1 1 0 1 1 0-2h.01a1 1 0 0 1 1 1Z" />
    </symbol>
    <symbol id="error" viewBox="0 0 24 24">
        <title>Error</title>
        <path fill-rule="evenodd" clip-rule="evenodd" d="M3 12a9 9 0 1 1 18 0 9 9 0 0 1-18 0Zm9-11C5.925 1 1 5.925 1 12s4.925 11 11 11 11-4.925 11-11S18.075 1 12 1ZM8.293 15.707a1 1 0 0 1 0-1.414L10.586 12 8.293 9.707a1 1 0 0 1 1.414-1.414L12 10.586l2.293-2.293a1 1 0 1 1 1.414 1.414L13.414 12l2.293 2.293a1 1 0 0 1-1.414 1.414L12 13.414l-2.293 2.293a1 1 0 0 1-1.414 0Z"/>
    </symbol>
    <symbol id="warning" viewBox="0 0 24 24">
        <title>Warning</title>
        <path fill-rule="evenodd" clip-rule="evenodd" d="M12 3a9 9 0 1 0 0 18 9 9 0 0 0 0-18ZM1 12C1 5.925 5.925 1 12 1s11 4.925 11 11-4.925 11-11 11S1 18.075 1 12Z"/><path fill-rule="evenodd" clip-rule="evenodd" d="M12 6a1 1 0 0 1 1 1v5a1 1 0 1 1-2 0V7a1 1 0 0 1 1-1ZM11 16a1 1 0 0 1 1-1h.01a1 1 0 1 1 0 2H12a1 1 0 0 1-1-1Z"/>
    </symbol>
    <symbol id="success" viewBox="0 0 24 24">
        <title>Success</title>
        <path fill-rule="evenodd" clip-rule="evenodd" d="M12 3a9 9 0 1 0 0 18 9 9 0 0 0 0-18ZM1 12C1 5.925 5.925 1 12 1s11 4.925 11 11-4.925 11-11 11S1 18.075 1 12Z"/><path fill-rule="evenodd" clip-rule="evenodd" d="M16.59 8.192a1 1 0 0 1 .218 1.397l-4.375 6a1 1 0 0 1-1.584.041L8.224 12.4a1 1 0 1 1 1.552-1.261l1.806 2.222 3.61-4.95a1 1 0 0 1 1.397-.22Z"/>
    </symbol>
    <symbol id="alert" viewBox="0 0 24 24">
        <title>Alert</title>
        <path fill-rule="evenodd" clip-rule="evenodd" d="M12 8a1 1 0 0 1 1 1v5a1 1 0 1 1-2 0V9a1 1 0 0 1 1-1ZM11 17.5a1 1 0 0 1 1-1h.01a1 1 0 1 1 0 2H12a1 1 0 0 1-1-1Z"/><path fill-rule="evenodd" clip-rule="evenodd" d="M10.248 2.111c.76-1.381 2.745-1.381 3.505 0l9.308 16.925C23.794 20.37 22.83 22 21.31 22H2.69C1.171 22 .206 20.37.94 19.036l9.309-16.925Zm11.06 17.89L12 3.074 2.691 20H21.31Z"/>
    </symbol>
    <symbol id="copy" viewBox="0 0 24 24">
        <title>Copy</title>
        <path fill-rule="evenodd" clip-rule="evenodd" d="M6.676 3c.284-.672.853-1 1.263-1h11.423c.566 0 1.438.628 1.438 1.923v13.154c0 1.056-.58 1.668-1.1 1.858V6.923C19.7 4.99 18.3 3 16.061 3H6.676Zm-2.272.007C4.765 1.41 6.056 0 7.939 0h11.423C21.599 0 23 1.99 23 3.923v13.154c0 1.865-1.303 3.782-3.403 3.916C19.235 22.59 17.944 24 16.06 24H4.638C2.401 24 1 22.01 1 20.077V6.923c0-1.865 1.303-3.782 3.404-3.916ZM3.2 6.923C3.2 5.628 4.072 5 4.638 5h11.423c.567 0 1.439.628 1.439 1.923v13.154c0 1.295-.872 1.923-1.439 1.923H4.638c-.566 0-1.438-.628-1.438-1.923V6.923Z"/>
    </symbol>
    <symbol id="delete" viewBox="0 0 24 24">
        <title>Delete</title>
        <path fill-rule="evenodd" clip-rule="evenodd" d="M9.461 3.689a.955.955 0 0 1 .675-.28h3.819a.955.955 0 0 1 .954.955v.954H9.182v-.954c0-.254.1-.496.28-.675Zm7.357.675v.954H20.636a.955.955 0 0 1 0 1.91h-.954v12.408a2.864 2.864 0 0 1-2.864 2.864H7.273a2.864 2.864 0 0 1-2.864-2.864V7.227h-.954a.955.955 0 1 1 0-1.909H7.273v-.954A2.864 2.864 0 0 1 10.136 1.5h3.819a2.864 2.864 0 0 1 2.863 2.864Zm-10.5 2.863v12.41a.954.954 0 0 0 .955.954h9.545a.955.955 0 0 0 .955-.955V7.227H6.318Zm3.818 2.864c.528 0 .955.427.955.955v5.727a.955.955 0 1 1-1.91 0v-5.727c0-.528.428-.955.955-.955Zm4.773 6.682v-5.727a.955.955 0 0 0-1.909 0v5.727a.955.955 0 1 0 1.91 0Z"/>
    </symbol>
    <symbol id="help" viewBox="0 0 24 24">
        <title>Question</title>
        <g>
            <path fill-rule="evenodd" clip-rule="evenodd" d="M12 3a9 9 0 1 0 0 18 9 9 0 0 0 0-18ZM1 12C1 5.925 5.925 1 12 1s11 4.925 11 11-4.925 11-11 11S1 18.075 1 12Z" fill="#4A4A4A"/>
            <path fill-rule="evenodd" clip-rule="evenodd" d="M11.031 8.427c-.184.242-.281.61-.281 1.017a1 1 0 1 1-2 0c0-.662.148-1.516.69-2.228C10.017 6.456 10.935 6 12.165 6c1.416 0 2.32.74 2.757 1.658.391.822.408 1.785.18 2.428-.28.784-.819 1.407-1.2 1.848l-.159.185c-.431.513-.578.79-.578 1.094v1.12a1 1 0 0 1-2 0v-1.12c0-1.087.605-1.854 1.048-2.381l.199-.235c.393-.461.66-.776.805-1.183.044-.124.07-.536-.101-.897a.849.849 0 0 0-.3-.358c-.12-.08-.319-.159-.651-.159-.695 0-.985.231-1.133.427Z" fill="#4A4A4A"/>
            <path d="M13.325 17.167a1 1 0 1 1-2 0 1 1 0 0 1 2 0Z" fill="#4A4A4A"/>
        </g>
    </symbol>
    <symbol id="trash" viewBox="0 0 20 20">
        <title>Trash</title>
        <path fill-rule="evenodd" clip-rule="evenodd" d="M7.884 3.074a.795.795 0 0 1 .563-.233h3.182a.795.795 0 0 1 .795.795v.796H7.65v-.796c0-.21.084-.413.233-.562Zm6.13.562v.796h3.183a.795.795 0 1 1 0 1.59H16.4v10.342a2.386 2.386 0 0 1-2.386 2.386H6.06a2.386 2.386 0 0 1-2.386-2.386V6.023h-.796a.795.795 0 0 1 0-1.591H6.06v-.796A2.386 2.386 0 0 1 8.447 1.25h3.182a2.386 2.386 0 0 1 2.386 2.386Zm-8.75 2.387v10.34a.795.795 0 0 0 .796.796h7.955a.795.795 0 0 0 .795-.795V6.023H5.265Zm3.183 2.386c.439 0 .795.356.795.796v4.772a.795.795 0 0 1-1.59 0V9.205c0-.44.355-.796.795-.796Zm3.977.796a.795.795 0 1 0-1.591 0v4.772a.795.795 0 0 0 1.59 0V9.205Z" fill="var(--color,#2A9CC8)"/>
    </symbol>
    <symbol id="edit" viewBox="0 0 20 20">
        <g>
            <path fill-rule="evenodd" clip-rule="evenodd" d="M1.565 3.232A2.5 2.5 0 0 1 3.333 2.5h5.833a.833.833 0 0 1 0 1.667H3.333A.833.833 0 0 0 2.5 5v11.667a.833.833 0 0 0 .833.833H15a.833.833 0 0 0 .833-.833v-5.834a.833.833 0 0 1 1.667 0v5.834a2.5 2.5 0 0 1-2.5 2.5H3.333a2.5 2.5 0 0 1-2.5-2.5V5a2.5 2.5 0 0 1 .732-1.768Z" />
            <path fill-rule="evenodd" clip-rule="evenodd" d="M16.666 2.399a.935.935 0 0 0-.66.274l-7.754 7.753-.44 1.762 1.762-.44 7.753-7.754a.935.935 0 0 0-.66-1.595Zm-1.839-.905a2.601 2.601 0 0 1 3.679 3.679l-7.917 7.916a.834.834 0 0 1-.387.22l-3.334.833a.833.833 0 0 1-1.01-1.01l.833-3.334a.833.833 0 0 1 .22-.387l7.916-7.917Z" />
        </g>
    </symbol>
    <symbol id="depositeInbox" viewBox="0 0 48 48">
        <title>Deposite Inbox</title>
        <g>
            <path fill-rule="evenodd" clip-rule="evenodd" d="M2.5 24a2 2 0 0 1 2-2h12a2 2 0 0 1 1.664.89L21.57 28h5.86l3.406-5.11A2 2 0 0 1 32.5 22h12a2 2 0 1 1 0 4H33.57l-3.406 5.11A2 2 0 0 1 28.5 32h-8a2 2 0 0 1-1.664-.89L15.43 26H4.5a2 2 0 0 1-2-2Z" fill="#2A9CC8"/>
            <path fill-rule="evenodd" clip-rule="evenodd" d="M24.5 2a2 2 0 0 1 2 2v12.403l2.625-2.486a2 2 0 0 1 2.75 2.903l-6 5.684a2 2 0 0 1-2.75 0l-6-5.684a2 2 0 1 1 2.75-2.904l2.625 2.487V4a2 2 0 0 1 2-2Zm-9.52 5.684h1.52a2 2 0 1 1 0 4h-1.519a2.17 2.17 0 0 0-1.094.294c-.32.188-.563.448-.716.738l-.003.006L6.5 25.338v10.873c0 .438.183.882.547 1.227.368.349.889.562 1.453.562h32c.564 0 1.085-.213 1.453-.562.364-.345.547-.789.547-1.227V25.338l-6.668-12.616-.003-.006a1.872 1.872 0 0 0-.716-.738c-.32-.189-.7-.293-1.093-.294H32.5a2 2 0 1 1 0-4h1.52a6.17 6.17 0 0 1 3.119.845 5.873 5.873 0 0 1 2.23 2.326l.002.003 6.897 13.05a2 2 0 0 1 .232.934v11.369a5.69 5.69 0 0 1-1.796 4.131A6.115 6.115 0 0 1 40.5 42h-32a6.115 6.115 0 0 1-4.204-1.658A5.691 5.691 0 0 1 2.5 36.211V24.842a2 2 0 0 1 .232-.934l6.897-13.05s0-.002.002-.003a5.873 5.873 0 0 1 2.23-2.326 6.17 6.17 0 0 1 3.119-.845Z" fill="#2A9CC8"/>
        </g>
    </symbol>
    <symbol id="checklist" viewBox="0 0 48 48">
        <path fill-rule="evenodd" clip-rule="evenodd" d="M12.5 6a2 2 0 0 0-2 2v32a2 2 0 0 0 2 2h24a2 2 0 0 0 2-2V8a2 2 0 0 0-2-2h-24Zm-6 2a6 6 0 0 1 6-6h24a6 6 0 0 1 6 6v32a6 6 0 0 1-6 6h-24a6 6 0 0 1-6-6V8Z" fill="#2A9CC8"/>
        <path d="M18.5 16a2 2 0 1 1-4 0 2 2 0 0 1 4 0ZM18.5 25a2 2 0 1 1-4 0 2 2 0 0 1 4 0ZM18.5 34a2 2 0 1 1-4 0 2 2 0 0 1 4 0ZM22.5 16a2 2 0 0 1 2-2h8a2 2 0 1 1 0 4h-8a2 2 0 0 1-2-2ZM22.5 25a2 2 0 0 1 2-2h8a2 2 0 1 1 0 4h-8a2 2 0 0 1-2-2ZM22.5 34a2 2 0 0 1 2-2h8a2 2 0 1 1 0 4h-8a2 2 0 0 1-2-2Z" fill="#2A9CC8"/>
    </symbol>
    <symbol id="arrow-right" viewBox="0 0 20 20">
        <path fill-rule="evenodd" clip-rule="evenodd" d="M3.833 10c0-.46.373-.833.834-.833h11.666a.833.833 0 1 1 0 1.666H4.667A.833.833 0 0 1 3.833 10Z" />
        <path fill-rule="evenodd" clip-rule="evenodd" d="M9.91 3.577a.833.833 0 0 1 1.18 0l5.833 5.834a.833.833 0 0 1 0 1.178l-5.834 5.834a.833.833 0 0 1-1.178-1.179L15.155 10 9.91 4.756a.833.833 0 0 1 0-1.179Z" />
    </symbol>
    
</svg>