<svg xmlns="http://www.w3.org/2000/svg" xmlns:xlink="http://www.w3.org/1999/xlink">
    <symbol id="send" viewBox="0 0 20 20">
        <title>Send</title>
        <path fill-rule="evenodd" clip-rule="evenodd" d="M17.457 3.508a.758.758 0 0 0-.985-.959L1.34 7.846a.758.758 0 0 0-.057 1.407l6.552 2.912 2.912 6.552a.757.757 0 0 0 1.407-.058l5.303-15.151Zm-9.216 7.18L3.644 8.643 13.86 5.07 8.24 10.687Zm1.071 1.07 2.043 4.597L14.93 6.14 9.313 11.76Z" fill="#fff"/>
    </symbol>
    <symbol id="eye" viewBox="0 0 20 20">
        <title>Eye</title>
        <path fill-rule="evenodd" clip-rule="evenodd" d="M1.784 10a15.568 15.568 0 0 0 2.053 2.763c1.493 1.592 3.58 3.07 6.163 3.07 2.584 0 4.67-1.478 6.163-3.07A15.573 15.573 0 0 0 18.216 10a15.568 15.568 0 0 0-2.053-2.763c-1.493-1.592-3.58-3.07-6.163-3.07-2.584 0-4.67 1.478-6.163 3.07A15.562 15.562 0 0 0 1.784 10Zm17.383 0 .745-.373-.002-.003-.003-.006-.009-.018a7.37 7.37 0 0 0-.16-.295 17.232 17.232 0 0 0-2.36-3.208C15.747 4.355 13.25 2.5 10 2.5S4.254 4.355 2.621 6.097a17.229 17.229 0 0 0-2.36 3.208 10.279 10.279 0 0 0-.16.295l-.009.018-.002.006-.001.002s-.001.001.744.374l-.745-.373a.833.833 0 0 0 0 .746L.833 10l-.745.373.002.003.002.006.01.018.034.065c.029.054.07.132.126.23a17.232 17.232 0 0 0 2.36 3.208C4.253 15.645 6.75 17.5 10 17.5s5.746-1.855 7.379-3.597a17.235 17.235 0 0 0 2.36-3.208 10.522 10.522 0 0 0 .16-.295l.008-.018.003-.006.001-.002s.001-.001-.744-.374Zm0 0 .745.373a.835.835 0 0 0 0-.746l-.745.373Z" fill="#FF8D2E"/><path fill-rule="evenodd" clip-rule="evenodd" d="M10 8.334a1.667 1.667 0 1 0 0 3.333 1.667 1.667 0 0 0 0-3.333ZM6.667 10a3.333 3.333 0 1 1 6.667 0 3.333 3.333 0 0 1-6.667 0Z" fill="#FF8D2E"/>
    </symbol>
    <symbol id="text" viewBox="0 0 20 20">
        <title>Text</title>
        <path fill-rule="evenodd" clip-rule="evenodd" d="M5.238 2.5a1.1 1.1 0 0 0-.766.306.993.993 0 0 0-.305.712v12.963c0 .263.107.52.305.712.2.194.474.307.766.307h9.524a1.1 1.1 0 0 0 .766-.307.993.993 0 0 0 .305-.712V6.666h-2.5A1.667 1.667 0 0 1 11.667 5V2.5H5.238ZM13.333 5h1.655l-1.655-1.6V5ZM17.5 16.48V5.463a.833.833 0 0 0-.254-.6l-3.929-3.796a.833.833 0 0 0-.579-.234h-7.5c-.719 0-1.412.277-1.928.778a2.66 2.66 0 0 0-.81 1.907v12.963c0 .72.294 1.405.81 1.907.516.501 1.21.778 1.928.778h9.524c.719 0 1.412-.277 1.928-.778a2.66 2.66 0 0 0 .81-1.907ZM6.667 5a.833.833 0 0 0 0 1.666h2.5a.833.833 0 0 0 0-1.666h-2.5Zm-.834 5c0-.46.373-.834.834-.834h6.666a.833.833 0 1 1 0 1.667H6.667A.833.833 0 0 1 5.833 10ZM10 13.333A.833.833 0 1 0 10 15h3.333a.833.833 0 1 0 0-1.667H10Z" fill="#fff"/>
    </symbol>
    <symbol id="plus" viewBox="0 0 20 20">
        <title>Plus</title>
        <path fill-rule="evenodd" clip-rule="evenodd" d="M10.833 3.333a.833.833 0 0 0-1.666 0v5.834H3.333a.833.833 0 0 0 0 1.666h5.834v5.834a.833.833 0 0 0 1.666 0v-5.834h5.834a.833.833 0 0 0 0-1.666h-5.834V3.333Z" fill="#fff"/>
    </symbol>
    <symbol id="info" viewBox="0 0 24 24">
        <title>Info</title>
        <path fill-rule="evenodd" clip-rule="evenodd" d="M12 3a9 9 0 1 0 0 18 9 9 0 0 0 0-18ZM1 12C1 5.925 5.925 1 12 1s11 4.925 11 11-4.925 11-11 11S1 18.075 1 12Z" fill="#2A9CC8"/><path fill-rule="evenodd" clip-rule="evenodd" d="M12.01 17a1 1 0 0 1-1-1v-5a1 1 0 1 1 2 0v5a1 1 0 0 1-1 1ZM13.01 7.5a1 1 0 0 1-1 1H12a1 1 0 1 1 0-2h.01a1 1 0 0 1 1 1Z" fill="#2A9CC8"/>
    </symbol>
    <symbol id="error" viewBox="0 0 24 24">
        <title>Error</title>
        <path fill-rule="evenodd" clip-rule="evenodd" d="M3 12a9 9 0 1 1 18 0 9 9 0 0 1-18 0Zm9-11C5.925 1 1 5.925 1 12s4.925 11 11 11 11-4.925 11-11S18.075 1 12 1ZM8.293 15.707a1 1 0 0 1 0-1.414L10.586 12 8.293 9.707a1 1 0 0 1 1.414-1.414L12 10.586l2.293-2.293a1 1 0 1 1 1.414 1.414L13.414 12l2.293 2.293a1 1 0 0 1-1.414 1.414L12 13.414l-2.293 2.293a1 1 0 0 1-1.414 0Z" fill="#FF3A55"/>
    </symbol>
    <symbol id="warning" viewBox="0 0 24 24">
        <title>Warning</title>
        <path fill-rule="evenodd" clip-rule="evenodd" d="M12 3a9 9 0 1 0 0 18 9 9 0 0 0 0-18ZM1 12C1 5.925 5.925 1 12 1s11 4.925 11 11-4.925 11-11 11S1 18.075 1 12Z" fill="#FF8D2E"/><path fill-rule="evenodd" clip-rule="evenodd" d="M12 6a1 1 0 0 1 1 1v5a1 1 0 1 1-2 0V7a1 1 0 0 1 1-1ZM11 16a1 1 0 0 1 1-1h.01a1 1 0 1 1 0 2H12a1 1 0 0 1-1-1Z" fill="#FF8D2E"/>
    </symbol>
    <symbol id="success" viewBox="0 0 24 24">
        <title>Success</title>
        <path fill-rule="evenodd" clip-rule="evenodd" d="M12 3a9 9 0 1 0 0 18 9 9 0 0 0 0-18ZM1 12C1 5.925 5.925 1 12 1s11 4.925 11 11-4.925 11-11 11S1 18.075 1 12Z" fill="#6FBE2E"/><path fill-rule="evenodd" clip-rule="evenodd" d="M16.59 8.192a1 1 0 0 1 .218 1.397l-4.375 6a1 1 0 0 1-1.584.041L8.224 12.4a1 1 0 1 1 1.552-1.261l1.806 2.222 3.61-4.95a1 1 0 0 1 1.397-.22Z" fill="#6FBE2E"/>
    </symbol>
</svg>