<svg xmlns="http://www.w3.org/2000/svg" xmlns:xlink="http://www.w3.org/1999/xlink">
    <symbol id="send" viewBox="0 0 20 20">
        <title>Send</title>
        <path fill-rule="evenodd" clip-rule="evenodd" d="M17.457 3.508a.758.758 0 0 0-.985-.959L1.34 7.846a.758.758 0 0 0-.057 1.407l6.552 2.912 2.912 6.552a.757.757 0 0 0 1.407-.058l5.303-15.151Zm-9.216 7.18L3.644 8.643 13.86 5.07 8.24 10.687Zm1.071 1.07 2.043 4.597L14.93 6.14 9.313 11.76Z" fill="#fff"/>
    </symbol>
    <symbol id="eye" viewBox="0 0 20 20">
        <title>Eye</title>
        <path fill-rule="evenodd" clip-rule="evenodd" d="M1.784 10a15.568 15.568 0 0 0 2.053 2.763c1.493 1.592 3.58 3.07 6.163 3.07 2.584 0 4.67-1.478 6.163-3.07A15.573 15.573 0 0 0 18.216 10a15.568 15.568 0 0 0-2.053-2.763c-1.493-1.592-3.58-3.07-6.163-3.07-2.584 0-4.67 1.478-6.163 3.07A15.562 15.562 0 0 0 1.784 10Zm17.383 0 .745-.373-.002-.003-.003-.006-.009-.018a7.37 7.37 0 0 0-.16-.295 17.232 17.232 0 0 0-2.36-3.208C15.747 4.355 13.25 2.5 10 2.5S4.254 4.355 2.621 6.097a17.229 17.229 0 0 0-2.36 3.208 10.279 10.279 0 0 0-.16.295l-.009.018-.002.006-.001.002s-.001.001.744.374l-.745-.373a.833.833 0 0 0 0 .746L.833 10l-.745.373.002.003.002.006.01.018.034.065c.029.054.07.132.126.23a17.232 17.232 0 0 0 2.36 3.208C4.253 15.645 6.75 17.5 10 17.5s5.746-1.855 7.379-3.597a17.235 17.235 0 0 0 2.36-3.208 10.522 10.522 0 0 0 .16-.295l.008-.018.003-.006.001-.002s.001-.001-.744-.374Zm0 0 .745.373a.835.835 0 0 0 0-.746l-.745.373Z" fill="#FF8D2E"/><path fill-rule="evenodd" clip-rule="evenodd" d="M10 8.334a1.667 1.667 0 1 0 0 3.333 1.667 1.667 0 0 0 0-3.333ZM6.667 10a3.333 3.333 0 1 1 6.667 0 3.333 3.333 0 0 1-6.667 0Z" fill="#FF8D2E"/>
    </symbol>
    <symbol id="text" viewBox="0 0 20 20">
        <title>Text</title>
        <path fill-rule="evenodd" clip-rule="evenodd" d="M5.238 2.5a1.1 1.1 0 0 0-.766.306.993.993 0 0 0-.305.712v12.963c0 .263.107.52.305.712.2.194.474.307.766.307h9.524a1.1 1.1 0 0 0 .766-.307.993.993 0 0 0 .305-.712V6.666h-2.5A1.667 1.667 0 0 1 11.667 5V2.5H5.238ZM13.333 5h1.655l-1.655-1.6V5ZM17.5 16.48V5.463a.833.833 0 0 0-.254-.6l-3.929-3.796a.833.833 0 0 0-.579-.234h-7.5c-.719 0-1.412.277-1.928.778a2.66 2.66 0 0 0-.81 1.907v12.963c0 .72.294 1.405.81 1.907.516.501 1.21.778 1.928.778h9.524c.719 0 1.412-.277 1.928-.778a2.66 2.66 0 0 0 .81-1.907ZM6.667 5a.833.833 0 0 0 0 1.666h2.5a.833.833 0 0 0 0-1.666h-2.5Zm-.834 5c0-.46.373-.834.834-.834h6.666a.833.833 0 1 1 0 1.667H6.667A.833.833 0 0 1 5.833 10ZM10 13.333A.833.833 0 1 0 10 15h3.333a.833.833 0 1 0 0-1.667H10Z" fill="#fff"/>
    </symbol>
    <symbol id="plus" viewBox="0 0 20 20">
        <title>Plus</title>
        <path fill-rule="evenodd" clip-rule="evenodd" d="M10.833 3.333a.833.833 0 0 0-1.666 0v5.834H3.333a.833.833 0 0 0 0 1.666h5.834v5.834a.833.833 0 0 0 1.666 0v-5.834h5.834a.833.833 0 0 0 0-1.666h-5.834V3.333Z" fill="#fff"/>
    </symbol>
    <symbol id="info" viewBox="0 0 24 24">
        <title>Info</title>
        <path fill-rule="evenodd" clip-rule="evenodd" d="M12 3a9 9 0 1 0 0 18 9 9 0 0 0 0-18ZM1 12C1 5.925 5.925 1 12 1s11 4.925 11 11-4.925 11-11 11S1 18.075 1 12Z" /><path fill-rule="evenodd" clip-rule="evenodd" d="M12.01 17a1 1 0 0 1-1-1v-5a1 1 0 1 1 2 0v5a1 1 0 0 1-1 1ZM13.01 7.5a1 1 0 0 1-1 1H12a1 1 0 1 1 0-2h.01a1 1 0 0 1 1 1Z" />
    </symbol>
    <symbol id="error" viewBox="0 0 24 24">
        <title>Error</title>
        <path fill-rule="evenodd" clip-rule="evenodd" d="M3 12a9 9 0 1 1 18 0 9 9 0 0 1-18 0Zm9-11C5.925 1 1 5.925 1 12s4.925 11 11 11 11-4.925 11-11S18.075 1 12 1ZM8.293 15.707a1 1 0 0 1 0-1.414L10.586 12 8.293 9.707a1 1 0 0 1 1.414-1.414L12 10.586l2.293-2.293a1 1 0 1 1 1.414 1.414L13.414 12l2.293 2.293a1 1 0 0 1-1.414 1.414L12 13.414l-2.293 2.293a1 1 0 0 1-1.414 0Z"/>
    </symbol>
    <symbol id="warning" viewBox="0 0 24 24">
        <title>Warning</title>
        <path fill-rule="evenodd" clip-rule="evenodd" d="M12 3a9 9 0 1 0 0 18 9 9 0 0 0 0-18ZM1 12C1 5.925 5.925 1 12 1s11 4.925 11 11-4.925 11-11 11S1 18.075 1 12Z"/><path fill-rule="evenodd" clip-rule="evenodd" d="M12 6a1 1 0 0 1 1 1v5a1 1 0 1 1-2 0V7a1 1 0 0 1 1-1ZM11 16a1 1 0 0 1 1-1h.01a1 1 0 1 1 0 2H12a1 1 0 0 1-1-1Z"/>
    </symbol>
    <symbol id="success" viewBox="0 0 24 24">
        <title>Success</title>
        <path fill-rule="evenodd" clip-rule="evenodd" d="M12 3a9 9 0 1 0 0 18 9 9 0 0 0 0-18ZM1 12C1 5.925 5.925 1 12 1s11 4.925 11 11-4.925 11-11 11S1 18.075 1 12Z"/><path fill-rule="evenodd" clip-rule="evenodd" d="M16.59 8.192a1 1 0 0 1 .218 1.397l-4.375 6a1 1 0 0 1-1.584.041L8.224 12.4a1 1 0 1 1 1.552-1.261l1.806 2.222 3.61-4.95a1 1 0 0 1 1.397-.22Z"/>
    </symbol>
    <symbol id="copy" viewBox="0 0 24 24">
        <title>Copy</title>
        <path fill-rule="evenodd" clip-rule="evenodd" d="M6.676 3c.284-.672.853-1 1.263-1h11.423c.566 0 1.438.628 1.438 1.923v13.154c0 1.056-.58 1.668-1.1 1.858V6.923C19.7 4.99 18.3 3 16.061 3H6.676Zm-2.272.007C4.765 1.41 6.056 0 7.939 0h11.423C21.599 0 23 1.99 23 3.923v13.154c0 1.865-1.303 3.782-3.403 3.916C19.235 22.59 17.944 24 16.06 24H4.638C2.401 24 1 22.01 1 20.077V6.923c0-1.865 1.303-3.782 3.404-3.916ZM3.2 6.923C3.2 5.628 4.072 5 4.638 5h11.423c.567 0 1.439.628 1.439 1.923v13.154c0 1.295-.872 1.923-1.439 1.923H4.638c-.566 0-1.438-.628-1.438-1.923V6.923Z"/>
    </symbol>
    <symbol id="delete" viewBox="0 0 24 24">
        <title>Delete</title>
        <path fill-rule="evenodd" clip-rule="evenodd" d="M9.461 3.689a.955.955 0 0 1 .675-.28h3.819a.955.955 0 0 1 .954.955v.954H9.182v-.954c0-.254.1-.496.28-.675Zm7.357.675v.954H20.636a.955.955 0 0 1 0 1.91h-.954v12.408a2.864 2.864 0 0 1-2.864 2.864H7.273a2.864 2.864 0 0 1-2.864-2.864V7.227h-.954a.955.955 0 1 1 0-1.909H7.273v-.954A2.864 2.864 0 0 1 10.136 1.5h3.819a2.864 2.864 0 0 1 2.863 2.864Zm-10.5 2.863v12.41a.954.954 0 0 0 .955.954h9.545a.955.955 0 0 0 .955-.955V7.227H6.318Zm3.818 2.864c.528 0 .955.427.955.955v5.727a.955.955 0 1 1-1.91 0v-5.727c0-.528.428-.955.955-.955Zm4.773 6.682v-5.727a.955.955 0 0 0-1.909 0v5.727a.955.955 0 1 0 1.91 0Z"/>
    </symbol>
    <svg id="help" viewBox="0 0 24 24" fill="none" xmlns="http://www.w3.org/2000/svg">
        <title>Question</title>
        <g>
            <path fill-rule="evenodd" clip-rule="evenodd" d="M12 3a9 9 0 1 0 0 18 9 9 0 0 0 0-18ZM1 12C1 5.925 5.925 1 12 1s11 4.925 11 11-4.925 11-11 11S1 18.075 1 12Z" fill="#4A4A4A"/>
            <path fill-rule="evenodd" clip-rule="evenodd" d="M11.031 8.427c-.184.242-.281.61-.281 1.017a1 1 0 1 1-2 0c0-.662.148-1.516.69-2.228C10.017 6.456 10.935 6 12.165 6c1.416 0 2.32.74 2.757 1.658.391.822.408 1.785.18 2.428-.28.784-.819 1.407-1.2 1.848l-.159.185c-.431.513-.578.79-.578 1.094v1.12a1 1 0 0 1-2 0v-1.12c0-1.087.605-1.854 1.048-2.381l.199-.235c.393-.461.66-.776.805-1.183.044-.124.07-.536-.101-.897a.849.849 0 0 0-.3-.358c-.12-.08-.319-.159-.651-.159-.695 0-.985.231-1.133.427Z" fill="#4A4A4A"/>
            <path d="M13.325 17.167a1 1 0 1 1-2 0 1 1 0 0 1 2 0Z" fill="#4A4A4A"/>
        </g>
    </svg>

    <symbol id="trash" viewBox="0 0 20 20">
        <title>Trash</title>
        <path fill-rule="evenodd" clip-rule="evenodd" d="M7.884 3.074a.795.795 0 0 1 .563-.233h3.182a.795.795 0 0 1 .795.795v.796H7.65v-.796c0-.21.084-.413.233-.562Zm6.13.562v.796h3.183a.795.795 0 1 1 0 1.59H16.4v10.342a2.386 2.386 0 0 1-2.386 2.386H6.06a2.386 2.386 0 0 1-2.386-2.386V6.023h-.796a.795.795 0 0 1 0-1.591H6.06v-.796A2.386 2.386 0 0 1 8.447 1.25h3.182a2.386 2.386 0 0 1 2.386 2.386Zm-8.75 2.387v10.34a.795.795 0 0 0 .796.796h7.955a.795.795 0 0 0 .795-.795V6.023H5.265Zm3.183 2.386c.439 0 .795.356.795.796v4.772a.795.795 0 0 1-1.59 0V9.205c0-.44.355-.796.795-.796Zm3.977.796a.795.795 0 1 0-1.591 0v4.772a.795.795 0 0 0 1.59 0V9.205Z" fill="var(--color,#2A9CC8)"/>
    </symbol>
</svg>