<svg xmlns="http://www.w3.org/2000/svg" xmlns:xlink="http://www.w3.org/1999/xlink">
    <symbol id="send" viewBox="0 0 24 24">
        <title>Send</title>
        <path fill-rule="evenodd" clip-rule="evenodd" d="M20.604 3.159a.913.913 0 0 1 .345 1.05l-6.364 18.182a.909.909 0 0 1-1.689.07l-3.494-7.863-7.862-3.495a.91.91 0 0 1 .069-1.688l18.158-6.356a.91.91 0 0 1 .837.1ZM11.175 14.11l6.742-6.742-4.29 12.258-2.452-5.516ZM9.89 12.825l-5.515-2.452 12.257-4.29-6.742 6.742Z" fill="#fff"/>
    </symbol>
    <symbol id="eye" viewBox="0 0 24 24">
        <title>Eye</title>
        <g>
            <path fill-rule="evenodd" clip-rule="evenodd" d="M2.14074 12C2.25003 12.1889 2.39492 12.4296 2.57441 12.7075C3.03543 13.4213 3.71817 14.3706 4.60454 15.3161C6.39552 17.2264 8.89951 19 12 19C15.1005 19 17.6045 17.2264 19.3955 15.3161C20.2818 14.3706 20.9646 13.4213 21.4256 12.7075C21.6051 12.4296 21.75 12.1889 21.8593 12C21.75 11.8111 21.6051 11.5704 21.4256 11.2925C20.9646 10.5787 20.2818 9.6294 19.3955 8.68394C17.6045 6.77356 15.1005 5 12 5C8.89951 5 6.39552 6.77356 4.60454 8.68394C3.71817 9.6294 3.03543 10.5787 2.57441 11.2925C2.39492 11.5704 2.25003 11.8111 2.14074 12ZM23 12C23.8944 11.5528 23.8943 11.5524 23.8941 11.5521L23.8925 11.5489L23.889 11.542L23.8777 11.5198C23.8681 11.5013 23.8546 11.4753 23.8372 11.4424C23.8025 11.3767 23.752 11.2832 23.686 11.166C23.5542 10.9316 23.3601 10.6015 23.1057 10.2075C22.5979 9.42131 21.8432 8.3706 20.8545 7.31606C18.8955 5.22644 15.8995 3 12 3C8.10049 3 5.10448 5.22644 3.14546 7.31606C2.15683 8.3706 1.40207 9.42131 0.894336 10.2075C0.63985 10.6015 0.445792 10.9316 0.313971 11.166C0.248023 11.2832 0.19754 11.3767 0.162753 11.4424C0.145357 11.4753 0.131875 11.5013 0.122338 11.5198L0.11099 11.542L0.107539 11.5489L0.10637 11.5512C0.106186 11.5516 0.105573 11.5528 1 12L0.105573 11.5528C-0.0351909 11.8343 -0.0351909 12.1657 0.105573 12.4472L1 12C0.105573 12.4472 0.105389 12.4468 0.105573 12.4472L0.107539 12.4511L0.11099 12.458L0.122338 12.4802C0.131875 12.4987 0.145357 12.5247 0.162753 12.5576C0.19754 12.6233 0.248023 12.7168 0.313971 12.834C0.445792 13.0684 0.63985 13.3985 0.894336 13.7925C1.40207 14.5787 2.15683 15.6294 3.14546 16.6839C5.10448 18.7736 8.10049 21 12 21C15.8995 21 18.8955 18.7736 20.8545 16.6839C21.8432 15.6294 22.5979 14.5787 23.1057 13.7925C23.3601 13.3985 23.5542 13.0684 23.686 12.834C23.752 12.7168 23.8025 12.6233 23.8372 12.5576C23.8546 12.5247 23.8681 12.4987 23.8777 12.4802L23.889 12.458L23.8925 12.4511L23.8936 12.4488C23.8938 12.4484 23.8944 12.4472 23 12ZM23 12L23.8944 12.4472C24.0352 12.1657 24.0348 11.8336 23.8941 11.5521L23 12Z" />
            <path fill-rule="evenodd" clip-rule="evenodd" d="M12 10C10.8954 10 10 10.8954 10 12C10 13.1046 10.8954 14 12 14C13.1046 14 14 13.1046 14 12C14 10.8954 13.1046 10 12 10ZM8 12C8 9.79086 9.79086 8 12 8C14.2091 8 16 9.79086 16 12C16 14.2091 14.2091 16 12 16C9.79086 16 8 14.2091 8 12Z" />
        </g>
    </symbol>
    <symbol id="text" viewBox="0 0 24 24">
        <title>Text</title>
        <path fill-rule="evenodd" clip-rule="evenodd" d="M6.286 3c-.35 0-.68.135-.92.368-.238.231-.366.54-.366.854v15.556c0 .315.128.623.367.854.239.233.569.368.919.368h11.428c.35 0 .68-.135.92-.368.238-.231.366-.54.366-.854V8h-3a2 2 0 0 1-2-2V3H6.286ZM16 6h1.986L16 4.08V6Zm5 13.778V6.556a1 1 0 0 0-.305-.72L15.98 1.281A1 1 0 0 0 15.286 1h-9a3.32 3.32 0 0 0-2.314.934A3.191 3.191 0 0 0 3 4.222v15.556c0 .864.353 1.686.972 2.288.619.601 1.451.934 2.314.934h11.428c.863 0 1.695-.333 2.314-.934.619-.602.972-1.424.972-2.288ZM8 6a1 1 0 0 0 0 2h3a1 1 0 1 0 0-2H8Zm-1 6a1 1 0 0 1 1-1h8a1 1 0 1 1 0 2H8a1 1 0 0 1-1-1Zm5 4a1 1 0 1 0 0 2h4a1 1 0 1 0 0-2h-4Z" fill="#fff"/>
    </symbol>
    <symbol id="plus" viewBox="0 0 24 24">
        <title>Plus</title>
        <path fill-rule="evenodd" clip-rule="evenodd" d="M13 4C13 3.44772 12.5523 3 12 3C11.4477 3 11 3.44772 11 4L11 11H4C3.44772 11 3 11.4477 3 12C3 12.5523 3.44772 13 4 13H11L11 20C11 20.5523 11.4477 21 12 21C12.5523 21 13 20.5523 13 20V13H20C20.5523 13 21 12.5523 21 12C21 11.4477 20.5523 11 20 11H13V4Z"/>
    </symbol>
    <symbol id="close" viewBox="0 0 24 24">
        <title>Close</title>
        <path fill-rule="evenodd" clip-rule="evenodd" d="M4.222 4.222a1.1 1.1 0 0 1 1.556 0l14 14a1.1 1.1 0 1 1-1.556 1.556l-14-14a1.1 1.1 0 0 1 0-1.556Z"/><path fill-rule="evenodd" clip-rule="evenodd" d="M19.778 4.222a1.1 1.1 0 0 1 0 1.556l-14 14a1.1 1.1 0 1 1-1.556-1.556l14-14a1.1 1.1 0 0 1 1.556 0Z"/>
    </symbol>
    <symbol id="info" viewBox="0 0 24 24">
        <title>Info</title>
        <path fill-rule="evenodd" clip-rule="evenodd" d="M12 3a9 9 0 1 0 0 18 9 9 0 0 0 0-18ZM1 12C1 5.925 5.925 1 12 1s11 4.925 11 11-4.925 11-11 11S1 18.075 1 12Z" /><path fill-rule="evenodd" clip-rule="evenodd" d="M12.01 17a1 1 0 0 1-1-1v-5a1 1 0 1 1 2 0v5a1 1 0 0 1-1 1ZM13.01 7.5a1 1 0 0 1-1 1H12a1 1 0 1 1 0-2h.01a1 1 0 0 1 1 1Z" />
    </symbol>
    <symbol id="error" viewBox="0 0 24 24">
        <title>Error</title>
        <path fill-rule="evenodd" clip-rule="evenodd" d="M3 12a9 9 0 1 1 18 0 9 9 0 0 1-18 0Zm9-11C5.925 1 1 5.925 1 12s4.925 11 11 11 11-4.925 11-11S18.075 1 12 1ZM8.293 15.707a1 1 0 0 1 0-1.414L10.586 12 8.293 9.707a1 1 0 0 1 1.414-1.414L12 10.586l2.293-2.293a1 1 0 1 1 1.414 1.414L13.414 12l2.293 2.293a1 1 0 0 1-1.414 1.414L12 13.414l-2.293 2.293a1 1 0 0 1-1.414 0Z"/>
    </symbol>
    <symbol id="warning" viewBox="0 0 24 24">
        <title>Warning</title>
        <path fill-rule="evenodd" clip-rule="evenodd" d="M12 3a9 9 0 1 0 0 18 9 9 0 0 0 0-18ZM1 12C1 5.925 5.925 1 12 1s11 4.925 11 11-4.925 11-11 11S1 18.075 1 12Z"/><path fill-rule="evenodd" clip-rule="evenodd" d="M12 6a1 1 0 0 1 1 1v5a1 1 0 1 1-2 0V7a1 1 0 0 1 1-1ZM11 16a1 1 0 0 1 1-1h.01a1 1 0 1 1 0 2H12a1 1 0 0 1-1-1Z"/>
    </symbol>
    <symbol id="success" viewBox="0 0 24 24">
        <title>Success</title>
        <path fill-rule="evenodd" clip-rule="evenodd" d="M12 3a9 9 0 1 0 0 18 9 9 0 0 0 0-18ZM1 12C1 5.925 5.925 1 12 1s11 4.925 11 11-4.925 11-11 11S1 18.075 1 12Z"/><path fill-rule="evenodd" clip-rule="evenodd" d="M16.59 8.192a1 1 0 0 1 .218 1.397l-4.375 6a1 1 0 0 1-1.584.041L8.224 12.4a1 1 0 1 1 1.552-1.261l1.806 2.222 3.61-4.95a1 1 0 0 1 1.397-.22Z"/>
    </symbol>
    <symbol id="alert" viewBox="0 0 24 24">
        <title>Alert</title>
        <path fill-rule="evenodd" clip-rule="evenodd" d="M12 8a1 1 0 0 1 1 1v5a1 1 0 1 1-2 0V9a1 1 0 0 1 1-1ZM11 17.5a1 1 0 0 1 1-1h.01a1 1 0 1 1 0 2H12a1 1 0 0 1-1-1Z"/><path fill-rule="evenodd" clip-rule="evenodd" d="M10.248 2.111c.76-1.381 2.745-1.381 3.505 0l9.308 16.925C23.794 20.37 22.83 22 21.31 22H2.69C1.171 22 .206 20.37.94 19.036l9.309-16.925Zm11.06 17.89L12 3.074 2.691 20H21.31Z"/>
    </symbol>
    <symbol id="copy" viewBox="0 0 24 24">
        <title>Copy</title>
        <path fill-rule="evenodd" clip-rule="evenodd" d="M6.676 3c.284-.672.853-1 1.263-1h11.423c.566 0 1.438.628 1.438 1.923v13.154c0 1.056-.58 1.668-1.1 1.858V6.923C19.7 4.99 18.3 3 16.061 3H6.676Zm-2.272.007C4.765 1.41 6.056 0 7.939 0h11.423C21.599 0 23 1.99 23 3.923v13.154c0 1.865-1.303 3.782-3.403 3.916C19.235 22.59 17.944 24 16.06 24H4.638C2.401 24 1 22.01 1 20.077V6.923c0-1.865 1.303-3.782 3.404-3.916ZM3.2 6.923C3.2 5.628 4.072 5 4.638 5h11.423c.567 0 1.439.628 1.439 1.923v13.154c0 1.295-.872 1.923-1.439 1.923H4.638c-.566 0-1.438-.628-1.438-1.923V6.923Z"/>
    </symbol>
    <symbol id="delete" viewBox="0 0 24 24">
        <title>Delete</title>
        <path fill-rule="evenodd" clip-rule="evenodd" d="M9.461 3.689a.955.955 0 0 1 .675-.28h3.819a.955.955 0 0 1 .954.955v.954H9.182v-.954c0-.254.1-.496.28-.675Zm7.357.675v.954H20.636a.955.955 0 0 1 0 1.91h-.954v12.408a2.864 2.864 0 0 1-2.864 2.864H7.273a2.864 2.864 0 0 1-2.864-2.864V7.227h-.954a.955.955 0 1 1 0-1.909H7.273v-.954A2.864 2.864 0 0 1 10.136 1.5h3.819a2.864 2.864 0 0 1 2.863 2.864Zm-10.5 2.863v12.41a.954.954 0 0 0 .955.954h9.545a.955.955 0 0 0 .955-.955V7.227H6.318Zm3.818 2.864c.528 0 .955.427.955.955v5.727a.955.955 0 1 1-1.91 0v-5.727c0-.528.428-.955.955-.955Zm4.773 6.682v-5.727a.955.955 0 0 0-1.909 0v5.727a.955.955 0 1 0 1.91 0Z"/>
    </symbol>
    <symbol id="help" viewBox="0 0 24 24">
        <title>Question</title>
        <g>
            <path fill-rule="evenodd" clip-rule="evenodd" d="M12 3a9 9 0 1 0 0 18 9 9 0 0 0 0-18ZM1 12C1 5.925 5.925 1 12 1s11 4.925 11 11-4.925 11-11 11S1 18.075 1 12Z" fill="#4A4A4A"/>
            <path fill-rule="evenodd" clip-rule="evenodd" d="M11.031 8.427c-.184.242-.281.61-.281 1.017a1 1 0 1 1-2 0c0-.662.148-1.516.69-2.228C10.017 6.456 10.935 6 12.165 6c1.416 0 2.32.74 2.757 1.658.391.822.408 1.785.18 2.428-.28.784-.819 1.407-1.2 1.848l-.159.185c-.431.513-.578.79-.578 1.094v1.12a1 1 0 0 1-2 0v-1.12c0-1.087.605-1.854 1.048-2.381l.199-.235c.393-.461.66-.776.805-1.183.044-.124.07-.536-.101-.897a.849.849 0 0 0-.3-.358c-.12-.08-.319-.159-.651-.159-.695 0-.985.231-1.133.427Z" fill="#4A4A4A"/>
            <path d="M13.325 17.167a1 1 0 1 1-2 0 1 1 0 0 1 2 0Z" fill="#4A4A4A"/>
        </g>
    </symbol>
    <symbol id="edit" viewBox="0 0 24 24">
        <title>Edit</title>
        <g>
            <path fill-rule="evenodd" clip-rule="evenodd" d="M1.879 3.879A3 3 0 0 1 4 3h7a1 1 0 1 1 0 2H4a1 1 0 0 0-1 1v14a1 1 0 0 0 1 1h14a1 1 0 0 0 1-1v-7a1 1 0 1 1 2 0v7a3 3 0 0 1-3 3H4a3 3 0 0 1-3-3V6a3 3 0 0 1 .879-2.121Z" />
            <path fill-rule="evenodd" clip-rule="evenodd" d="M20 2.879c-.297 0-.583.118-.793.328l-9.304 9.304-.529 2.115 2.115-.529 9.304-9.304A1.121 1.121 0 0 0 20 2.88Zm-2.207-1.086a3.121 3.121 0 0 1 4.414 4.414l-9.5 9.5a1 1 0 0 1-.464.263l-4 1a1 1 0 0 1-1.213-1.212l1-4a1 1 0 0 1 .263-.465l9.5-9.5Z" />
        </g>
    </symbol>
    <symbol id="applications" viewBox="0 0 24 24">
        <title>Applications</title>
        <path fill-rule="evenodd" clip-rule="evenodd" d="M1 3a2 2 0 0 1 2-2h6a2 2 0 0 1 2 2v6a2 2 0 0 1-2 2H3a2 2 0 0 1-2-2V3Zm8 0H3v6h6V3ZM13 3a2 2 0 0 1 2-2h6a2 2 0 0 1 2 2v6a2 2 0 0 1-2 2h-6a2 2 0 0 1-2-2V3Zm8 0h-6v6h6V3ZM13 15a2 2 0 0 1 2-2h6a2 2 0 0 1 2 2v6a2 2 0 0 1-2 2h-6a2 2 0 0 1-2-2v-6Zm8 0h-6v6h6v-6ZM1 15a2 2 0 0 1 2-2h6a2 2 0 0 1 2 2v6a2 2 0 0 1-2 2H3a2 2 0 0 1-2-2v-6Zm8 0H3v6h6v-6Z" />
    </symbol>
    <symbol id="list" viewBox="0 0 24 24">
        <title>List</title>
        <g>
            <circle cx="3.5" cy="5" r="1.5" />
            <circle cx="3.5" cy="12" r="1.5" />
            <circle cx="3.5" cy="19" r="1.5" />
            <path fill-rule="evenodd" clip-rule="evenodd" d="M7 5a1 1 0 0 1 1-1h13a1 1 0 1 1 0 2H8a1 1 0 0 1-1-1ZM7 12a1 1 0 0 1 1-1h13a1 1 0 1 1 0 2H8a1 1 0 0 1-1-1ZM7 19a1 1 0 0 1 1-1h13a1 1 0 1 1 0 2H8a1 1 0 0 1-1-1Z" />
        </g>
    </symbol>
    <symbol id="depositeInbox" viewBox="0 0 48 48">
        <title>Deposite Inbox</title>
        <g>
            <path fill-rule="evenodd" clip-rule="evenodd" d="M2.5 24a2 2 0 0 1 2-2h12a2 2 0 0 1 1.664.89L21.57 28h5.86l3.406-5.11A2 2 0 0 1 32.5 22h12a2 2 0 1 1 0 4H33.57l-3.406 5.11A2 2 0 0 1 28.5 32h-8a2 2 0 0 1-1.664-.89L15.43 26H4.5a2 2 0 0 1-2-2Z" fill="#2A9CC8"/>
            <path fill-rule="evenodd" clip-rule="evenodd" d="M24.5 2a2 2 0 0 1 2 2v12.403l2.625-2.486a2 2 0 0 1 2.75 2.903l-6 5.684a2 2 0 0 1-2.75 0l-6-5.684a2 2 0 1 1 2.75-2.904l2.625 2.487V4a2 2 0 0 1 2-2Zm-9.52 5.684h1.52a2 2 0 1 1 0 4h-1.519a2.17 2.17 0 0 0-1.094.294c-.32.188-.563.448-.716.738l-.003.006L6.5 25.338v10.873c0 .438.183.882.547 1.227.368.349.889.562 1.453.562h32c.564 0 1.085-.213 1.453-.562.364-.345.547-.789.547-1.227V25.338l-6.668-12.616-.003-.006a1.872 1.872 0 0 0-.716-.738c-.32-.189-.7-.293-1.093-.294H32.5a2 2 0 1 1 0-4h1.52a6.17 6.17 0 0 1 3.119.845 5.873 5.873 0 0 1 2.23 2.326l.002.003 6.897 13.05a2 2 0 0 1 .232.934v11.369a5.69 5.69 0 0 1-1.796 4.131A6.115 6.115 0 0 1 40.5 42h-32a6.115 6.115 0 0 1-4.204-1.658A5.691 5.691 0 0 1 2.5 36.211V24.842a2 2 0 0 1 .232-.934l6.897-13.05s0-.002.002-.003a5.873 5.873 0 0 1 2.23-2.326 6.17 6.17 0 0 1 3.119-.845Z" fill="#2A9CC8"/>
        </g>
    </symbol>
    <symbol id="checklist" viewBox="0 0 48 48">
        <title>Checklist</title>
        <path fill-rule="evenodd" clip-rule="evenodd" d="M12.5 6a2 2 0 0 0-2 2v32a2 2 0 0 0 2 2h24a2 2 0 0 0 2-2V8a2 2 0 0 0-2-2h-24Zm-6 2a6 6 0 0 1 6-6h24a6 6 0 0 1 6 6v32a6 6 0 0 1-6 6h-24a6 6 0 0 1-6-6V8Z" fill="#2A9CC8"/>
        <path d="M18.5 16a2 2 0 1 1-4 0 2 2 0 0 1 4 0ZM18.5 25a2 2 0 1 1-4 0 2 2 0 0 1 4 0ZM18.5 34a2 2 0 1 1-4 0 2 2 0 0 1 4 0ZM22.5 16a2 2 0 0 1 2-2h8a2 2 0 1 1 0 4h-8a2 2 0 0 1-2-2ZM22.5 25a2 2 0 0 1 2-2h8a2 2 0 1 1 0 4h-8a2 2 0 0 1-2-2ZM22.5 34a2 2 0 0 1 2-2h8a2 2 0 1 1 0 4h-8a2 2 0 0 1-2-2Z" fill="#2A9CC8"/>
    </symbol>
    <symbol id="arrowRight" viewBox="0 0 24 24">
        <title>Arrow Right</title>
        <path fill-rule="evenodd" clip-rule="evenodd" d="M3.833 10c0-.46.373-.833.834-.833h11.666a.833.833 0 1 1 0 1.666H4.667A.833.833 0 0 1 3.833 10Z" />
        <path fill-rule="evenodd" clip-rule="evenodd" d="M9.91 3.577a.833.833 0 0 1 1.18 0l5.833 5.834a.833.833 0 0 1 0 1.178l-5.834 5.834a.833.833 0 0 1-1.178-1.179L15.155 10 9.91 4.756a.833.833 0 0 1 0-1.179Z" />
    </symbol>
    <symbol id="attachement" viewBox="0 0 24 24">
        <title>Attachement</title>
        <path fill-rule="evenodd" clip-rule="evenodd" d="M15.968 3c-.775 0-1.517.306-2.062.847l-8.983 8.918a4.804 4.804 0 0 0-1.423 3.41c0 1.277.511 2.504 1.423 3.41A4.89 4.89 0 0 0 8.368 21a4.89 4.89 0 0 0 3.445-1.416l8.982-8.918a1 1 0 1 1 1.41 1.42l-8.983 8.917A6.89 6.89 0 0 1 8.368 23a6.89 6.89 0 0 1-4.854-1.997A6.804 6.804 0 0 1 1.5 16.174c0-1.812.725-3.549 2.014-4.828l8.983-8.918A4.926 4.926 0 0 1 15.967 1c1.301 0 2.55.513 3.471 1.428a4.87 4.87 0 0 1 1.442 3.456 4.87 4.87 0 0 1-1.442 3.455l-8.992 8.918a2.965 2.965 0 0 1-4.175 0 2.935 2.935 0 0 1 0-4.165l8.299-8.23a1 1 0 0 1 1.408 1.42l-8.298 8.23s0-.001 0 0a.935.935 0 0 0 0 1.326.963.963 0 0 0 1.357 0l8.992-8.918c.545-.541.85-1.274.85-2.036a2.87 2.87 0 0 0-.85-2.037A2.927 2.927 0 0 0 15.968 3Z" fill="#4A4A4A" />
    </symbol>
    <symbol id="download" viewBox="0 0 24 24">
        <title>Download</title>
        <g clip-path="url(#a)" fill-rule="evenodd" clip-rule="evenodd">
            <path d="M7.293 16.293a1 1 0 0 1 1.414 0L12 19.586l3.293-3.293a1 1 0 0 1 1.414 1.414l-4 4a1 1 0 0 1-1.414 0l-4-4a1 1 0 0 1 0-1.414Z"/>
            <path d="M12 11a1 1 0 0 1 1 1v9a1 1 0 1 1-2 0v-9a1 1 0 0 1 1-1Z"/>
            <path d="M8.668 1.994A9 9 0 0 1 17.48 8H18a6.002 6.002 0 0 1 5.689 7.919 6 6 0 0 1-2.234 2.989 1 1 0 0 1-1.15-1.636A4 4 0 0 0 18 10h-1.26a1 1 0 0 1-.969-.752 7.001 7.001 0 0 0-13.668.492 7 7 0 0 0 1.646 5.887 1 1 0 0 1-1.498 1.326A9 9 0 0 1 8.668 1.994Z"/>
        </g>
        <defs>
            <clipPath id="a">
            <path fill="#fff" d="M0 0h24v24H0z"/>
            </clipPath>
        </defs>
    </symbol>
    <symbol id="upload" viewBox="0 0 24 24">
        <g clip-path="url(#a)" fill-rule="evenodd" clip-rule="evenodd" fill="#4A4A4A">
            <path d="M11.293 11.293a1 1 0 0 1 1.414 0l4 4a1 1 0 0 1-1.414 1.414L12 13.414l-3.293 3.293a1 1 0 0 1-1.414-1.414l4-4Z"/>
            <path d="M12 11a1 1 0 0 1 1 1v9a1 1 0 1 1-2 0v-9a1 1 0 0 1 1-1Z"/>
            <path d="M8.663 2.009A9 9 0 0 1 17.48 8H18a6.002 6.002 0 0 1 5.497 8.398 6 6 0 0 1-2.628 2.87 1 1 0 0 1-.958-1.756A4 4 0 0 0 18 10H16.74a1 1 0 0 1-.968-.75 7 7 0 1 0-12.023 6.388 1 1 0 1 1-1.498 1.324A9 9 0 0 1 8.663 2.01Z"/>
            <path d="M11.293 11.293a1 1 0 0 1 1.414 0l4 4a1 1 0 0 1-1.414 1.414L12 13.414l-3.293 3.293a1 1 0 0 1-1.414-1.414l4-4Z"/>
        </g>
        <defs>
            <clipPath id="a">
            <path fill="#fff" d="M0 0h24v24H0z"/>
            </clipPath>
        </defs>
    </symbol>
</svg>