<svg xmlns="http://www.w3.org/2000/svg" xmlns:xlink="http://www.w3.org/1999/xlink">
    <symbol id="simple_answer" viewBox="0 0 70 70">
        <title>Simple Answer</title>
        <path fill-rule="evenodd" clip-rule="evenodd" d="M51.567 22.47H18.434v-7h33.133v7Z" fill="#2A9CC8"/><path fill-rule="evenodd" clip-rule="evenodd" d="M9.34 4.317c0-.773.68-1.4 1.518-1.4h48.283c.84 0 1.519.627 1.519 1.4v61.367c0 .773-.68 1.4-1.518 1.4H10.858c-.838 0-1.518-.627-1.518-1.4V4.317Zm3.037 1.4v58.567h45.246V5.717H12.377Z" fill="#2A9CC8"/>
    </symbol>
    <symbol id="qcm" viewBox="0 0 70 70">
        <title>QCM</title>
        <path fill-rule="evenodd" clip-rule="evenodd" d="M51.567 37.217H30.264v-4.434h21.303v4.434ZM51.567 25.55H30.264v-4.433h21.303v4.433ZM51.567 48.883H30.264V44.45h21.303v4.433ZM18.434 19.857c0-.515.418-.933.933-.933h6.837c.515 0 .933.418.933.933v6.837a.933.933 0 0 1-.933.933h-6.837a.933.933 0 0 1-.933-.933v-6.837Zm1.866.934v4.97h4.97v-4.97H20.3ZM18.434 31.57c0-.515.418-.933.933-.933h6.837c.515 0 .933.418.933.933v6.837a.933.933 0 0 1-.933.933h-6.837a.933.933 0 0 1-.933-.933V31.57Zm1.866.933v4.97h4.97v-4.97H20.3ZM18.434 43.214c0-.516.418-.934.933-.934h6.837c.515 0 .933.418.933.934v6.836a.933.933 0 0 1-.933.934h-6.837a.933.933 0 0 1-.933-.934v-6.836Zm1.866.933v4.97h4.97v-4.97H20.3Z" fill="#2A9CC8"/><path fill-rule="evenodd" clip-rule="evenodd" d="M30.858 15.147a.933.933 0 0 1 .125 1.314l-7.303 8.844a.933.933 0 0 1-1.548-.164l-1.493-2.87a.933.933 0 1 1 1.656-.861l.843 1.62 6.406-7.757a.933.933 0 0 1 1.314-.126Z" fill="#2A9CC8"/><path fill-rule="evenodd" clip-rule="evenodd" d="M9.34 4.317c0-.773.68-1.4 1.518-1.4h48.283c.84 0 1.519.627 1.519 1.4v61.367c0 .773-.68 1.4-1.518 1.4H10.858c-.838 0-1.518-.627-1.518-1.4V4.317Zm3.037 1.4v58.567h45.246V5.717H12.377Z" fill="#2A9CC8"/>
    </symbol>
    <symbol id="multiple_answers" viewBox="0 0 70 70">
        <title>Multiple Answers</title>
        <path fill-rule="evenodd" clip-rule="evenodd" d="M51.567 22.47H18.434v-7h33.133v7ZM49.7 34.883H20.3V30.45h29.4v4.433ZM49.7 44.45H20.3v-4.433h29.4v4.433ZM49.7 54.016H20.3v-4.433h29.4v4.433Z" fill="#2A9CC8"/><path fill-rule="evenodd" clip-rule="evenodd" d="M9.34 4.317c0-.773.68-1.4 1.518-1.4h48.283c.84 0 1.519.627 1.519 1.4v61.367c0 .773-.68 1.4-1.518 1.4H10.858c-.838 0-1.518-.627-1.518-1.4V4.317Zm3.037 1.4v58.567h45.246V5.717H12.377Z" fill="#2A9CC8"/>
    </symbol>
    <symbol id="open_answer" viewBox="0 0 70 70">
        <title>Open Answer</title>
        <path fill-rule="evenodd" clip-rule="evenodd" d="M9.34 4.317c0-.773.68-1.4 1.518-1.4h48.283c.84 0 1.519.627 1.519 1.4v61.367c0 .773-.68 1.4-1.518 1.4H10.858c-.838 0-1.518-.627-1.518-1.4V4.317Zm3.037 1.4v58.567h45.246V5.717H12.377Z" fill="#2A9CC8"/><path d="m40.227 48.697 2.613-8.33 18.62-18.62c1.517-1.517 3.99-1.517 5.53 0l.21.21c1.517 1.517 1.517 3.99 0 5.53L48.953 45.734l-8.726 2.963Z" fill="#fff"/><path d="m61.693 23.695-1.32 1.32 3.481 3.48 1.32-1.319-3.481-3.481ZM45.195 40.19l-1.32 1.32 3.481 3.482 1.32-1.32-3.481-3.481Z" fill="#2A9CC8"/><path d="m41.184 47.67 2.193-6.977 18.48-18.48a3.253 3.253 0 0 1 4.62 0l.187.187a3.253 3.253 0 0 1 0 4.62L48.51 45.173l-7.326 2.497Zm3.826-5.973-1.003 3.197c1.423-.42 2.683-.817 3.103-.98l18.2-18.2c.537-.537.537-1.424 0-1.984l-.186-.186c-.537-.537-1.424-.537-1.984 0L45.01 41.697Z" fill="#2A9CC8"/>
    </symbol>
    <symbol id="association" viewBox="0 0 70 70">
        <title>Association</title>
        <path fill-rule="evenodd" clip-rule="evenodd" d="M9.34 4.316c0-.773.68-1.4 1.518-1.4h48.283c.84 0 1.519.627 1.519 1.4v61.367c0 .773-.68 1.4-1.518 1.4H10.858c-.838 0-1.518-.627-1.518-1.4V4.316Zm3.037 1.4v58.567h45.246V5.716H12.377Z" fill="#2A9CC8"/><path fill-rule="evenodd" clip-rule="evenodd" d="M51.637 48.883H41.23v-4.434h10.407v4.434ZM51.614 37.217h-10.43v-4.434h10.43v4.434ZM51.614 25.55h-10.43v-4.434h10.43v4.433ZM28.887 48.883H18.48v-4.434h10.407v4.434ZM28.864 37.217h-10.43v-4.434h10.43v4.434ZM28.864 25.55h-10.43v-4.434h10.43v4.433Z" fill="#2A9CC8"/><path fill-rule="evenodd" clip-rule="evenodd" d="M43.324 22.754a.7.7 0 0 1 .188.972L27.74 47.059a.7.7 0 0 1-1.16-.784l15.773-23.333a.7.7 0 0 1 .972-.188Z" fill="#2A9CC8"/><path d="m32.712 44.543-6.253 3.15.397-7 5.856 3.85Z" fill="#fff"/><path d="m31.64 44.497-4.597 2.31.28-5.133 4.317 2.823Z" fill="#2A9CC8"/><path d="m37.17 25.784 6.23-3.197-.35 7-5.88-3.803Z" fill="#fff"/><path d="m38.244 25.83 4.574-2.356-.257 5.133-4.317-2.777Z" fill="#2A9CC8"/>
    </symbol>
    <symbol id="order_by" viewBox="0 0 70 70">
        <title>Order By</title>
        <path fill-rule="evenodd" clip-rule="evenodd" d="M51.591 48.883h-23.73V44.45h23.73v4.433ZM51.544 37.217H27.791v-4.434h23.753v4.434ZM51.544 25.55H27.791v-4.433h23.753v4.433Z" fill="#2A9CC8"/><path d="M21.77 49.537a2.87 2.87 0 1 0 0-5.74 2.87 2.87 0 0 0 0 5.74ZM21.77 37.917a2.87 2.87 0 1 0 0-5.74 2.87 2.87 0 0 0 0 5.74ZM21.77 25.9a2.87 2.87 0 1 0 0-5.74 2.87 2.87 0 0 0 0 5.74Z" fill="#2A9CC8"/><path fill-rule="evenodd" clip-rule="evenodd" d="M9.34 4.317c0-.773.68-1.4 1.518-1.4h48.283c.84 0 1.519.627 1.519 1.4v61.367c0 .773-.68 1.4-1.518 1.4H10.858c-.838 0-1.518-.627-1.518-1.4V4.317Zm3.037 1.4v58.567h45.246V5.717H12.377Z" fill="#2A9CC8"/><path d="M51.542 32.247c.327-1.68 1.634-2.474 3.407-2.567 1.634-.07 2.707.56 3.244 2.147 1.096-.467 2.17-.42 3.15.256.98.677 1.423 1.68 1.423 2.8.607-.023 1.19-.14 1.75-.07 1.516.164 2.73 1.54 2.73 3.08.023 3.92.07 6.954 0 10.874-.093 5.483-4.177 10.243-9.52 11.176-4.13.724-7.7-.186-10.57-3.29a906.74 906.74 0 0 1-6.393-6.976c-1.097-1.19-1.284-3.034-.514-4.34.77-1.307 2.777-2.474 4.923-1.54.887.28 1.75.91 1.75.77-.093-4.13-.21-5.67-.21-9.124 0-1.843 1.82-3.196 3.617-3.336.514-.047.7.093 1.213.14Z" fill="#fff"/><path d="M52.01 34.137c.28-1.447 1.166-2.404 2.73-2.474 1.446-.07 2.356.747 2.846 2.1.98-.396 1.89-.373 2.777.234.863.583 1.26 1.446 1.26 2.426.536-.023 1.05-.116 1.54-.07 1.33.14 2.38 1.33 2.38 2.66.023 3.384.046 6.767 0 10.15-.094 4.714-3.664 8.82-8.33 9.637-3.617.607-6.744-.42-9.264-3.103-1.89-1.984-3.733-4.014-5.6-6.02-.956-1.027-1.12-2.357-.443-3.5.677-1.12 2.007-1.657 3.337-1.237.77.257 1.516.653 2.263.98.187.07.373.163.607.28v-9.31c0-1.587 1.05-2.753 2.636-2.87.374-.07.817.07 1.26.117Zm-2.194 8.89v5.133c0 .49-.373.84-.84.84-.467 0-.793-.35-.793-.84 0-.117-.047-.14-.234-.233a46.574 46.574 0 0 1-1.54-.747c-.49-.233-.98-.49-1.493-.653-.607-.187-1.143.046-1.423.536-.257.467-.164.957.256 1.447 1.844 1.983 3.664 3.967 5.507 5.927 1.913 2.053 4.317 2.916 7.093 2.59 4.2-.49 7.304-3.034 7.304-8.284V39.48c0-.14 0-.28-.024-.42-.07-.467-.35-.77-.793-.887-.747-.21-1.4.327-1.4 1.144v6.486c0 .164 0 .327-.023.467-.047.373-.374.677-.747.677a.81.81 0 0 1-.84-.607c-.047-.163-.047-.35-.047-.537V36.54c0-.887-.84-1.423-1.586-1.027-.467.234-.63.654-.63 1.144v9.59a.811.811 0 0 1-.817.723c-.49 0-.817-.373-.817-.933V34.58c-.07-.84-1.026-1.307-1.726-.817-.374.257-.49.63-.49 1.074v11.27c0 .373-.164.653-.49.816-.56.257-1.144-.163-1.144-.84v-8.866c0-.117 0-.257-.023-.374a1.117 1.117 0 0 0-1.447-.933c-.49.163-.77.56-.77 1.19-.023 1.96-.023 3.943-.023 5.927Z" fill="#2A9CC8"/>
    </symbol>
    <symbol id="text_to_fill" viewBox="0 0 70 70">
        <title>Text To Fill</title>
        <path fill-rule="evenodd" clip-rule="evenodd" d="M51.566 22.983h-8.283V18.55h8.283v4.433ZM35.117 22.983H18.434V18.55h16.683v4.433ZM51.567 42.117h-16.45v-4.433h16.45v4.433ZM28.747 42.117H18.434v-4.433h10.313v4.433ZM51.567 51.683H18.434V47.25h33.133v4.433ZM51.567 32.55H18.434v-4.434h33.133v4.434Z" fill="#2A9CC8"/><path fill-rule="evenodd" clip-rule="evenodd" d="M9.34 4.317c0-.773.68-1.4 1.518-1.4h48.283c.84 0 1.519.627 1.519 1.4v61.367c0 .773-.68 1.4-1.518 1.4H10.858c-.838 0-1.518-.627-1.518-1.4V4.317Zm3.037 1.4v58.567h45.246V5.717H12.377Z" fill="#2A9CC8"/>
    </symbol>
    <symbol id="area_select" viewBox="0 0 70 70">
        <title>Area Select</title>
        <path d="m43.657 25.807.234 4.97h-.584c-.117-.864-.28-1.494-.467-1.867-.326-.607-.746-1.05-1.283-1.33-.537-.28-1.236-.42-2.123-.42h-2.987v16.193c0 1.307.14 2.124.42 2.427.397.443 1.004.653 1.82.653h.724v.584h-8.984v-.584h.747c.886 0 1.54-.28 1.913-.816.233-.327.35-1.097.35-2.287V27.137h-2.543c-.98 0-1.703.07-2.1.21-.537.186-1.003.583-1.4 1.143s-.607 1.33-.677 2.287h-.583l.256-4.97h17.267Z" fill="#2A9CC8"/><path fill-rule="evenodd" clip-rule="evenodd" d="M49.677 56.42h1.866v1.867h-1.866V56.42ZM22.202 58.287h-.945V56.42h.945v1.867Zm3.78 0h-1.89V56.42h1.89v1.867Zm3.78 0h-1.89V56.42h1.89v1.867Zm3.78 0h-1.89V56.42h1.89v1.867Zm3.78 0h-1.89V56.42h1.89v1.867Zm3.78 0h-1.89V56.42h1.89v1.867Zm3.78 0h-1.89V56.42h1.89v1.867Zm2.835 0h-.945V56.42h.945v1.867ZM18.41 56.42h1.867v1.867H18.41V56.42ZM18.41 17.135v-.872h1.867v.872H18.41Zm0 3.49V18.88h1.867v1.744H18.41Zm0 3.489v-1.745h1.867v1.745H18.41Zm0 3.49v-1.745h1.867v1.744H18.41Zm0 3.489v-1.745h1.867v1.745H18.41Zm0 3.489v-1.745h1.867v1.745H18.41Zm0 3.49v-1.745h1.867v1.744H18.41Zm0 3.489v-1.745h1.867v1.745H18.41Zm0 3.49v-1.745h1.867v1.744H18.41Zm0 3.489v-1.745h1.867v1.745H18.41Zm0 3.489v-1.745h1.867v1.745H18.41Zm0 2.617v-.872h1.867v.872H18.41ZM18.41 13.51h1.867v1.866H18.41V13.51ZM23.182 15.376h-.945V13.51h.945v1.866Zm3.78 0h-1.89V13.51h1.89v1.866Zm3.78 0h-1.89V13.51h1.89v1.866Zm3.78 0h-1.89V13.51h1.89v1.866Zm3.78 0h-1.89V13.51h1.89v1.866Zm3.78 0h-1.89V13.51h1.89v1.866Zm3.78 0h-1.89V13.51h1.89v1.866Zm2.835 0h-.945V13.51h.945v1.866ZM49.677 15.376V13.51h1.866v1.866h-1.866ZM49.677 18.022v-.873h1.866v.873h-1.866Zm0 3.49v-1.745h1.866v1.744h-1.866Zm0 3.489v-1.745h1.866V25h-1.866Zm0 3.489v-1.745h1.866v1.745h-1.866Zm0 3.49v-1.745h1.866v1.744h-1.866Zm0 3.489v-1.745h1.866v1.745h-1.866Zm0 3.49v-1.746h1.866v1.745h-1.866Zm0 3.488v-1.744h1.866v1.744h-1.866Zm0 3.49v-1.745h1.866v1.745h-1.866Zm0 3.49v-1.745h1.866v1.744h-1.866Zm0 3.489V51.17h1.866v1.745h-1.866Zm0 2.617v-.873h1.866v.873h-1.866Z" fill="#2A9CC8"/><path fill-rule="evenodd" clip-rule="evenodd" d="M9.34 4.317c0-.773.68-1.4 1.518-1.4h48.283c.84 0 1.519.627 1.519 1.4v61.367c0 .773-.68 1.4-1.518 1.4H10.858c-.838 0-1.518-.627-1.518-1.4V4.317Zm3.037 1.4v58.567h45.246V5.717H12.377Z" fill="#2A9CC8"/>
    </symbol>
    <symbol id="area_select_image" viewBox="0 0 70 70">
        <title>Area Select Image</title>
        <path fill-rule="evenodd" clip-rule="evenodd" d="M49.677 27.51h1.866v1.866h-1.866V27.51ZM22.202 29.376h-.945V27.51h.945v1.866Zm3.78 0h-1.89V27.51h1.89v1.866Zm3.78 0h-1.89V27.51h1.89v1.866Zm3.78 0h-1.89V27.51h1.89v1.866Zm3.78 0h-1.89V27.51h1.89v1.866Zm3.78 0h-1.89V27.51h1.89v1.866Zm3.78 0h-1.89V27.51h1.89v1.866Zm2.835 0h-.945V27.51h.945v1.866ZM18.41 27.51h1.867v1.866H18.41V27.51ZM18.41 17.035v-.795h1.867v.796H18.41Zm0 3.182v-1.59h1.867v1.59H18.41Zm0 3.18v-1.59h1.867v1.59H18.41Zm0 2.387v-.796h1.867v.796H18.41ZM18.41 13.51h1.867v1.866H18.41V13.51ZM23.182 15.376h-.945V13.51h.945v1.866Zm3.78 0h-1.89V13.51h1.89v1.866Zm3.78 0h-1.89V13.51h1.89v1.866Zm3.78 0h-1.89V13.51h1.89v1.866Zm3.78 0h-1.89V13.51h1.89v1.866Zm3.78 0h-1.89V13.51h1.89v1.866Zm3.78 0h-1.89V13.51h1.89v1.866Zm2.835 0h-.945V13.51h.945v1.866ZM49.677 15.376V13.51h1.866v1.866h-1.866ZM49.677 17.899v-.796h1.866v.796h-1.866Zm0 3.18v-1.59h1.866v1.59h-1.866Zm0 3.182v-1.59h1.866v1.59h-1.866Zm0 2.386v-.795h1.866v.795h-1.866Z" fill="#2A9CC8"/><path d="M42.724 21.653v1.167c2.52 0 4.503 1.96 4.503 4.48 0 2.52-1.96 4.503-4.48 4.503a4.554 4.554 0 0 1-3.22-1.306 4.499 4.499 0 0 1-1.306-3.197c0-2.52 1.983-4.48 4.48-4.48l.023-1.167Zm0 0a5.607 5.607 0 0 0-5.647 5.647c0 3.173 2.497 5.67 5.67 5.67 3.127 0 5.623-2.52 5.623-5.67.024-3.15-2.496-5.647-5.646-5.647Z" fill="#2A9CC8"/><path d="M48.394 27.3c0 3.15-2.497 5.67-5.623 5.67-3.174 0-5.694-2.497-5.694-5.67h11.317ZM39.48 49.396c.84-1.447 1.634-2.87 2.474-4.247.373-.606.816-1.143 1.26-1.633.886-.956 1.376-.956 2.146.257.794 1.26 1.587 2.566 2.264 3.99 1.33 2.776 2.566 5.67 3.85 8.493.023.07.046.14.093.257H18.434c.046-.164.093-.304.14-.42 2.543-5.834 5.133-11.597 8.026-17.01.747-1.4 1.564-2.707 2.404-3.967.886-1.306 1.283-1.353 2.17-.07 1.283 1.89 2.45 3.827 3.593 5.81 1.517 2.637 2.94 5.367 4.41 8.05.117.187.233.373.303.49Z" fill="#2A9CC8"/><path fill-rule="evenodd" clip-rule="evenodd" d="M9.34 4.317c0-.773.68-1.4 1.518-1.4h48.283c.84 0 1.519.627 1.519 1.4v61.367c0 .773-.68 1.4-1.518 1.4H10.858c-.838 0-1.518-.627-1.518-1.4V4.317Zm3.037 1.4v58.567h45.246V5.717H12.377Z" fill="#2A9CC8"/>
    </symbol>
</svg>