<svg width="21" height="20" viewBox="0 0 21 20" fill="none" xmlns="http://www.w3.org/2000/svg">
<path fill-rule="evenodd" clip-rule="evenodd" d="M3.8335 9.99984C3.8335 9.5396 4.20659 9.1665 4.66683 9.1665H16.3335C16.7937 9.1665 17.1668 9.5396 17.1668 9.99984C17.1668 10.4601 16.7937 10.8332 16.3335 10.8332H4.66683C4.20659 10.8332 3.8335 10.4601 3.8335 9.99984Z" fill="#2A9CC8"/>
<path fill-rule="evenodd" clip-rule="evenodd" d="M9.91058 3.57757C10.236 3.25214 10.7637 3.25214 11.0891 3.57757L16.9224 9.41091C17.2479 9.73634 17.2479 10.264 16.9224 10.5894L11.0891 16.4228C10.7637 16.7482 10.236 16.7482 9.91058 16.4228C9.58514 16.0973 9.58514 15.5697 9.91058 15.2442L15.1547 10.0002L9.91058 4.75609C9.58514 4.43065 9.58514 3.90301 9.91058 3.57757Z" fill="#2A9CC8"/>
</svg>
