<svg width="20" height="20" viewBox="0 0 20 20" fill="none" xmlns="http://www.w3.org/2000/svg">
<path fill-rule="evenodd" clip-rule="evenodd" d="M17.5002 10.0002C17.5002 14.1423 14.1423 17.5002 10.0002 17.5002C5.85803 17.5002 2.50016 14.1423 2.50016 10.0002C2.50016 5.85803 5.85803 2.50016 10.0002 2.50016C14.1423 2.50016 17.5002 5.85803 17.5002 10.0002ZM19.1668 10.0002C19.1668 15.0628 15.0628 19.1668 10.0002 19.1668C4.93755 19.1668 0.833496 15.0628 0.833496 10.0002C0.833496 4.93755 4.93755 0.833496 10.0002 0.833496C15.0628 0.833496 19.1668 4.93755 19.1668 10.0002ZM10.8337 5.14746C10.8337 4.68722 10.4606 4.31413 10.0003 4.31413C9.54011 4.31413 9.16702 4.68722 9.16702 5.14746V10.1391L6.78369 12.0458C6.42431 12.3333 6.36604 12.8577 6.65355 13.2171C6.94105 13.5764 7.46546 13.6347 7.82485 13.3472L10.5209 11.1903C10.7186 11.0322 10.8337 10.7928 10.8337 10.5396V5.14746Z" fill="#909090"/>
</svg>
